<svg xmlns="http://www.w3.org/2000/svg" width="1350" height="872" viewBox="0 0 1350 872"><g><g opacity=".5"><g opacity=".5"><path fill="none" stroke="#fff" stroke-miterlimit="50" d="M1307.522 105.286c0 10.861-8.805 19.666-19.666 19.666s-19.666-8.805-19.666-19.666 8.805-19.666 19.666-19.666 19.666 8.805 19.666 19.666z"/></g><g opacity=".5"><path fill="#fff" d="M1296.592 105.286a8.735 8.735 0 0 1-8.736 8.735 8.735 8.735 0 1 1 0-17.471 8.736 8.736 0 0 1 8.736 8.736"/></g><g opacity=".5"><path fill="none" stroke="#fff" stroke-miterlimit="50" d="M1242.592 80.196a8.735 8.735 0 0 1-8.736 8.735 8.735 8.735 0 1 1 0-17.471 8.736 8.736 0 0 1 8.736 8.736z"/></g><g opacity=".5"><path fill="none" stroke="#fff" stroke-miterlimit="50" d="M427.992 218.056a8.736 8.736 0 0 1-8.736 8.736 8.736 8.736 0 1 1 8.736-8.736z"/></g><g opacity=".5"><path fill="none" stroke="#fff" stroke-miterlimit="50" d="M436.732 9.236a8.735 8.735 0 0 1-8.736 8.735 8.735 8.735 0 1 1 0-17.471 8.736 8.736 0 0 1 8.736 8.736z"/></g><g opacity=".5"><path fill="none" stroke="#fff" stroke-miterlimit="50" d="M121.472 124.736a8.736 8.736 0 1 1-17.472-.002 8.736 8.736 0 0 1 17.472.002z"/></g><g opacity=".5"><path fill="none" stroke="#fff" stroke-miterlimit="50" d="M1009.472 862.736a8.736 8.736 0 1 1-17.472-.002 8.736 8.736 0 0 1 17.472.002z"/></g><g opacity=".5"><path fill="none" stroke="#fff" stroke-miterlimit="50" d="M1009.472 862.736a8.736 8.736 0 1 1-17.472-.002 8.736 8.736 0 0 1 17.472.002z"/></g><g opacity=".5"><path fill="none" stroke="#fff" stroke-miterlimit="50" d="M1296.472 586.736a8.736 8.736 0 1 1-17.472-.002 8.736 8.736 0 0 1 17.472.002z"/></g><g opacity=".5"><path fill="none" stroke="#fff" stroke-miterlimit="50" d="M74.822 305.656a8.736 8.736 0 1 1-17.472-.002 8.736 8.736 0 0 1 17.472.002z"/></g><g opacity=".5"><path fill="none" stroke="#fff" stroke-miterlimit="50" d="M39.832 426.996c0 10.861-8.805 19.666-19.666 19.666S.5 437.857.5 426.996s8.805-19.666 19.666-19.666 19.666 8.805 19.666 19.666z"/></g><g opacity=".5"><path fill="#fff" d="M28.902 426.995a8.736 8.736 0 0 1-8.736 8.736 8.736 8.736 0 1 1 0-17.471 8.735 8.735 0 0 1 8.736 8.735"/></g><g opacity=".5"><path fill="none" stroke="#fff" stroke-miterlimit="50" d="M489.333 47.666c0 10.861-8.805 19.666-19.666 19.666S450 58.527 450 47.666 458.806 28 469.667 28c10.861 0 19.666 8.805 19.666 19.666z"/></g><g opacity=".5"><path fill="none" stroke="#fff" stroke-miterlimit="50" d="M1268.333 775.666c0 10.861-8.805 19.666-19.666 19.666S1229 786.527 1229 775.666 1237.806 756 1248.667 756c10.861 0 19.666 8.805 19.666 19.666z"/></g><g opacity=".5"><path fill="none" stroke="#fff" stroke-miterlimit="50" d="M114.473 606.666c0 10.861-8.805 19.666-19.666 19.666s-19.667-8.805-19.667-19.666S83.946 587 94.807 587c10.861 0 19.666 8.805 19.666 19.666z"/></g><g opacity=".5"><path fill="#fff" d="M478.472 47.736a8.735 8.735 0 0 1-8.736 8.735 8.735 8.735 0 1 1 0-17.471 8.736 8.736 0 0 1 8.736 8.736"/></g><g opacity=".5"><path fill="#fff" d="M1257.472 775.736a8.735 8.735 0 0 1-8.736 8.735 8.735 8.735 0 1 1 0-17.471 8.736 8.736 0 0 1 8.736 8.736"/></g><g opacity=".5"><path fill="#fff" d="M103.612 606.736a8.735 8.735 0 0 1-8.736 8.735 8.735 8.735 0 1 1 0-17.471 8.736 8.736 0 0 1 8.736 8.736"/></g><g opacity=".5"><path fill="none" stroke="#fff" stroke-miterlimit="50" d="M92.502 73.251c0 14.498-11.753 26.251-26.251 26.251C51.752 99.502 40 87.749 40 73.251 40 58.753 51.752 47 66.251 47c14.498 0 26.251 11.753 26.251 26.251z"/></g><g opacity=".5"><path fill="none" stroke="#fff" stroke-miterlimit="50" d="M256.502 739.251c0 14.498-11.753 26.251-26.251 26.251-14.499 0-26.251-11.753-26.251-26.251C204 724.753 215.752 713 230.251 713c14.498 0 26.251 11.753 26.251 26.251z"/></g><g opacity=".5"><path fill="none" stroke="#fff" stroke-miterlimit="50" d="M1169.502 641.251c0 14.498-11.753 26.251-26.251 26.251-14.499 0-26.251-11.753-26.251-26.251 0-14.498 11.752-26.251 26.251-26.251 14.498 0 26.251 11.753 26.251 26.251z"/></g><g opacity=".5"><path fill="#fff" d="M81.643 73.821c0 8.738-7.083 15.821-15.822 15.821C57.083 89.642 50 82.559 50 73.821S57.083 58 65.821 58c8.739 0 15.822 7.083 15.822 15.821"/></g><g opacity=".5"><path fill="#fff" d="M245.643 739.821c0 8.738-7.083 15.821-15.822 15.821-8.738 0-15.821-7.083-15.821-15.821S221.083 724 229.821 724c8.739 0 15.822 7.083 15.822 15.821"/></g><g opacity=".5"><path fill="#fff" d="M1158.643 641.821c0 8.738-7.083 15.821-15.822 15.821-8.738 0-15.821-7.083-15.821-15.821S1134.083 626 1142.821 626c8.739 0 15.822 7.083 15.822 15.821"/></g><g opacity=".5"><path fill="none" stroke="#fff" stroke-miterlimit="50" d="M1349.092 244.311c0 14.498-11.753 26.252-26.251 26.252-14.498 0-26.251-11.754-26.251-26.252s11.753-26.251 26.251-26.251c14.498 0 26.251 11.753 26.251 26.251z"/></g><g opacity=".5"><path fill="#fff" d="M1338.663 244.311c0 8.738-7.083 15.822-15.821 15.822-8.739 0-15.822-7.084-15.822-15.822 0-8.737 7.083-15.821 15.822-15.821 8.738 0 15.821 7.084 15.821 15.821"/></g></g></g></svg>