<svg xmlns="http://www.w3.org/2000/svg" width="340" height="568" viewBox="0 0 340 568"><g><g><path fill="none" stroke="#fff" stroke-miterlimit="50" d="M311 9.5a8.5 8.5 0 0 1-8.5 8.5 8.5 8.5 0 1 1 8.5-8.5z"/></g><g><path fill="none" stroke="#fff" stroke-miterlimit="50" d="M42.473 60.666c0 10.861-8.805 19.666-19.666 19.666S3.14 71.527 3.14 60.666 11.946 41 22.807 41c10.861 0 19.666 8.805 19.666 19.666z"/></g><g><path fill="#fff" d="M31.612 60.736a8.735 8.735 0 0 1-8.736 8.735 8.735 8.735 0 1 1 0-17.471 8.736 8.736 0 0 1 8.736 8.736"/></g><g><g><path fill="none" stroke="#fff" stroke-miterlimit="50" d="M59 16a9 9 0 1 1-18 0 9 9 0 0 1 18 0z"/></g><g><path fill="#fff" d="M54 16a4 4 0 1 1-8 0 4 4 0 0 1 8 0"/></g></g><g><path fill="none" stroke="#fff" stroke-miterlimit="50" d="M339 123a9 9 0 1 1-18 0 9 9 0 0 1 18 0z"/></g><g><path fill="#fff" d="M334 123a4 4 0 1 1-8 0 4 4 0 0 1 8 0"/></g><g><path fill="none" stroke="#fff" stroke-miterlimit="50" d="M40.473 543.666c0 10.861-8.805 19.666-19.666 19.666S1.14 554.527 1.14 543.666 9.946 524 20.807 524c10.861 0 19.666 8.805 19.666 19.666z"/></g><g><path fill="#fff" d="M29.612 543.736a8.735 8.735 0 0 1-8.736 8.735 8.735 8.735 0 1 1 0-17.471 8.736 8.736 0 0 1 8.736 8.736"/></g><g><path fill="none" stroke="#fff" stroke-miterlimit="50" d="M338 558a9 9 0 1 1-18 0 9 9 0 0 1 18 0z"/></g><g><path fill="#fff" d="M333 558a4 4 0 1 1-8 0 4 4 0 0 1 8 0"/></g></g></svg>