<svg xmlns="http://www.w3.org/2000/svg" width="1391" height="61" viewBox="0 0 1391 61"><defs><linearGradient id="fs2da" x1="1402.24" x2="0" y1="0" y2="0" gradientUnits="userSpaceOnUse"><stop offset="0" stop-color="#fff" stop-opacity="0"/><stop offset=".19" stop-color="#fff"/><stop offset=".81" stop-color="#fff"/><stop offset="1" stop-color="#fff" stop-opacity="0"/></linearGradient></defs><g><g><path fill="url(#fs2da)" d="M0 59.5A1.5 1.5 0 0 1 1.5 58c2.023 0 4.018-.012 5.984-.034h.017a1.5 1.5 0 0 1 .017 3C5.54 60.988 3.535 61 1.5 61A1.5 1.5 0 0 1 0 59.5zm578.294.006a1.503 1.503 0 0 1-1.499 1.503h-.002a511.41 511.41 0 0 1-11.993-.154 1.504 1.504 0 0 1-1.461-1.543 1.508 1.508 0 0 1 1.536-1.467c3.897.097 7.909.15 11.921.155a1.502 1.502 0 0 1 1.498 1.506zm569.236-.032a1.503 1.503 0 0 1-1.5 1.482h-.022a480.033 480.033 0 0 1-11.993-.322 1.503 1.503 0 0 1-1.439-1.564c.032-.83.708-1.495 1.558-1.443 3.904.155 7.913.263 11.917.32.828.012 1.49.695 1.479 1.527zm14.447 1.457a1.5 1.5 0 0 1-.023-3c4.027-.065 8.035-.181 11.91-.344.816-.018 1.526.608 1.561 1.436a1.501 1.501 0 0 1-1.436 1.562c-3.901.163-7.933.28-11.987.346zm-569.194-.16l-.046.001a1.5 1.5 0 0 1-.045-2.999c4.029-.123 8.032-.299 11.898-.523.834-.024 1.537.583 1.585 1.411a1.5 1.5 0 0 1-1.411 1.584c-3.894.227-7.925.403-11.981.526zm-569.259-.255l-.069.001a1.5 1.5 0 0 1-.067-2.998c4.027-.183 8.027-.422 11.887-.71a1.513 1.513 0 0 1 1.607 1.385 1.5 1.5 0 0 1-1.384 1.608c-3.889.289-7.918.53-11.974.714zm526.896-1.757a1.5 1.5 0 0 1-1.589 1.405 396.96 396.96 0 0 1-11.959-.912 1.5 1.5 0 0 1-1.357-1.632 1.497 1.497 0 0 1 1.631-1.357c3.872.357 7.865.662 11.869.907a1.5 1.5 0 0 1 1.405 1.589zm569.237-.446a1.498 1.498 0 0 1-1.61 1.378c-4.05-.317-8.065-.696-11.936-1.126a1.5 1.5 0 0 1-1.325-1.657c.09-.823.846-1.406 1.655-1.325 3.84.427 7.823.803 11.839 1.118a1.497 1.497 0 0 1 1.377 1.612zm70.292 1.298a1.501 1.501 0 0 1-.243-2.99 363.74 363.74 0 0 0 11.845-1.15 1.5 1.5 0 1 1 .34 2.98 364.66 364.66 0 0 1-11.942 1.16zm-569.245-.608a1.5 1.5 0 0 1-.296-2.985c4-.397 7.973-.86 11.806-1.376a1.498 1.498 0 0 1 1.686 1.287 1.5 1.5 0 0 1-1.286 1.686 341.1 341.1 0 0 1-11.91 1.388zm-569.283-.74a1.5 1.5 0 0 1-1.667-1.31 1.498 1.498 0 0 1 1.313-1.662c3.966-.47 7.93-1.01 11.784-1.609a1.505 1.505 0 0 1 1.713 1.25 1.498 1.498 0 0 1-1.252 1.709 331.89 331.89 0 0 1-11.891 1.622zm471.251-2.116a1.5 1.5 0 0 1-1.692 1.28 313.889 313.889 0 0 1-11.854-1.872 1.5 1.5 0 0 1 .525-2.954c3.83.681 7.78 1.305 11.742 1.855.82.113 1.393.87 1.279 1.691zm569.315-.968a1.502 1.502 0 0 1-1.72 1.244 305.238 305.238 0 0 1-11.821-2.135 1.501 1.501 0 0 1-1.175-1.767 1.503 1.503 0 0 1 1.77-1.174c3.817.769 7.754 1.48 11.701 2.113a1.501 1.501 0 0 1 1.245 1.719zm125.752 1.081a1.5 1.5 0 0 1-.485-2.961 295.97 295.97 0 0 0 11.68-2.154 1.501 1.501 0 0 1 .603 2.94 301.976 301.976 0 0 1-11.798 2.175zm-569.316-1.172a1.5 1.5 0 0 1-.551-2.95 286.928 286.928 0 0 0 11.632-2.419 1.501 1.501 0 0 1 1.798 1.126 1.498 1.498 0 0 1-1.126 1.797 292.567 292.567 0 0 1-11.753 2.446zM79.06 53.769a1.5 1.5 0 0 1-.619-2.935 285.61 285.61 0 0 0 11.574-2.691c.802-.21 1.62.28 1.824 1.083a1.5 1.5 0 0 1-1.083 1.825 289.941 289.941 0 0 1-11.696 2.718zm416.183-2.552a1.501 1.501 0 0 1-1.802 1.119 289.253 289.253 0 0 1-11.619-2.991 1.504 1.504 0 0 1-1.04-1.852c.222-.8 1.05-1.27 1.847-1.043a286.584 286.584 0 0 0 11.497 2.961c.806.19 1.306.998 1.117 1.806zm569.444-1.598a1.501 1.501 0 0 1-1.831 1.073c-3.83-.995-7.72-2.091-11.56-3.258a1.5 1.5 0 1 1 .874-2.871 291.077 291.077 0 0 0 11.442 3.227 1.5 1.5 0 0 1 1.075 1.829zm180.449.814a1.5 1.5 0 0 1-.765-2.9 292.423 292.423 0 0 0 11.425-3.267 1.5 1.5 0 0 1 .883 2.868 294.435 294.435 0 0 1-11.543 3.299zm-569.465-1.807a1.499 1.499 0 0 1-.832-2.883 308.352 308.352 0 0 0 11.35-3.521 1.499 1.499 0 1 1 .944 2.847 310.63 310.63 0 0 1-11.462 3.557zm-569.514-1.96a1.498 1.498 0 0 1-.896-2.86 331.593 331.593 0 0 0 11.282-3.756 1.497 1.497 0 1 1 .997 2.826 340.592 340.592 0 0 1-11.383 3.79zm362.27-2.974a1.5 1.5 0 0 1-1.899.946 382.936 382.936 0 0 1-11.302-4.007 1.503 1.503 0 0 1 1.042-2.817c3.93 1.46 7.598 2.76 11.215 3.976a1.502 1.502 0 0 1 .944 1.902zm569.59-2.199a1.5 1.5 0 0 1-1.917.909 470.927 470.927 0 0 1-11.223-4.18 1.502 1.502 0 0 1-.858-1.94 1.497 1.497 0 0 1 1.938-.859 457.982 457.982 0 0 0 11.15 4.153 1.501 1.501 0 0 1 .91 1.917zm233.835.563a1.499 1.499 0 0 1-1.015-2.822c3.479-1.253 7.124-2.62 11.144-4.179a1.5 1.5 0 1 1 1.083 2.796 478.09 478.09 0 0 1-11.212 4.205zm-569.65-2.342a1.502 1.502 0 0 1-1.934-.874 1.5 1.5 0 0 1 .875-1.933c3.35-1.262 6.88-2.634 11.117-4.316a1.5 1.5 0 1 1 1.11 2.787 660.971 660.971 0 0 1-11.168 4.336zm-569.686-2.425a1.5 1.5 0 0 1-1.091-2.795c3.73-1.456 7.413-2.932 11.088-4.41a1.5 1.5 0 0 1 1.12 2.783 1181.015 1181.015 0 0 1-11.117 4.422zm309.766-3.264a1.5 1.5 0 0 1-1.949.838c-2.519-1.005-5.025-2.015-7.532-3.024l-3.551-1.43a1.5 1.5 0 0 1 1.12-2.783l3.552 1.429c2.504 1.009 5.007 2.018 7.523 3.021a1.5 1.5 0 0 1 .837 1.949zM1012 31.508a1.498 1.498 0 0 1-1.952.831l-1.221-.493c-3.28-1.32-6.559-2.64-9.865-3.95a1.499 1.499 0 0 1-.842-1.946 1.497 1.497 0 0 1 1.946-.843c3.312 1.312 6.597 2.634 9.881 3.956l1.222.492a1.5 1.5 0 0 1 .831 1.953zm285.894.451a1.5 1.5 0 0 1-1.122-2.783l.144-.058c3.643-1.466 7.287-2.933 10.967-4.385a1.5 1.5 0 0 1 1.103 2.791 1674.11 1674.11 0 0 0-10.948 4.377zM728.15 29.441a1.5 1.5 0 0 1-1.115-2.785 792.558 792.558 0 0 1 11.139-4.376 1.499 1.499 0 1 1 1.073 2.801 792.025 792.025 0 0 0-11.097 4.36zm-569.732-2.485a1.502 1.502 0 0 1-1.944-.849 1.5 1.5 0 0 1 .849-1.944c4.09-1.605 7.752-3 11.196-4.266a1.501 1.501 0 0 1 1.034 2.817 534.727 534.727 0 0 0-11.135 4.242zm257.98-3.235a1.503 1.503 0 0 1-1.936.869 420.11 420.11 0 0 0-11.19-4.084 1.498 1.498 0 0 1-.922-1.909 1.495 1.495 0 0 1 1.911-.923 422.237 422.237 0 0 1 11.267 4.111 1.5 1.5 0 0 1 .87 1.936zm569.641-2.388a1.502 1.502 0 0 1-1.923.897 356.533 356.533 0 0 0-11.243-3.885 1.5 1.5 0 0 1 .932-2.852 359.874 359.874 0 0 1 11.336 3.917 1.502 1.502 0 0 1 .898 1.923zm337.792.552a1.501 1.501 0 0 1-1.017-2.823 351.803 351.803 0 0 1 11.348-3.885 1.5 1.5 0 0 1 .921 2.854 353.44 353.44 0 0 0-11.252 3.854zm-569.664-2.224a1.5 1.5 0 0 1-.966-2.84 320.28 320.28 0 0 1 11.427-3.658 1.5 1.5 0 0 1 .86 2.875 315.676 315.676 0 0 0-11.321 3.623zm-569.607-2.103a1.5 1.5 0 0 1-.91-2.859 300.6 300.6 0 0 1 11.52-3.406 1.5 1.5 0 1 1 .794 2.892 300.757 300.757 0 0 0-11.404 3.373zm205.474-2.92a1.5 1.5 0 0 1-1.86 1.018 287.41 287.41 0 0 0-11.457-3.121 1.503 1.503 0 0 1-1.092-1.821 1.491 1.491 0 0 1 1.818-1.094c3.828.958 7.722 2.018 11.576 3.152a1.503 1.503 0 0 1 1.015 1.866zm569.491-1.878a1.498 1.498 0 0 1-1.838 1.058 286.574 286.574 0 0 0-11.534-2.844 1.5 1.5 0 0 1 .658-2.927 287.53 287.53 0 0 1 11.655 2.875 1.5 1.5 0 0 1 1.059 1.838zm390.765.797a1.5 1.5 0 0 1-.769-2.9 290.332 290.332 0 0 1 11.666-2.834 1.5 1.5 0 0 1 .648 2.93 287.3 287.3 0 0 0-11.545 2.804zm-569.507-1.641a1.5 1.5 0 0 1-.7-2.918A295.11 295.11 0 0 1 791.81 6.44a1.501 1.501 0 0 1 .58 2.944c-3.901.767-7.807 1.62-11.608 2.532zm-569.436-1.494a1.5 1.5 0 0 1-.631-2.934 296.807 296.807 0 0 1 11.786-2.285 1.501 1.501 0 0 1 .512 2.957 289.091 289.091 0 0 0-11.667 2.262zM363.003 7.93a1.499 1.499 0 0 1-1.756 1.191 306.98 306.98 0 0 0-11.714-2.006 1.5 1.5 0 0 1 .449-2.967c3.973.602 7.953 1.283 11.83 2.027a1.5 1.5 0 0 1 1.191 1.755zm569.331-1.234a1.5 1.5 0 0 1-1.728 1.231c-3.843-.648-7.8-1.238-11.76-1.752a1.5 1.5 0 0 1 .387-2.975c3.997.52 7.991 1.114 11.871 1.768a1.499 1.499 0 0 1 1.23 1.728zm445.06 1.064a1.5 1.5 0 0 1-.488-2.96 324.048 324.048 0 0 1 11.877-1.731 1.506 1.506 0 0 1 1.676 1.3 1.5 1.5 0 0 1-1.299 1.677 318.337 318.337 0 0 0-11.766 1.714zM808.012 6.739a1.5 1.5 0 0 1-.424-2.971 340.464 340.464 0 0 1 11.908-1.483c.825-.101 1.562.508 1.65 1.332a1.499 1.499 0 0 1-1.332 1.65 334.41 334.41 0 0 0-11.802 1.472zm-569.314-.886a1.5 1.5 0 0 1-.364-2.978c3.889-.475 7.904-.896 11.934-1.251a1.5 1.5 0 1 1 .264 2.988c-3.997.353-7.979.771-11.834 1.241zm96.762-2.075a1.501 1.501 0 0 1-1.648 1.335 371.837 371.837 0 0 0-11.863-1.026 1.499 1.499 0 0 1-1.391-1.6c.059-.824.77-1.46 1.604-1.386 4.047.286 8.07.634 11.96 1.034a1.5 1.5 0 0 1 1.338 1.643zm569.25-.648a1.504 1.504 0 0 1-1.622 1.372 399.36 399.36 0 0 0-11.885-.823 1.503 1.503 0 0 1-1.417-1.584c.045-.83.724-1.456 1.581-1.42 4.048.22 8.076.5 11.973.83.827.07 1.439.798 1.37 1.625zm500.227 1.278a1.5 1.5 0 0 1-.244-2.99c3.886-.318 7.913-.585 11.969-.797.812-.025 1.533.592 1.576 1.42a1.5 1.5 0 0 1-1.42 1.576c-4.028.21-8.025.476-11.881.791zm-569.315-.489a1.501 1.501 0 0 1-.194-2.994c3.892-.251 7.922-.454 11.978-.603.807-.053 1.523.615 1.553 1.444a1.499 1.499 0 0 1-1.444 1.554c-4.027.148-8.029.349-11.893.599zm-569.255-.38l-.074.002a1.5 1.5 0 0 1-.07-2.998c3.907-.19 7.938-.33 11.977-.42.806.011 1.514.638 1.532 1.467a1.501 1.501 0 0 1-1.466 1.533c-4.013.089-8.017.228-11.9.416zm41.267-1.715a1.497 1.497 0 0 1-1.497 1.449l-.051-.001c-3.876-.13-7.882-.215-11.905-.251a1.5 1.5 0 0 1 .014-3h.013a492.9 492.9 0 0 1 11.979.253 1.5 1.5 0 0 1 1.447 1.55zm569.228-.203a1.501 1.501 0 0 1-1.5 1.472h-.029A511.304 511.304 0 0 0 865.494 3l-2.083.005h-.006a1.5 1.5 0 0 1-.006-3L865.492 0c3.344 0 6.674.031 9.898.093a1.5 1.5 0 0 1 1.472 1.528zM1435.5 3.034a1.5 1.5 0 0 1-.017-3C1437.46.011 1439.466 0 1441.5 0a1.5 1.5 0 1 1 0 3c-2.022 0-4.016.011-5.982.034z"/></g></g></svg>