<svg xmlns="http://www.w3.org/2000/svg" width="70" height="76" viewBox="0 0 70 76"><g><g><g><path fill="#242d3c" d="M11.81 59.833h2.753V57.08H11.81z"/></g><g><path fill="#242d3c" d="M66.866 29.43h2.752v-2.752h-2.752z"/></g><g><path fill="#242d3c" d="M66.866 54.567h2.752v-2.514h-2.752zm0-5.028h2.752v-2.513h-2.752zm0-5.033h2.752V42h-2.752zm0-5.027h2.752v-2.507h-2.752zm0-5.02h2.752v-2.513h-2.752z"/></g><g><path fill="#242d3c" d="M66.866 59.833h2.752V57.08h-2.752z"/></g><g><path fill="#242d3c" d="M61.364 57.08h2.753v2.753h-2.753zm-5.506 0h2.753v2.753h-2.753zm-5.506 0h2.753v2.753h-2.753zm-5.505 0H47.6v2.753h-2.753zm-5.506 0h2.747v2.753H39.34zm-5.506 0h2.753v2.753h-2.753zm-5.505 0h2.753v2.753H28.33zm-5.506 0h2.753v2.753h-2.753zm-5.506 0h2.753v2.753h-2.753z"/></g><g><path fill="#242d3c" d="M3.552 18.42h52.305v27.648H3.552zM.8 48.822h57.81V15.668H.8z"/></g><g><g><path fill="#ffaf00" d="M47.853 20.81a5.612 5.612 0 0 0 5.61 5.605v11.653a5.61 5.61 0 0 0-5.61 5.604H11.551a5.602 5.602 0 0 0-5.603-5.604V26.415a5.603 5.603 0 0 0 5.603-5.605h36.302M29.704 41.449c5.087 0 9.202-4.124 9.202-9.208 0-5.083-4.115-9.206-9.202-9.206-5.083 0-9.207 4.123-9.207 9.206 0 5.084 4.124 9.208 9.207 9.208"/></g><g><path fill="#242d3c" d="M30.445 38.028h-1.476a3.581 3.581 0 0 1-2.524-1.036 3.602 3.602 0 0 1-1.051-2.542h2.753c0 .223.087.435.246.597.143.14.355.228.576.228h1.476c.218 0 .436-.09.597-.248a.81.81 0 0 0 .223-.577.801.801 0 0 0-.229-.581.856.856 0 0 0-.591-.247h-1.476c-.949 0-1.846-.371-2.527-1.044a3.579 3.579 0 0 1-1.048-2.54c0-.944.365-1.84 1.031-2.52a3.6 3.6 0 0 1 2.544-1.056h1.476a3.59 3.59 0 0 1 2.523 1.034 3.572 3.572 0 0 1 1.05 2.543h-2.753a.82.82 0 0 0-.236-.589.858.858 0 0 0-.584-.235h-1.476a.843.843 0 0 0-.594.247.834.834 0 0 0-.228.577c0 .225.085.434.24.591.152.15.363.239.582.239h1.476c.947 0 1.843.37 2.526 1.041a3.54 3.54 0 0 1 1.047 2.54 3.56 3.56 0 0 1-1.037 2.531 3.598 3.598 0 0 1-2.536 1.047"/></g><g/><g><path fill="#242d3c" d="M28.328 27.836h2.753v-2.262h-2.753z"/></g><g><path fill="#242d3c" d="M28.328 38.91h2.753v-2.26h-2.753z"/></g><g><path fill="#242d3c" d="M42.278 33.619h6.28v-2.753h-6.28z"/></g><g><path fill="#242d3c" d="M10.85 33.619h6.274v-2.753H10.85z"/></g><g><path fill="#242d3c" d="M64.112 54.328H6.302v-6.881h2.753v4.129h52.304V23.929h-4.13v-2.753h6.883z"/></g><g><path fill="#242d3c" d="M20.494 9.035L18.548 7.09c9.187-9.185 24.14-9.185 33.329 0L49.93 9.035c-8.117-8.112-21.323-8.112-29.437 0"/></g><g><path fill="#242d3c" d="M43.856 10.48l-.396-2.725 5.884-.855-.855-5.883L51.214.62l1.25 8.609z"/></g><g><path fill="#242d3c" d="M35.213 75.3c-6.035 0-12.07-2.297-16.665-6.888l1.946-1.948c8.117 8.112 21.322 8.112 29.436 0l1.947 1.948C47.283 73.003 41.248 75.3 35.213 75.3"/></g><g><path fill="#242d3c" d="M19.211 74.883l-1.251-8.61 8.609-1.249.396 2.724-5.884.854.854 5.885z"/></g></g></g></g></svg>