<svg xmlns="http://www.w3.org/2000/svg" width="76" height="69" viewBox="0 0 76 69"><g><g><g><path fill="#ffaf00" d="M15.771 19.388c8.602 0 15.57 6.973 15.57 15.57 0 8.6-6.968 15.572-15.57 15.572C7.173 50.53.2 43.558.2 34.959c0-8.598 6.973-15.571 15.571-15.571m.003 22.402a6.833 6.833 0 0 0 6.834-6.831 6.833 6.833 0 0 0-13.664 0 6.83 6.83 0 0 0 6.83 6.83"/></g><g><path fill="#242d3c" d="M15.772 43.163c-4.524 0-8.204-3.681-8.204-8.207 0-4.524 3.68-8.206 8.204-8.206 4.525 0 8.207 3.682 8.207 8.206 0 4.526-3.682 8.207-8.207 8.207m0-13.66a5.46 5.46 0 0 0-5.452 5.453 5.46 5.46 0 0 0 5.452 5.455 5.46 5.46 0 0 0 5.455-5.455 5.46 5.46 0 0 0-5.455-5.454"/></g><g><g/><g><path fill="#242d3c" d="M67.675 43.163c-4.525 0-8.207-3.681-8.207-8.207 0-4.524 3.682-8.206 8.207-8.206 4.526 0 8.207 3.682 8.207 8.206 0 4.526-3.681 8.207-8.207 8.207m0-13.66a5.46 5.46 0 0 0-5.454 5.453 5.46 5.46 0 0 0 5.454 5.455 5.46 5.46 0 0 0 5.455-5.455 5.46 5.46 0 0 0-5.455-5.454"/></g></g><g/><g><path fill="#242d3c" d="M22.604 36.336h38.241v-2.752H22.604z"/></g><g><path fill="#242d3c" d="M41.724 17.213a8.153 8.153 0 0 1-5.801-2.403c-3.199-3.202-3.199-8.409 0-11.607A8.15 8.15 0 0 1 41.724.8c2.192 0 4.252.853 5.802 2.403 3.198 3.198 3.198 8.405 0 11.606a8.154 8.154 0 0 1-5.802 2.404m0-13.66a5.418 5.418 0 0 0-3.855 1.596 5.464 5.464 0 0 0 0 7.715 5.42 5.42 0 0 0 3.855 1.596 5.418 5.418 0 0 0 3.856-1.596 5.464 5.464 0 0 0 0-7.715 5.417 5.417 0 0 0-3.856-1.597"/></g><g><path fill="#242d3c" d="M43.098 9.004a1.376 1.376 0 1 1-2.752 0 1.376 1.376 0 0 1 2.752 0"/></g><g><path fill="#242d3c" d="M21.574 31.104l-1.946-1.946 16.295-16.292 1.946 1.946z"/></g><g><path fill="#242d3c" d="M41.724 69.112a8.15 8.15 0 0 1-5.801-2.403c-3.199-3.198-3.199-8.404 0-11.606a8.153 8.153 0 0 1 5.801-2.403c2.192 0 4.253.853 5.802 2.402 3.198 3.203 3.198 8.409 0 11.607a8.153 8.153 0 0 1-5.802 2.403m0-13.66a5.416 5.416 0 0 0-3.855 1.597 5.464 5.464 0 0 0 0 7.715 5.418 5.418 0 0 0 3.855 1.597 5.417 5.417 0 0 0 3.856-1.597 5.465 5.465 0 0 0 0-7.716 5.417 5.417 0 0 0-3.856-1.596"/></g><g><path fill="#242d3c" d="M35.923 57.054L19.628 40.762l1.946-1.946 16.295 16.292z"/></g><g><path fill="#242d3c" d="M17.148 34.96a1.376 1.376 0 1 1-2.752.002 1.376 1.376 0 0 1 2.752-.002"/></g><g><path fill="#242d3c" d="M43.098 60.91a1.376 1.376 0 1 1-2.752.001 1.376 1.376 0 0 1 2.752 0"/></g><g><path fill="#242d3c" d="M69.048 34.96a1.376 1.376 0 1 1-2.752.002 1.376 1.376 0 0 1 2.752-.002"/></g></g></g></svg>