<svg xmlns="http://www.w3.org/2000/svg" width="53" height="71" viewBox="0 0 53 71"><g><g><g><path fill="#ffaf00" d="M36.923 5.001v5.226h10.733v55.587H5.828V10.227H16.56V5.001L.6 4.998v66.045h52.284V4.998z"/></g><g><path fill="#242d3c" d="M49.033 67.188H4.452V8.85h13.485v2.751H7.205v52.835H46.28V11.601H35.548V8.85h13.485z"/></g><g><g><g/><g><path fill="#242d3c" d="M26.738 3.352c.91 0 1.65.74 1.65 1.65v2.752h5.777v4.952H19.312V7.754h5.776V5.003c0-.911.74-1.651 1.65-1.651M26.741.6a4.403 4.403 0 0 0-4.402 4.403H16.56v10.455h20.363V5.003h-5.779A4.403 4.403 0 0 0 26.741.6"/></g></g><g/><g><path fill="#242d3c" d="M11.61 49.39h30.27v-2.752H11.61z"/></g><g><path fill="#242d3c" d="M11.61 54.892h30.27V52.14H11.61z"/></g><g><path fill="#242d3c" d="M11.61 60.394h30.27v-2.752H11.61z"/></g><g><path fill="#242d3c" d="M31.773 39.952L17.37 25.549l1.945-1.945 14.403 14.403z"/></g><g><path fill="#242d3c" d="M33.718 25.549L19.315 39.95l-1.945-1.945 14.403-14.402z"/></g></g></g></g></svg>