<svg xmlns="http://www.w3.org/2000/svg" width="543" height="714" viewBox="0 0 543 714"><defs><linearGradient id="og26a" x1="472.92" x2="434.84" y1="447.96" y2="447.96" gradientUnits="userSpaceOnUse"><stop offset="0" stop-color="#bfe7e9"/><stop offset="1" stop-color="#fff"/></linearGradient><linearGradient id="og26b" x1="454.58" x2="434.91" y1="480.42" y2="480.42" gradientUnits="userSpaceOnUse"><stop offset="0" stop-color="#c1cdd9"/><stop offset="1" stop-color="#fff"/></linearGradient><linearGradient id="og26c" x1="448.99" x2="448.99" y1="715.56" y2="426.7" gradientUnits="userSpaceOnUse"><stop offset="0" stop-color="#fff"/><stop offset="1" stop-color="#fff"/></linearGradient><linearGradient id="og26d" x1="498.23" x2="396.9" y1="333.11" y2="333.11" gradientUnits="userSpaceOnUse"><stop offset="0" stop-color="#5755cc"/><stop offset="1" stop-color="#00d7ff"/></linearGradient><linearGradient id="og26e" x1="448.99" x2="448.99" y1="407.94" y2="306.82" gradientUnits="userSpaceOnUse"><stop offset="0" stop-color="#c1cdd9"/><stop offset="1" stop-color="#fff"/></linearGradient><linearGradient id="og26f" x1="488.62" x2="448.79" y1="217.42" y2="217.42" gradientUnits="userSpaceOnUse"><stop offset="0" stop-color="#5755cc"/><stop offset="1" stop-color="#00d7ff"/></linearGradient><linearGradient id="og26g" x1="488.63" x2="448.8" y1="161.22" y2="161.22" gradientUnits="userSpaceOnUse"><stop offset="0" stop-color="#5755cc"/><stop offset="1" stop-color="#00d7ff"/></linearGradient><linearGradient id="og26h" x1="396.11" x2="484.96" y1="382.58" y2="382.58" gradientUnits="userSpaceOnUse"><stop offset="0" stop-color="#5755cc"/><stop offset="1" stop-color="#00d7ff"/></linearGradient><linearGradient id="og26i" x1="278.15" x2="240.07" y1="385.75" y2="385.75" gradientUnits="userSpaceOnUse"><stop offset="0" stop-color="#bfe7e9"/><stop offset="1" stop-color="#fff"/></linearGradient><linearGradient id="og26j" x1="259.81" x2="240.13" y1="385.75" y2="385.75" gradientUnits="userSpaceOnUse"><stop offset="0" stop-color="#c1cdd9"/><stop offset="1" stop-color="#fff"/></linearGradient><linearGradient id="og26k" x1="305.87" x2="198.9" y1="288.35" y2="288.35" gradientUnits="userSpaceOnUse"><stop offset="0" stop-color="#5755cc"/><stop offset="1" stop-color="#00d7ff"/></linearGradient><linearGradient id="og26l" x1="254.22" x2="254.22" y1="349.74" y2="251.14" gradientUnits="userSpaceOnUse"><stop offset="0" stop-color="#c1cdd9"/><stop offset="1" stop-color="#fff"/></linearGradient><linearGradient id="og26m" x1="221.31" x2="265.57" y1="55.15" y2="103.07" gradientUnits="userSpaceOnUse"><stop offset="0" stop-color="#ff2bc6"/><stop offset="1" stop-color="#752994"/></linearGradient><linearGradient id="og26n" x1="265.69" x2="264.72" y1="231.92" y2="120.76" gradientUnits="userSpaceOnUse"><stop offset="0" stop-color="#ff2bc6"/><stop offset="1" stop-color="#752994"/></linearGradient><linearGradient id="og26o" x1="242.33" x2="262.28" y1="134.23" y2="94.85" gradientUnits="userSpaceOnUse"><stop offset="0" stop-color="#ff2bc6"/><stop offset="1" stop-color="#752994"/></linearGradient><linearGradient id="og26p" x1="63.19" x2="73.47" y1="210.6" y2="230.23" gradientUnits="userSpaceOnUse"><stop offset="0" stop-color="#00d7ff"/><stop offset="1" stop-color="#0086e1"/></linearGradient><linearGradient id="og26q" x1="80.2" x2="80.2" y1="360.07" y2="166.06" gradientUnits="userSpaceOnUse"><stop offset="0" stop-color="#ff2bc6"/><stop offset="1" stop-color="#ffd067"/></linearGradient><linearGradient id="og26r" x1="121.19" x2="88.62" y1="488.16" y2="488.16" gradientUnits="userSpaceOnUse"><stop offset="0" stop-color="#bfe7e9"/><stop offset="1" stop-color="#fff"/></linearGradient><linearGradient id="og26s" x1="105.5" x2="88.68" y1="488.16" y2="488.16" gradientUnits="userSpaceOnUse"><stop offset="0" stop-color="#c1cdd9"/><stop offset="1" stop-color="#fff"/></linearGradient><linearGradient id="og26t" x1="100.72" x2="100.72" y1="751.8" y2="505.03" gradientUnits="userSpaceOnUse"><stop offset="0" stop-color="#fff"/><stop offset="1" stop-color="#fff"/></linearGradient><linearGradient id="og26u" x1="36.79" x2="164.54" y1="375.34" y2="375.34" gradientUnits="userSpaceOnUse"><stop offset="0" stop-color="#5755cc"/><stop offset="1" stop-color="#00d7ff"/></linearGradient><linearGradient id="og26v" x1="100.66" x2="100.66" y1="411.64" y2="276.9" gradientUnits="userSpaceOnUse"><stop offset="0" stop-color="#c1cdd9"/><stop offset="1" stop-color="#fff"/></linearGradient><linearGradient id="og26w" x1="45.64" x2="153.2" y1="499.76" y2="499.76" gradientUnits="userSpaceOnUse"><stop offset="0" stop-color="#5755cc"/><stop offset="1" stop-color="#00d7ff"/></linearGradient><linearGradient id="og26x" x1="45.64" x2="134.49" y1="521.89" y2="521.89" gradientUnits="userSpaceOnUse"><stop offset="0" stop-color="#5755cc"/><stop offset="1" stop-color="#00d7ff"/></linearGradient><linearGradient id="og26y" x1="137.54" x2="157.82" y1="433.09" y2="433.09" gradientUnits="userSpaceOnUse"><stop offset="0" stop-color="#5755cc"/><stop offset="1" stop-color="#00d7ff"/></linearGradient><linearGradient id="og26z" x1="102.74" x2="136.56" y1="362.7" y2="436.2" gradientUnits="userSpaceOnUse"><stop offset="0" stop-color="#5755cc"/><stop offset="1" stop-color="#00d7ff"/></linearGradient><linearGradient id="og26A" x1="114.75" x2="148.57" y1="357.17" y2="430.67" gradientUnits="userSpaceOnUse"><stop offset="0" stop-color="#5755cc"/><stop offset="1" stop-color="#00d7ff"/></linearGradient><linearGradient id="og26B" x1="261.67" x2="237.97" y1="573.35" y2="573.35" gradientUnits="userSpaceOnUse"><stop offset="0" stop-color="#c1cdd9"/><stop offset="1" stop-color="#fff"/></linearGradient><linearGradient id="og26C" x1="293.18" x2="293.18" y1="855.69" y2="701.52" gradientUnits="userSpaceOnUse"><stop offset="0" stop-color="#fff"/><stop offset="1" stop-color="#fff"/></linearGradient><linearGradient id="og26D" x1="161.7" x2="424.57" y1="447.34" y2="447.34" gradientUnits="userSpaceOnUse"><stop offset="0" stop-color="#ff2bc6"/><stop offset="1" stop-color="#ffd067"/></linearGradient><linearGradient id="og26E" x1="370.65" x2="208.45" y1="480.92" y2="480.92" gradientUnits="userSpaceOnUse"><stop offset="0" stop-color="#5755cc"/><stop offset="1" stop-color="#00d7ff"/></linearGradient><linearGradient id="og26G" x1="293.14" x2="293.14" y1="494.66" y2="626.47" gradientUnits="userSpaceOnUse"><stop offset="0" stop-color="#5755cc"/><stop offset="1" stop-color="#00d7ff"/></linearGradient><linearGradient id="og26I" x1="293.14" x2="293.14" y1="494.66" y2="626.47" gradientUnits="userSpaceOnUse"><stop offset="0" stop-color="#5755cc"/><stop offset="1" stop-color="#00d7ff"/></linearGradient><linearGradient id="og26K" x1="293.14" x2="293.14" y1="494.66" y2="626.47" gradientUnits="userSpaceOnUse"><stop offset="0" stop-color="#5755cc"/><stop offset="1" stop-color="#00d7ff"/></linearGradient><linearGradient id="og26L" x1="205.13" x2="177.3" y1="389.03" y2="349.26" gradientUnits="userSpaceOnUse"><stop offset="0" stop-color="#0086e1"/><stop offset="1" stop-color="#00d7ff"/></linearGradient><linearGradient id="og26M" x1="175.94" x2="212.5" y1="381.91" y2="381.91" gradientUnits="userSpaceOnUse"><stop offset="0" stop-color="#c8f2ff"/><stop offset="1" stop-color="#00d7ff"/></linearGradient><linearGradient id="og26N" x1="232.56" x2="109.34" y1="512.84" y2="517.04" gradientUnits="userSpaceOnUse"><stop offset="0" stop-color="#5755cc"/><stop offset="1" stop-color="#00d7ff"/></linearGradient><linearGradient id="og26O" x1="232.6" x2="109.43" y1="514.28" y2="518.48" gradientUnits="userSpaceOnUse"><stop offset="0" stop-color="#5755cc"/><stop offset="1" stop-color="#00d7ff"/></linearGradient><linearGradient id="og26P" x1="519.46" x2="541.7" y1="551.41" y2="551.41" gradientUnits="userSpaceOnUse"><stop offset="0" stop-color="#5755cc"/><stop offset="1" stop-color="#00d7ff"/></linearGradient><linearGradient id="og26Q" x1="477.41" x2="499.04" y1="577.18" y2="577.18" gradientUnits="userSpaceOnUse"><stop offset="0" stop-color="#5755cc"/><stop offset="1" stop-color="#00d7ff"/></linearGradient><linearGradient id="og26R" x1="491.71" x2="527.52" y1="561.49" y2="561.49" gradientUnits="userSpaceOnUse"><stop offset="0" stop-color="#5755cc"/><stop offset="1" stop-color="#00d7ff"/></linearGradient><linearGradient id="og26S" x1="482.09" x2="509.64" y1="555.94" y2="555.94" gradientUnits="userSpaceOnUse"><stop offset="0" stop-color="#5755cc"/><stop offset="1" stop-color="#00d7ff"/></linearGradient><linearGradient id="og26T" x1="524.86" x2="532.74" y1="543.49" y2="533.18" gradientUnits="userSpaceOnUse"><stop offset="0" stop-color="#5755cc"/><stop offset="1" stop-color="#00d7ff"/></linearGradient><linearGradient id="og26U" x1="467.83" x2="484.29" y1="591.43" y2="568.67" gradientUnits="userSpaceOnUse"><stop offset="0" stop-color="#c8f2ff"/><stop offset="1" stop-color="#00d7ff"/></linearGradient><linearGradient id="og26V" x1="507.46" x2="519.31" y1="547.84" y2="530.2" gradientUnits="userSpaceOnUse"><stop offset="0" stop-color="#5755cc"/><stop offset="1" stop-color="#00d7ff"/></linearGradient><linearGradient id="og26W" x1="477.53" x2="493.65" y1="569.08" y2="540.7" gradientUnits="userSpaceOnUse"><stop offset="0" stop-color="#c8f2ff"/><stop offset="1" stop-color="#00d7ff"/></linearGradient><linearGradient id="og26X" x1="485.13" x2="579.68" y1="564.74" y2="562.89" gradientUnits="userSpaceOnUse"><stop offset="0" stop-color="#c8f2ff"/><stop offset="1" stop-color="#00d7ff"/></linearGradient><linearGradient id="og26Y" x1="19.49" x2="0" y1="423.62" y2="423.62" gradientUnits="userSpaceOnUse"><stop offset="0" stop-color="#5755cc"/><stop offset="1" stop-color="#00d7ff"/></linearGradient><linearGradient id="og26Z" x1="56.34" x2="37.38" y1="446.22" y2="446.22" gradientUnits="userSpaceOnUse"><stop offset="0" stop-color="#5755cc"/><stop offset="1" stop-color="#00d7ff"/></linearGradient><linearGradient id="og26aa" x1="43.8" x2="12.41" y1="432.45" y2="432.45" gradientUnits="userSpaceOnUse"><stop offset="0" stop-color="#5755cc"/><stop offset="1" stop-color="#00d7ff"/></linearGradient><linearGradient id="og26ab" x1="52.23" x2="28.1" y1="427.6" y2="427.6" gradientUnits="userSpaceOnUse"><stop offset="0" stop-color="#5755cc"/><stop offset="1" stop-color="#00d7ff"/></linearGradient><linearGradient id="og26ac" x1="14.75" x2="7.84" y1="416.67" y2="407.64" gradientUnits="userSpaceOnUse"><stop offset="0" stop-color="#5755cc"/><stop offset="1" stop-color="#00d7ff"/></linearGradient><linearGradient id="og26ad" x1="64.72" x2="50.3" y1="458.69" y2="438.74" gradientUnits="userSpaceOnUse"><stop offset="0" stop-color="#c8f2ff"/><stop offset="1" stop-color="#00d7ff"/></linearGradient><linearGradient id="og26ae" x1="30" x2="19.61" y1="420.49" y2="405.03" gradientUnits="userSpaceOnUse"><stop offset="0" stop-color="#5755cc"/><stop offset="1" stop-color="#00d7ff"/></linearGradient><linearGradient id="og26af" x1="56.23" x2="42.1" y1="439.1" y2="414.24" gradientUnits="userSpaceOnUse"><stop offset="0" stop-color="#c8f2ff"/><stop offset="1" stop-color="#00d7ff"/></linearGradient><linearGradient id="og26ag" x1="49.58" x2="-33.31" y1="435.3" y2="433.68" gradientUnits="userSpaceOnUse"><stop offset="0" stop-color="#c8f2ff"/><stop offset="1" stop-color="#00d7ff"/></linearGradient><clipPath id="og26F"><path d="M151.776 513.3a11.604 11.604 0 0 1 0-.312zm278.786-36.756c2.63-1.494 3.945-4.11 3.945-6.724v4.72c0 2.615-1.315 5.227-3.945 6.72l-164.89 93.613a21.69 21.69 0 0 1-21.376 0l-88.577-50.288c-2.696-1.529-4.006-4.233-3.943-6.91V513.3c.052 2.562 1.362 5.101 3.943 6.566l88.577 50.288a21.69 21.69 0 0 0 21.376 0z"/></clipPath><clipPath id="og26H"><path d="M151.776 547.191v.314zm113.896 57.165a21.683 21.683 0 0 1-21.376 0l-88.577-50.287c-2.581-1.463-3.891-4.002-3.943-6.564v4.373c-.063 2.678 1.247 5.382 3.943 6.912l88.577 50.287a21.683 21.683 0 0 0 21.376 0l164.89-93.611c2.63-1.494 3.945-4.108 3.945-6.723v-4.721c0 2.617-1.315 5.23-3.945 6.726z"/></clipPath><clipPath id="og26J"><path d="M151.776 582.275v.314zm113.896 57.165a21.69 21.69 0 0 1-21.376 0l-88.577-50.285c-2.581-1.465-3.891-4.006-3.943-6.566v4.372c-.063 2.678 1.247 5.381 3.943 6.912l88.577 50.286a21.683 21.683 0 0 0 21.376 0l164.89-93.61c2.63-1.493 3.945-4.108 3.945-6.724v-4.719c0 2.615-1.315 5.23-3.945 6.724z"/></clipPath></defs><g><g><g><g><g/><g><path fill="url(#og26a)" d="M447.172 373.95l-72.796-41.12v230.264H523.61v-229.71z"/></g></g><g><g/><g><path fill="url(#og26b)" d="M447.172 373.95l-72.796-41.12v295.184H523.61v-294.63z"/></g></g><g><g/><g><path fill="url(#og26c)" d="M447.172 373.95l-72.796-41.12v464.948H523.61V333.384z"/></g></g><g><g/><g><path fill="url(#og26d)" d="M436.092 293.533l-57.16 32.287a9.554 9.554 0 0 0-1.96 1.466v-1.32h-2.722v7.141h.025c-.236 3.296 1.317 6.698 4.658 8.586l54.858 30.988c8.694 4.91 19.407 4.91 28.1 0l57.158-32.288c3.227-1.824 4.784-5.061 4.672-8.252h.005v-7.494h-4.464v.004c-.071-.042-.14-.088-.213-.13l-54.858-30.988a28.56 28.56 0 0 0-14.05-3.683 28.557 28.557 0 0 0-14.049 3.683"/></g></g><g><g/><g><path fill="url(#og26e)" d="M436.093 285.903l-57.16 32.286c-6.244 3.528-6.244 12.346 0 15.873l54.859 30.988c8.694 4.91 19.407 4.91 28.099 0l57.159-32.287c6.244-3.527 6.244-12.345 0-15.872l-54.858-30.988a28.56 28.56 0 0 0-14.05-3.683 28.557 28.557 0 0 0-14.05 3.683"/></g></g><g><g><path fill="#ffcda7" d="M433.367 145.586c-25.509 0-47.903-15.918-49.066-16.756a5.381 5.381 0 0 1-1.21-7.508 5.375 5.375 0 0 1 7.503-1.214c.46.33 31.164 21.99 57.936 12.123a5.378 5.378 0 0 1 3.716 10.093c-6.303 2.322-12.682 3.262-18.88 3.262"/></g><g><path fill="#ffcda7" d="M387.445 129.854a5.362 5.362 0 0 1-4.015-1.8c-6.634-7.444-11.31-11.812-11.355-11.854a5.376 5.376 0 1 1 7.32-7.878c.202.189 5.058 4.718 12.06 12.575a5.38 5.38 0 0 1-.434 7.593 5.357 5.357 0 0 1-3.576 1.364"/></g><g><path fill="#ffcda7" d="M383.855 129.703c-.315 0-.633-.054-.945-.168l-6.768-2.457a2.767 2.767 0 1 1 1.888-5.202l6.77 2.46a2.765 2.765 0 0 1 1.654 3.543 2.764 2.764 0 0 1-2.6 1.824"/></g><g><path fill="#0099f7" d="M488.294 328.588h-2.932v2.519c-7.515-3.152-11.274-2.513-13.625-.034-1.691 1.784-3.617 5.621-4.771 8.987h-1.007v4.21c-.036 1.328.858 3.292 3.331 3.942 2.609.686 6.155-.025 7.82-1.087 3.264-2.076 8.542-7.057 10.716-11.163.275-.518.417-.997.454-1.445h.014z"/></g><g><path fill="#0099f7" d="M465.741 314.906c.002-.016 0-.03 0-.046v-5.928h-4.3v.998c-1.877-.599-4.182-.73-6.557-.242l-13.018 4.208c-.946.245-1.81.593-2.568 1.013h-3.33v4.475h.006c0 .266.026.531.093.796.642 2.536 4.249 4.015 8.274 3.389l13.524-2.101c4.469-.917 7.688-3.7 7.876-6.56z"/></g><g><path fill="#75d2ff" d="M457.868 316.735l-13.525 2.101c-4.025.625-7.631-.852-8.274-3.392-.64-2.531 4.049-6.395 5.8-7.621 3.293-2.309 9.517-6.606 13.36-7.62 5.019-1.322 11.1-.387 10.525 8.623-.18 2.803-2.776 6.859-7.886 7.909"/></g><g><path fill="#0099f7" d="M449.784 309.252c6.74 6.394 17.937-1.145 13.515-6.102-5.885-6.598-18.573 1.305-13.515 6.102"/></g><g><path fill="#fcfbfc" d="M456.488 310.241a6.452 6.452 0 0 1-6.448-6.34l-.748-41.71a6.455 6.455 0 0 1 6.335-6.571h.118a6.451 6.451 0 0 1 6.447 6.338l.747 41.713a6.451 6.451 0 0 1-6.334 6.569l-.117.001"/></g><g><path fill="#ffcda7" d="M455.735 268.533a6.45 6.45 0 0 1-6.444-6.309l-1.272-56.455a6.454 6.454 0 0 1 6.304-6.596c3.556-.048 6.515 2.744 6.595 6.307l1.27 56.455a6.453 6.453 0 0 1-6.304 6.596c-.05.002-.1.002-.149.002"/></g><g><path fill="#75d2ff" d="M487.828 331.54c-2.011 5.033-7.536 9.413-10.716 11.165-1.73.95-5.212 1.77-7.82 1.085-2.603-.685-3.461-2.83-3.319-4.15.378-3.532 4.89-13.964 7.334-16.541 2.362-2.495 8.352-3.489 11.405-2.051 4.077 1.917 3.908 8.508 3.116 10.492"/></g><g><path fill="#0099f7" d="M473.376 329.994c6.74 6.394 17.01-1.683 12.589-6.639-5.885-6.598-17.645 1.841-12.589 6.64"/></g><g><path fill="#fcfbfc" d="M479.154 330.439a6.452 6.452 0 0 1-6.167-4.57c-.377-1.23-9.198-30.293-9.198-44.462a6.45 6.45 0 1 1 12.9 0c0 10.165 6.234 32.821 8.637 40.692a6.454 6.454 0 0 1-6.172 8.34"/></g><g><path fill="#ffcda7" d="M470.225 287.85a6.452 6.452 0 0 1-6.406-5.777c-2.171-20.625 7.78-62.877 8.206-64.666a6.452 6.452 0 1 1 12.553 2.983c-.097.417-9.869 41.89-7.928 60.332a6.454 6.454 0 0 1-6.425 7.128"/></g></g><g><g/><g><path fill="url(#og26f)" d="M450.109 191.693c-5.5 3.075-4.43 43.242-.462 45.565 7.76 4.541 13.21-.738 13.183-4.242-.07-9.261 6.124-3.636 4.38 5.532-2.185 11.483 12.939 10.727 14.722 5.51 6.671-19.491 7.819-27.366 3.154-40.363-4.632-12.912-12.34-16.549-19.564-16.549-6.287 0-12.205 2.755-15.413 4.547"/></g></g><g><path fill="#ffcda7" d="M482.694 200.457c-2.049-26.312.315-22.37.315-40.891 0-24.29-32.807-26.038-35.187-12.23-2.132 12.375.606 39.14.606 46.4 0 2.032 2.08 6.225 13.922 10.618 9.154 3.394 21.07 5.43 20.344-3.897"/></g><g><g/><g><path fill="url(#og26g)" d="M445.897 135.114c-10.967 30.528-1.982 18.244-.448 43.572.144 2.392 3.142 6.01 16.612 12.458 10.377 4.965 21.595 2.463 22.28-4.6 2.236-23.051 1.356-11.336 1.356-33.2 0-13.547-17.094-24.648-29.079-24.648-4.999 0-9.11 1.93-10.721 6.418"/></g></g><g><g><path fill="#ffcda7" d="M459.596 155.185c6.594-.105 18.883-6.559 18.592-12.063-.331-6.243-16.456-15.26-22.964-12.222-4.35 2.03-8.358 13.892-6.198 18.181 1.374 2.725 7.518 6.153 10.57 6.104"/></g><g><path fill="#ffb67c" d="M461.615 143.61a5.379 5.379 0 0 1-5.15-3.846l-2.555-8.593a5.376 5.376 0 1 1 10.304-3.067l2.557 8.594a5.378 5.378 0 0 1-5.156 6.912"/></g><g><path fill="#ffcda7" d="M450.349 126.06l15.248 1.284 9.822-6.666 1.173-2.986c-.25 8.863-7.503 15.971-16.422 15.971-6.078 0-11.38-3.302-14.224-8.21l1.11-2.3z"/></g><g><path fill="#ff61cb" d="M443.336 118.269s-1.925 10.421-.32 19.377c.376 2.096 2.922 10.667 2.922 10.667s2.483-15.523 5.53-17.133c12.746-6.736 17.35 7.032 17.345-1.12-.003-4.96-11.503-24.912-11.503-24.912l-2.487 8.008z"/></g><g><path fill="#ff61cb" d="M462.898 127.454s.564 16.422-.158 21.122c-.325 2.104-2.31 5.995-2.31 5.995s10.303-4.855 12.82-7.209c2.335-2.182 6.132-6.977 6.128-15.13-.004-4.958-2.505-17.9-2.505-17.9l-2.488 8.01z"/></g><g><path fill="#ffcda7" d="M445.148 121.47l1.909 1.686-1.113 2.299a16.327 16.327 0 0 1-2.055-6.013z"/></g><g><path fill="#ffcda7" d="M474.103 120.765"/></g><g><path fill="#ffcda7" d="M470.213 123.452c.078-.04.154-.08.232-.118l-.232.118"/></g><g><path fill="#ffcda7" d="M467.596 124.53"/></g><g><path fill="#ffcda7" d="M468.45 124.213c.106-.04.214-.081.32-.123-.106.042-.214.083-.32.123"/></g><g><path fill="#ffcda7" d="M469.653 123.722l.26-.122-.26.122"/></g><g><path fill="#ffcda7" d="M474.44 120.433l.09-.095-.09.095"/></g><g><path fill="#ffcda7" d="M472.97 121.742l.113-.088-.113.088"/></g><g><path fill="#ffcda7" d="M472.508 122.074c.053-.036.104-.074.155-.112-.051.038-.102.076-.155.112"/></g><g><path fill="#ffcda7" d="M472.032 122.399a7.263 7.263 0 0 1 0 0"/></g><g><path fill="#ffcda7" d="M471.556 122.711l.172-.105-.172.105"/></g><g><path fill="#ffcda7" d="M461.886 125.623c.152-.011.306-.022.458-.035-.152.013-.306.024-.458.035"/></g><g><path fill="#ffcda7" d="M462.614 125.554"/></g><g><path fill="#ffcda7" d="M466.966 124.719l.399-.125-.399.125"/></g><g><path fill="#ffcda7" d="M461.116 125.666"/></g><g><path fill="#ffcda7" d="M463.327 125.475"/></g><g><path fill="#ffcda7" d="M460.15 125.683"/></g><g><path fill="#ffcda7" d="M465.636 125.064"/></g><g><path fill="#ffcda7" d="M466.308 124.906"/></g><g><path fill="#ffcda7" d="M464.027 125.382"/></g><g><path fill="#ffcda7" d="M464.937 125.216"/></g><g><path fill="#ffcda7" d="M469.065 123.971l.283-.119-.283.119"/></g><g><path fill="#ffcda7" d="M475.125 119.67l.059-.074-.059.074"/></g><g/><g><path fill="#ffcda7" d="M474.79 120.06l.087-.1-.088.1"/></g><g><path fill="#535fe9" d="M447.632 121.963l-.576 1.192-1.91-1.687-1.26-2.026a16.981 16.981 0 0 1-.151-2.114c.765 1.753 2.116 3.333 3.897 4.635"/></g><g><path fill="#3f07a8" d="M444.545 112.12a7.553 7.553 0 0 0-.24 1.865c0 .607.075 1.201.215 1.78.481 1.98 1.75 3.775 3.578 5.237l-.464.959c-1.782-1.302-3.133-2.882-3.898-4.636l-.001-.103c0-1.781.286-3.496.81-5.102"/></g><g><path fill="#3f07a8" d="M462.348 125.585l.271-.025-.271.025"/></g><g><path fill="#3f07a8" d="M472.662 121.965c.1-.076.204-.15.302-.227-.098.077-.2.151-.302.227"/></g><g><path fill="#3f07a8" d="M463.901 125.395c.037-.006.077-.01.115-.017-.038.007-.077.011-.115.017"/></g><g><path fill="#3f07a8" d="M463.075 125.505c.082-.01.163-.018.245-.029l-.245.03"/></g><g><path fill="#3f07a8" d="M474.873 119.959"/></g><g><path fill="#3f07a8" d="M469.905 123.592c.1-.05.204-.097.304-.146l-.304.146"/></g><g><path fill="#3f07a8" d="M473.082 121.657"/></g><g><path fill="#3f07a8" d="M474.145 120.717"/></g><g><path fill="#3f07a8" d="M461.606 125.634l.27-.018-.27.018"/></g><g><path fill="#3f07a8" d="M469.345 123.846c.1-.044.202-.088.301-.134-.1.046-.2.09-.3.134"/></g><g><path fill="#3f07a8" d="M460.878 125.668"/></g><g><path fill="#3f07a8" d="M470.437 123.327"/></g><g><path fill="#3f07a8" d="M474.523 120.338c.088-.092.174-.186.26-.28-.086.094-.172.188-.26.28"/></g><g><path fill="#3f07a8" d="M466.686 124.798l.273-.078-.273.078"/></g><g><path fill="#3f07a8" d="M467.358 124.597"/></g><g><path fill="#3f07a8" d="M475.181 119.6"/></g><g><path fill="#3f07a8" d="M468.771 124.1c.1-.04.2-.081.297-.122-.098.04-.197.083-.297.122"/></g><g><path fill="#3f07a8" d="M468.17 124.32"/></g><g><path fill="#3f07a8" d="M466.028 124.975c.094-.024.19-.048.282-.073l-.282.073"/></g><g><path fill="#3f07a8" d="M471.724 122.61c.105-.066.207-.133.31-.2-.103.067-.205.134-.31.2"/></g><g><path fill="#3f07a8" d="M464.699 125.272"/></g><g><path fill="#3f07a8" d="M465.37 125.132l.275-.062-.274.062"/></g><g><path fill="#3f07a8" d="M472.2 122.284"/></g><g><path fill="#ff61cb" d="M452.5 112.494c-.073-.044-.145-.084-.215-.126l2.805-5.796 5.65-3.378 1.354-.811 1.09-.651 4.04.65a16.547 16.547 0 0 1 8.276 8.913 7.65 7.65 0 0 1 .498 2.704c0 .245-.015.487-.039.73a7.562 7.562 0 0 1-.176 1.05c-1.144 4.709-6.743 8.388-13.742 8.956-1.953-5.027-5.496-9.762-9.541-12.241"/></g><g><path fill="#ff61cb" d="M462.082 102.382l-1.356.81-5.65 3.378-2.805 5.796c-2.237-1.321-4.311-1.76-6.036-1.42a5.23 5.23 0 0 0-1.465.519c.161-.43.337-.854.533-1.267a16.503 16.503 0 0 1 3.84-5.162 16.369 16.369 0 0 1 11.016-4.242c2.525 0 4.915.57 7.05 1.588l-4.04-.65z"/></g><g><path fill="#ffcda7" d="M444.548 112.129c.074-.225.152-.447.235-.668a5.32 5.32 0 0 1 1.465-.52c1.724-.338 3.798.1 6.036 1.422.071.042.143.082.216.126 4.044 2.48 7.588 7.214 9.541 12.241-.618.05-1.25.079-1.89.079-4.824 0-9.145-1.474-12.05-3.798-1.828-1.462-3.097-3.257-3.579-5.236a7.563 7.563 0 0 1-.214-1.781c0-.637.086-1.259.24-1.865"/></g><g><path fill="#535fe9" d="M443.253 115.921c.118.483.28.955.482 1.415.005.716.058 1.421.15 2.114l1.262 2.026 1.909 1.687.576-1.191c3.125 2.285 7.576 3.715 12.516 3.715.247 0 .492-.005.736-.012l.235-.01c.166-.006.33-.013.495-.022l.27-.017c.154-.011.307-.023.46-.037.09-.008.181-.015.271-.025.155-.015.31-.032.466-.05.081-.01.162-.018.245-.03.194-.025.389-.053.582-.082.038-.004.076-.01.115-.016.227-.036.45-.075.674-.117.079-.014.157-.031.234-.046.149-.03.294-.06.438-.091l.275-.062c.13-.03.26-.062.387-.094l.283-.071a37.399 37.399 0 0 0 .648-.18l.4-.125.232-.073c.195-.065.39-.132.581-.202.091-.033.182-.068.274-.103.107-.041.215-.082.32-.125.1-.04.198-.08.296-.122.095-.038.19-.078.283-.119l.3-.134c.089-.04.174-.08.261-.122.1-.048.203-.095.304-.146l.232-.119a18.78 18.78 0 0 0 1.11-.621c.057-.035.115-.07.172-.107.105-.065.207-.131.31-.2l.17-.113c.104-.07.204-.14.302-.21l.157-.112c.102-.076.203-.15.301-.227l.113-.088c.361-.284.702-.578 1.022-.886l.052-.048c.095-.092.189-.188.28-.281.03-.033.061-.063.092-.096.088-.092.174-.186.258-.281.03-.032.058-.066.09-.1.082-.097.166-.194.247-.293.02-.024.039-.05.057-.075.286-.354.545-.72.776-1.096.25-.409.466-.829.647-1.258a8.67 8.67 0 0 0 .443-1.322c.152-.627.233-1.27.233-1.925v3.85c0 6.457-7.669 11.691-17.13 11.691-9.458 0-17.126-5.234-17.126-11.691 0-.655.081-1.3.232-1.925"/></g><g><path fill="#0099f7" d="M448.09 121.003c2.905 2.324 7.225 3.798 12.05 3.798 7.863 0 14.387-3.909 15.63-9.033.086-.345.143-.697.176-1.052.026-.241.041-.483.041-.73 0-.932-.173-1.838-.5-2.702v-.001a16.448 16.448 0 0 0-4.257-6.205c3.695 2.143 6.04 5.338 6.04 8.908 0 .657-.08 1.3-.233 1.927-.11.449-.26.89-.443 1.321-.181.43-.397.85-.647 1.259-.231.376-.49.742-.774 1.096l-.06.074c-.08.1-.164.196-.247.293l-.09.1c-.083.096-.169.188-.257.28l-.092.097a10.556 10.556 0 0 1-.332.33c-.32.306-.66.601-1.02.884-.04.03-.076.06-.115.09-.098.077-.2.15-.3.226-.053.037-.104.075-.158.112-.098.07-.198.14-.3.21l-.173.114c-.102.067-.204.134-.309.2-.057.036-.115.07-.172.105-.357.218-.728.426-1.11.623l-.232.119-.304.146-.26.121-.3.135-.284.119c-.098.04-.196.082-.296.122-.105.042-.213.084-.32.123l-.274.105c-.192.07-.386.136-.58.201-.078.026-.156.048-.233.073-.133.042-.266.084-.4.123l-.273.079a18.646 18.646 0 0 1-.658.175c-.127.032-.257.063-.388.092a18.588 18.588 0 0 1-.712.153 26.066 26.066 0 0 1-.908.165c-.038.006-.078.01-.115.015-.193.03-.388.058-.582.083l-.245.03c-.155.018-.31.034-.466.05l-.271.025a25.151 25.151 0 0 1-1.225.076l-.235.01a25.58 25.58 0 0 1-.736.01c-4.94 0-9.39-1.43-12.516-3.714z"/></g><g><path fill="#0099f7" d="M458.22 102.083c3.242-2.034 6.172-2.265 8.28-.994v-.002l3.12 1.84-1.735-.068-1.14-.742c-1.625-.028-3.48.542-5.451 1.778-6.324 3.969-11.484 13.318-11.684 21.069l-3.076-1.82c.204-7.747 5.361-17.093 11.687-21.06"/></g><g><path fill="#535fe9" d="M471.769 105.587c-1.532-1.502-2.946-2.391-4.365-2.524-1.765-.165-3.842.126-6.107 1.548-5.88 3.688-10.678 12.676-10.887 19.889l-.798.472c.202-7.75 5.36-17.1 11.686-21.069 2.432-1.526 4.688-2.037 6.554-1.66 1.73.347 3.124 1.457 4.01 3.228z"/></g><g><path fill="#0099f7" d="M435.576 116.35l7.64-4.412.005-.004.04-.022v.004c.525-.267 1.067-.235 1.253.155 2.357 4.96 4.607 7.229 13.017 8.759 2.232.406 1.973 2.34 1.973 3.981v4.6c0 .718-.333 1.301-.796 1.62l-.003.002a1.89 1.89 0 0 1-.204.12l-6.903 3.985-5.481-3.166 5.182-4.823-7.236-4.866c-.876-.59-1.508-1.54-1.796-2.636z"/></g><g><path fill="#535fe9" d="M457.538 132.554c-.03.017-.06.031-.088.045l.14-.081c-.017.011-.033.025-.052.036"/></g><g><path fill="#535fe9" d="M436.96 126.394l13.016 8.757c1.076.724 2.423-.18 2.423-1.63v-4.597c0-1.644-.753-3.163-1.973-3.983l-13.017-8.757c-1.076-.726-2.421.179-2.421 1.63v4.597c0 1.643.751 3.16 1.972 3.983"/></g><g><path fill="#3f07a8" d="M437.282 125.901l12.165 8.185c.902.606 2.028.623 2.028-1.362v-3.847c0-1.374-.631-2.644-1.651-3.331l-12.166-8.184c-1.31-.964-2.026-.047-2.026 1.363v3.846c0 1.375.63 2.643 1.65 3.33"/></g><g><path fill="#0099f7" d="M470.45 127.406c.004-1.474 1.017-3.286 2.26-4.047.65-.398 1.234-.426 1.644-.154l.998.568-.468.253c.046.187.074.394.074.625-.004 1.474-1.016 3.286-2.261 4.047a2.16 2.16 0 0 1-.847.32l.354.505-1.075-.622c-.418-.227-.68-.743-.678-1.495"/></g><g><path fill="#535fe9" d="M471.514 128.01c-.002 1.475 1.004 2.053 2.246 1.292 1.246-.76 2.258-2.574 2.26-4.046.005-1.475-1.001-2.054-2.247-1.293-1.244.76-2.256 2.574-2.259 4.048"/></g><g><path fill="#ffb67c" d="M471.304 161.714c-.01 4.51 3.068 6.28 6.875 3.951 3.806-2.327 6.9-7.87 6.912-12.38.008-4.508-3.07-6.278-6.876-3.95-3.807 2.327-6.9 7.87-6.91 12.38"/></g><g><path fill="#ffcda7" d="M427.307 202.723c-6.084 0-10.198-.675-10.512-.73a5.376 5.376 0 0 1 1.789-10.605c1.977.328 47.606 7.366 54.987-35.01a5.373 5.373 0 0 1 6.218-4.375 5.377 5.377 0 0 1 4.372 6.222c-4.834 27.76-23.142 38.21-37.65 42.09-7.083 1.892-13.893 2.408-19.204 2.408"/></g><g><path fill="#ffcda7" d="M412.84 201.333c-7.957 0-13.32-1.579-13.57-1.656a5.376 5.376 0 0 1-3.603-6.696 5.371 5.371 0 0 1 6.675-3.61c.114.033 5.459 1.546 13.106 1.137a5.372 5.372 0 0 1 5.652 5.085 5.376 5.376 0 0 1-5.083 5.656 60.896 60.896 0 0 1-3.177.084"/></g><g><path fill="#ffcda7" d="M413.846 193.834c-.68 0-1.363-.25-1.897-.755l-4.964-4.681a2.767 2.767 0 0 1 3.794-4.026l4.964 4.682a2.765 2.765 0 0 1-1.897 4.78"/></g><g><path fill="#d7e4f3" d="M415.322 229.3l-39.994-23.1v32.675l5.668-5.67 34.326 19.826z"/></g><g><path fill="#ff61cb" d="M381.73 225.756l11.662 6.736c.518.3.837.854.834 1.452a.508.508 0 0 1-.762.432l-11.662-6.735a1.668 1.668 0 0 1-.834-1.452.509.509 0 0 1 .762-.433"/></g><g><path fill="#ff61cb" d="M381.73 220.801l19.546 11.288c.515.298.834.849.834 1.445a.508.508 0 0 1-.763.44l-19.545-11.289a1.67 1.67 0 0 1-.834-1.443c0-.392.424-.637.762-.441"/></g><g><path fill="#ff61cb" d="M380.646 216.095a.509.509 0 0 1 .763-.433l22.124 12.78c.52.3.837.852.834 1.451a.509.509 0 0 1-.763.433l-22.124-12.78a1.664 1.664 0 0 1-.834-1.451"/></g><g><path fill="#d7e4f3" d="M365.403 123.712l-39.995-23.1v23.876l33.038 18.937 6.957 10.905z"/></g><g><path fill="#0099f7" d="M331.81 120.168l11.663 6.736c.518.3.837.852.834 1.452a.508.508 0 0 1-.763.432l-11.662-6.735a1.668 1.668 0 0 1-.834-1.452.509.509 0 0 1 .763-.433"/></g><g><path fill="#0099f7" d="M331.81 115.213l19.546 11.288c.515.298.834.849.834 1.445a.508.508 0 0 1-.763.44l-19.545-11.289a1.67 1.67 0 0 1-.834-1.444c0-.391.424-.636.763-.44"/></g><g><path fill="#0099f7" d="M330.712 110.507a.508.508 0 0 1 .762-.433l22.125 12.78c.52.3.837.852.833 1.451a.508.508 0 0 1-.763.433l-22.124-12.78a1.663 1.663 0 0 1-.833-1.451"/></g><g><path fill="#0099f7" d="M326.192 141.811l38.176 22.232.06-4.659-38.177-22.232z"/></g><g><path fill="#d7e4f3" d="M325.618 186.797l38.178 22.232.577-44.983-38.177-22.232z"/></g><g><path fill="#0099f7" d="M335.974 186.031l17.634 10.268c1.169.68 2.129.2 2.145-1.072.016-1.273-.918-2.858-2.086-3.537l-17.634-10.269c-1.168-.68-2.128-.2-2.144 1.074-.017 1.273.917 2.856 2.085 3.536"/></g><g><path fill="#0099f7" d="M336.717 164.718c.077-5.99 3.874-8.669 8.48-5.988 4.605 2.683 8.278 9.712 8.2 15.701-.078 5.99-3.873 8.67-8.479 5.988-4.606-2.682-8.278-9.712-8.2-15.7"/></g><g><path fill="#ff61cb" d="M368.778 291.555l38.178 22.232.635-49.642-38.176-22.231z"/></g><g><path fill="#d7e4f3" d="M368.778 291.56l38.178 22.231.577-44.983-38.178-22.232z"/></g><g><path fill="#ff61cb" d="M379.136 290.793l17.633 10.268c1.169.68 2.128.2 2.144-1.072.017-1.273-.916-2.858-2.085-3.537l-17.633-10.269c-1.169-.68-2.129-.2-2.146 1.074-.015 1.273.918 2.856 2.087 3.536"/></g><g><path fill="#ff61cb" d="M379.891 269.48c.077-5.989 3.874-8.67 8.48-5.987 4.605 2.682 8.278 9.712 8.2 15.7-.078 5.99-3.873 8.671-8.479 5.989-4.607-2.683-8.278-9.712-8.2-15.701"/></g></g><g><g/><g><path fill="url(#og26h)" d="M396.11 368.08c-.003 2.763 1.966 6.127 4.399 7.509l39.82 22.198a18.173 18.173 0 0 0 17.943 0l22.287-12.671c2.432-1.383 4.402-4.746 4.399-7.511-.004-2.741-1.989-3.863-4.399-2.494l-24.57 13.972a13.56 13.56 0 0 1-13.378 0l-42.102-23.496c-.699-.397-1.362-.585-1.951-.585-1.444-.001-2.445 1.13-2.448 3.077"/></g></g><g><g/><g><path fill="url(#og26i)" d="M179.582 483.427h149.265V288.63l-76.454 40.843-72.811-41.402z"/></g></g><g><g/><g><path fill="url(#og26j)" d="M179.582 483.427h149.265V288.63l-76.454 40.843-72.811-41.402z"/></g></g><g><g/><g><path fill="url(#og26k)" d="M241.312 248.507l-57.17 32.508a9.486 9.486 0 0 0-1.963 1.478v-1.331h-2.723v7.191h.025c-.235 3.318 1.318 6.744 4.66 8.644l54.869 31.2a28.482 28.482 0 0 0 28.107 0l57.17-32.506c3.227-1.838 4.784-5.099 4.674-8.31h.003v-7.547H324.5v.006c-.07-.043-.139-.09-.213-.132l-54.87-31.201a28.421 28.421 0 0 0-14.053-3.709 28.416 28.416 0 0 0-14.052 3.709"/></g></g><g><g/><g><path fill="url(#og26l)" d="M241.31 240.835l-57.169 32.508c-6.247 3.551-6.247 12.43 0 15.98l54.869 31.201a28.475 28.475 0 0 0 28.107 0l57.17-32.508c6.246-3.55 6.246-12.43 0-15.982l-54.87-31.2a28.421 28.421 0 0 0-14.053-3.708 28.425 28.425 0 0 0-14.054 3.709"/></g></g><g><g><path fill="#d7e4f3" d="M219.331 82.726l51.68-30.453L270.559.4 218.88 30.853z"/></g><g><path fill="#ff61cb" d="M201.536 61.251l34.543-20.355-.304-34.672-34.543 20.356z"/></g><g><path fill="#ffb67c" d="M211.438 176.302a5.74 5.74 0 0 0 1.692-.27c.61-.195 6.144-2.035 12.598-6.964a5.74 5.74 0 0 0 1.078-8.043 5.735 5.735 0 0 0-8.04-1.08c-4.885 3.73-9.096 5.143-9.138 5.157-3.018.959-4.675 4.18-3.715 7.201.78 2.459 3.072 4.021 5.525 3.999"/></g><g><path fill="#ffb67c" d="M228.264 49.473a5.738 5.738 0 0 0 5.665-5.325c.61-8.473-2.557-15.281-2.921-16.029a5.734 5.734 0 0 0-7.666-2.654 5.738 5.738 0 0 0-2.666 7.641c.061.136 2.2 4.808 1.81 10.216a5.736 5.736 0 0 0 5.778 6.151"/></g><g><path fill="#ffb67c" d="M218.727 164.386a2.295 2.295 0 0 0 .336-4.563l-5.59-.886a2.295 2.295 0 0 0-.719 4.534l5.593.885c.127.021.254.03.38.03"/></g><g><path fill="#ffb67c" d="M225.05 47.28a2.298 2.298 0 0 0 1.772-3.728l-4.177-5.231a2.294 2.294 0 1 0-3.585 2.864l4.175 5.232a2.294 2.294 0 0 0 1.815.862"/></g><g><path fill="#ff61cb" d="M288.557 277.415l-.04-4.64-1.733.015.02 2.33c-2.443-1.822-8.759-6.529-10.046-7.457-3.149-2.274-6.463-1.932-8.264-.464l-.022-2.563-1.38.643.039 4.59h.004c0 .511.12 1.045.392 1.584l6.97 10c1.133 2.254 5.43 2.832 9.346 1.258 3.123-1.255 4.93-3.442 4.714-5.296"/></g><g><path fill="#ffaedf" d="M288.515 272.816l.001-.038c-.165-6.911-.394-7.38-2.249-9.199-1.93-1.893-9.317-2.793-12.406-3.094a6.244 6.244 0 0 0-1.314-.115l-.059-.004.001.006c-3.694.112-6.458 3.593-5.001 6.494l6.97 10c1.133 2.253 5.43 2.833 9.346 1.258 3.13-1.258 4.936-3.45 4.71-5.308"/></g><g><path fill="#ff61cb" d="M274.697 268.847c4.64 6.154 14.834 1.516 11.894-3.144-3.914-6.205-15.376-1.473-11.894 3.144"/></g><g><path fill="#ff61cb" d="M263.31 285.82l-2.02-.891a6.735 6.735 0 0 0-4.255-1.911s-13.14.556-15.788 1.13c-1.99.431-3.518 1.167-4.562 2.047l-.01-1.175-1.674.014.101 4.777c.298 1.46 1.717 2.811 4.36 3.554l15.208 3.038c3.806 1.071 7.728-1.323 8.531-5.208.098-.476.143-.949.141-1.414h.003z"/></g><g><path fill="#ffaedf" d="M239.424 289.406l15.21 3.036c3.805 1.073 7.728-1.321 8.531-5.206.836-4.04.174-11.064-6.593-11.532-6.412-.442-12.424 2.167-15.372 3.272-3.526 1.321-5.782 3.844-6.143 5.716-.36 1.87 1.034 3.776 4.367 4.714"/></g></g><g><g/><g><path fill="url(#og26m)" d="M229.917 49.684a6.776 6.776 0 0 0-6.275 7.248c2.225 31.066 13.384 42.79 47.756 50.179a6.9 6.9 0 0 0 1.49.152 6.783 6.783 0 0 0 1.359-13.413c-30.092-6.468-35.421-14.717-37.084-37.888-.256-3.572-3.246-6.296-6.76-6.296-.161 0-.324.006-.486.018"/></g></g><g><g><path fill="#fff" d="M280.832 270.646a5.353 5.353 0 0 0 5.219-6.34l-1.866-9.971a5.353 5.353 0 1 0-10.521 1.97l1.867 9.972a5.356 5.356 0 0 0 5.3 4.37"/></g><g><path fill="#fec08e" d="M278.962 260.668a5.354 5.354 0 0 0 5.25-6.153c-.058-.39-5.89-39.316-6.727-68.273-.085-2.956-2.578-5.292-5.504-5.197a5.352 5.352 0 0 0-5.195 5.506c.855 29.616 6.6 67.945 6.842 69.563a5.357 5.357 0 0 0 5.334 4.554"/></g><g><path fill="#ff61cb" d="M249.422 282.399c4.64 6.154 14.835 1.516 11.894-3.144-3.914-6.205-15.376-1.473-11.894 3.144"/></g><g><path fill="#fff" d="M255.556 284.679a5.353 5.353 0 0 0 5.305-5.4l-.085-9.56a5.35 5.35 0 0 0-5.396-5.307 5.353 5.353 0 0 0-5.306 5.4l.084 9.56a5.351 5.351 0 0 0 5.398 5.307"/></g><g><path fill="#fec08e" d="M255.478 275.115a5.353 5.353 0 0 0 5.304-5.331c0-.17.064-17.492-.314-60.656a5.351 5.351 0 1 0-10.702.093c.377 43.078.314 60.35.312 60.52a5.351 5.351 0 0 0 5.33 5.374h.07"/></g><g><path fill="#ff61cb" d="M223.967 167.508a4.451 4.451 0 0 0 2.945-1.145c.052-.047 2.739-2.451 8.302-6.7a4.461 4.461 0 0 0-5.412-7.091c-5.923 4.522-8.743 7.054-8.86 7.16a4.461 4.461 0 0 0 3.025 7.776"/></g><g><path fill="#ff61cb" d="M230.43 60.232a4.46 4.46 0 0 0 4.375-5.135l-1.46-9.553a4.461 4.461 0 0 0-5.082-3.736 4.463 4.463 0 0 0-3.734 5.084l1.46 9.553a4.46 4.46 0 0 0 4.441 3.787"/></g></g><g><g/><g><path fill="url(#og26n)" d="M243.134 108.026c.058 6.995.753 25.947 4.678 28.723.027 3.06.052 6.12.08 9.18-6.575 11.557-3.026 80.26-2.954 88.481.058 6.744 12.213 6.835 22.817 4.173.512-.13 1.525-.442 2.678-.82.829-.272 3.765-1.285 4.26-1.469.577-.211 1.039-.39 1.3-.51 4.308-1.935 9.353-4.301 9.334-6.58.56-45.67 5.388-70.807-7.252-87.618l-.079-8.922c4.642-6.445 3.027-27.91 2.106-32.996-1.318-7.281-9.64-11.894-18.056-11.894-9.46.001-19.038 5.831-18.912 20.252"/></g></g><g><path fill="#ffaedf" d="M277.99 132.658c.016 1.795-2.332 3.643-5.724 5.167-.966.436-5.334 1.914-6.49 2.204-8.35 2.097-17.923 2.026-17.97-3.287l.08 9.181c.047 5.313 9.62 5.383 17.971 3.287 1.155-.29 5.523-1.768 6.49-2.202 3.392-1.526 5.739-3.375 5.724-5.169l-.08-9.181"/></g><g><g/><g><path fill="url(#og26o)" d="M244.015 105.44c-2.85 32.28-3.358 32.793-16.332 45.915a6.78 6.78 0 0 0 .052 9.59 6.754 6.754 0 0 0 4.826 1.96 6.76 6.76 0 0 0 4.762-2.012c15.809-15.99 17.13-19.54 20.199-54.26a6.782 6.782 0 0 0-6.155-7.352 6.782 6.782 0 0 0-7.351 6.159"/></g></g><g><g><path fill="#ffcda7" d="M272.615 74.636l-1.74 1.564-3 2.695-13.996 1.302-9.073-6.042-1.1-2.733c.3 8.137 7.019 14.608 15.211 14.535 5.581-.048 10.426-3.125 12.999-7.654a14.997 14.997 0 0 0 1.84-5.538z"/></g><g><path fill="#3f07a8" d="M243.767 72.896c-1.136 3.78-1.277 6.946-1.207 9.053.099 3.053.162 4.971 1.444 6.727 2.18 2.983 5.18 1.796 6.731 4.208 1.985 3.087-2.198 6.175-1.1 11.094 1.103 4.942 5.944 4.573 8.364 10.06 2.53 5.737-1.891 9.019.643 13.427 2.55 4.436 10.01 6.61 14.843 4.392 4.565-2.094 3.43-6.398 7.96-8.603 5.972-2.906 11.243 3.05 16.384-.236 2.466-1.575 4.06-4.74 3.957-7.493-.157-4.153-4.227-4.66-5.442-9.84-1.129-4.827 1.588-6.057.282-10.099-1.548-4.792-5.685-4.043-8.498-9.493-2.315-4.489.018-5.838-2.637-10.932-2.4-4.606-6.25-6.998-7.288-7.606a19.12 19.12 0 0 0-5.325-2.125l-1.765 5.975-12.95 2.977z"/></g><g><path fill="#0099f7" d="M251.38 53.34h-.006a1.28 1.28 0 0 0-1.364.08l-11.886 8.147c-1.114.765-1.793 2.165-1.779 3.674l.037 4.224c.005.694.348 1.247.814 1.524.018.014.036.03.055.042h-.002l.004.002c.06.04.124.077.19.106l6.37 3.606 5.009-2.95-4.798-4.388 6.606-4.53c.799-.547 1.373-1.425 1.63-2.434l6.119-3.081z"/></g><g><path fill="#ffcda7" d="M246.007 74.21c-.015-.015-.03-.029-.048-.044l.048.045"/></g><g><path fill="#ffcda7" d="M249.6 76.654"/></g><g><path fill="#ffcda7" d="M252.023 77.609"/></g><g><path fill="#ffcda7" d="M251.237 77.344c-.1-.036-.199-.073-.295-.112.096.04.196.076.295.112"/></g><g><path fill="#ffcda7" d="M250.131 76.895"/></g><g><path fill="#ffcda7" d="M245.71 73.917l-.086-.087.086.087"/></g><g><path fill="#ffcda7" d="M247.057 75.101l-.104-.081.104.081"/></g><g><path fill="#ffcda7" d="M247.489 75.402"/></g><g><path fill="#ffcda7" d="M247.923 75.698"/></g><g><path fill="#ffcda7" d="M248.37 75.983l-.157-.095c.051.032.105.063.158.095"/></g><g><path fill="#ffcda7" d="M257.269 78.577"/></g><g><path fill="#ffcda7" d="M256.605 78.521c-.144-.012-.287-.028-.43-.043.143.015.286.03.43.043"/></g><g><path fill="#ffcda7" d="M252.599 77.79c-.125-.034-.247-.072-.37-.11.123.038.245.076.37.11"/></g><g><path fill="#ffcda7" d="M257.974 78.607"/></g><g><path fill="#ffcda7" d="M255.955 78.451"/></g><g><path fill="#ffcda7" d="M258.865 78.622"/></g><g><path fill="#ffcda7" d="M253.819 78.099"/></g><g><path fill="#ffcda7" d="M253.205 77.953l-.346-.091c.115.03.23.062.346.091"/></g><g><path fill="#ffcda7" d="M255.312 78.37"/></g><g><path fill="#ffcda7" d="M254.465 78.222"/></g><g><path fill="#ffcda7" d="M250.671 77.117c-.086-.036-.174-.071-.261-.109.087.038.175.073.261.11"/></g><g><path fill="#ffcda7" d="M245.062 73.211l-.054-.067c.02.022.036.045.054.067"/></g><g/><g><path fill="#ffcda7" d="M245.384 73.571l-.082-.091.082.091"/></g><g><path fill="#3f07a8" d="M256.859 78.541"/></g><g><path fill="#3f07a8" d="M247.345 75.308"/></g><g><path fill="#3f07a8" d="M255.414 78.38c-.035-.004-.071-.008-.106-.014.035.006.071.01.106.014"/></g><g><path fill="#3f07a8" d="M256.177 78.475c-.076-.008-.15-.015-.225-.025.075.01.15.017.225.025"/></g><g><path fill="#3f07a8" d="M245.295 73.481"/></g><g><path fill="#3f07a8" d="M249.892 76.776"/></g><g><path fill="#3f07a8" d="M246.961 75.013"/></g><g><path fill="#3f07a8" d="M245.966 74.17"/></g><g><path fill="#3f07a8" d="M257.516 78.59"/></g><g><path fill="#3f07a8" d="M250.407 77.002"/></g><g><path fill="#3f07a8" d="M258.197 78.611"/></g><g><path fill="#3f07a8" d="M249.39 76.535"/></g><g><path fill="#3f07a8" d="M245.625 73.833c-.083-.084-.161-.17-.24-.255.079.085.157.17.24.255"/></g><g><path fill="#3f07a8" d="M252.859 77.86"/></g><g><path fill="#3f07a8" d="M252.23 77.674c-.07-.022-.142-.042-.21-.064.068.022.14.042.21.064"/></g><g><path fill="#3f07a8" d="M245.013 73.15"/></g><g><path fill="#3f07a8" d="M250.935 77.23c-.093-.036-.184-.074-.273-.11.09.036.18.074.273.11"/></g><g><path fill="#3f07a8" d="M251.489 77.436c-.086-.029-.17-.061-.254-.092.086.03.168.063.254.092"/></g><g><path fill="#3f07a8" d="M253.454 78.009l-.26-.063.26.063"/></g><g><path fill="#3f07a8" d="M248.206 75.887"/></g><g><path fill="#3f07a8" d="M254.684 78.267l-.216-.041c.072.013.143.028.216.04"/></g><g><path fill="#3f07a8" d="M254.062 78.142"/></g><g><path fill="#3f07a8" d="M247.763 75.602"/></g><g><path fill="#0099f7" d="M243.653 70.914"/></g><g><path fill="#0099f7" d="M247.924 75.702a14.342 14.342 0 0 0 .287.18 3.617 3.617 0 0 1 0 0c-.096-.058-.193-.12-.287-.18"/></g><g><path fill="#0099f7" d="M249.472 76.588a9.388 9.388 0 0 0 .129.064c-.044-.02-.087-.042-.129-.064"/></g><g><path fill="#0099f7" d="M243.23 69.63c.013.053.023.106.035.158-.012-.052-.022-.105-.035-.158"/></g><g><path fill="#0099f7" d="M243.762 71.142a8.276 8.276 0 0 1 0 0"/></g><g><path fill="#0099f7" d="M246.96 75.021c-.333-.257-.65-.525-.946-.805-.015-.014-.03-.029-.048-.043-.086-.085-.173-.17-.258-.258-.028-.028-.058-.056-.084-.085.026.03.056.057.084.085.085.087.172.173.258.258l.048.043c.297.28.613.548.946.805l.104.082c.02.014.039.026.057.04-.018-.014-.038-.026-.057-.04l-.104-.082"/></g><g><path fill="#0099f7" d="M245.062 73.21l-.054-.067c.02.022.036.044.054.067.076.09.153.179.231.267l.04.046a13.713 13.713 0 0 1-.272-.314"/></g><g><path fill="#0099f7" d="M250.935 77.23c-.093-.034-.184-.072-.273-.109l-.262-.107c-.092-.041-.186-.08-.277-.12-.059-.027-.118-.054-.175-.082.057.028.116.055.175.081l.277.12c.087.037.174.072.262.108.09.037.18.075.273.11l.295.112c.03.01.064.022.096.035-.032-.013-.065-.024-.096-.035l-.295-.112"/></g><g><path fill="#0099f7" d="M252.853 77.856a16.82 16.82 0 0 1-.252-.068l-.368-.11-.212-.067c-.072-.022-.14-.047-.212-.071.072.024.14.049.212.071.07.023.142.044.212.066.123.037.244.074.368.11.084.025.168.047.252.07z"/></g><g><path fill="#0099f7" d="M253.886 77.252l1.828-1.076-4.799-4.386 6.606-4.53c.8-.548 1.374-1.426 1.63-2.434l6.119-3.083-7-4.022h-.004a1.286 1.286 0 0 0-1.365.08l-11.885 8.148c-.7.48-1.227 1.21-1.52 2.06.172.55.403 1.205.715 1.912 1.477 3.343 4.955 6.17 9.675 7.331"/></g><g><path fill="#0099f7" d="M243.23 69.626c.013.053.023.106.036.158a7.702 7.702 0 0 0 .382 1.126c.012.028.022.056.035.084l.067.147c.155.343.333.677.539 1.003v.002c.02.03.042.06.061.092.199.31.419.613.658.907l.054.069c.075.09.153.178.231.267l.041.047.04.044c.079.087.159.171.24.255l.001.002c.028.029.056.057.086.085a11.169 11.169 0 0 0 .305.301c.296.28.613.547.946.805.036.027.07.055.103.081l.058.04c.074.055.148.111.224.165.022.016.047.035.07.05l.072.052.279.19c.052.035.106.069.16.104.093.06.188.122.286.18.031.021.065.041.097.06.022.012.04.024.061.037a16.744 16.744 0 0 0 1.024.561l.086.044.129.064c.069.034.137.065.207.098l.073.034.064.03a21.21 21.21 0 0 0 .452.2l.262.109.273.109c.096.038.196.074.295.11.031.013.065.024.097.037l.157.057c.106.038.215.072.323.108l.211.073.213.064c.123.038.245.076.368.11.084.025.168.047.252.07h.001l1.032-.608c-4.72-1.16-8.199-3.987-9.675-7.332-.31-.706-.542-1.36-.714-1.911a4.82 4.82 0 0 0-.261 1.614z"/></g><g><path fill="#0099f7" d="M243.062 68.51"/></g><g><path fill="#0099f7" d="M258.093 78.604l.105.003c.112.003.224.001.334.003-.11-.002-.222 0-.334-.003l-.105-.003"/></g><g><path fill="#0099f7" d="M249.822 76.742l.073.034-.073-.034"/></g><g><path fill="#0099f7" d="M251.333 77.372c.052.02.103.04.156.057.106.038.217.073.324.11-.107-.037-.218-.072-.324-.11-.053-.018-.104-.037-.156-.057"/></g><g><path fill="#0099f7" d="M243.65 70.904c.013.028.024.057.035.085.023.05.046.097.067.147-.02-.05-.044-.098-.067-.147-.011-.028-.022-.057-.035-.085"/></g><g><path fill="#0099f7" d="M248.31 75.944c.023.011.041.024.062.036-.02-.012-.04-.025-.061-.036"/></g><g><path fill="#0099f7" d="M248.87 76.266a20.44 20.44 0 0 1 0 0"/></g><g><path fill="#0099f7" d="M247.121 75.146c.074.055.147.11.222.164l.072.05-.071-.05-.223-.164"/></g><g><path fill="#0099f7" d="M244.294 72.15c.02.03.042.06.062.092-.02-.032-.042-.061-.062-.092"/></g><g><path fill="#0099f7" d="M245.384 73.568a1.199 1.199 0 0 0 0 0c.079.087.157.171.24.255v.001a10.18 10.18 0 0 1-.24-.256"/></g><g><path fill="#0099f7" d="M243.888 66.014a4.98 4.98 0 0 1 .058-.192l-.005.013c-.018.05-.035.112-.053.179"/></g><g><path fill="#0099f7" d="M243.582 68.317v.001l.009-.27c-.01.13-.013.227-.009.269"/></g><g><path fill="#3f07a8" d="M273.088 66.045a14.984 14.984 0 0 0-.722-1.77 15.139 15.139 0 0 0-3.566-4.71 15.029 15.029 0 0 0-11.544-3.731c-1.804.18-3.513.679-5.072 1.437a15.186 15.186 0 0 0-3.67 2.519c-1.536 1.427-3.08 2.92-4.268 5.285-.347.689-.775 2.895-.778 2.985.035.327.564 1.445.69 1.746 1.85 4.412 6.532 7.488 12.964 7.953.57.04 1.149.063 1.735.057 4.434-.039 8.389-1.428 11.04-3.585 1.666-1.357 2.816-3.017 3.243-4.837.125-.533.188-1.08.184-1.638a6.995 6.995 0 0 0-.236-1.71"/></g><g><path fill="#0099f7" d="M260.744 56.927c-3.064-1.841-5.82-2.03-7.791-.846v-.003l-2.921 1.717 1.632-.077 1.065-.69c1.528-.04 3.276.468 5.139 1.588 5.98 3.593 10.904 12.137 11.155 19.253l2.876-1.694c-.253-7.115-5.178-15.657-11.155-19.248"/></g><g><path fill="#535fe9" d="M248.035 60.253c1.429-1.392 2.751-2.219 4.084-2.353 1.658-.167 3.612.082 5.753 1.37 5.025 3.02 9.253 10.023 10.203 16.233l.788.571c-.918-6.701-5.516-14.16-10.998-17.455-2.298-1.38-4.424-1.831-6.176-1.47-1.622.333-2.924 1.364-3.742 2.998z"/></g><g><path fill="#535fe9" d="M274.506 68.048a7.57 7.57 0 0 1-.622 2.762c-.044.101-.09.202-.137.303-.708 1.495-1.883 2.85-3.408 3.985-2.853 2.124-6.93 3.472-11.47 3.513-.114 0-.228-.003-.341-.003l-.335-.001-.106-.004-.11-.003c-.152-.004-.303-.01-.456-.018l-.249-.013-.42-.03a88.68 88.68 0 0 1-.25-.02c-.143-.013-.286-.028-.429-.044l-.225-.024a22.32 22.32 0 0 1-.535-.071c-.035-.006-.072-.008-.107-.014-.207-.03-.415-.066-.62-.102-.073-.013-.144-.028-.217-.04a20.505 20.505 0 0 1-.403-.08c-.083-.019-.167-.037-.25-.057-.12-.026-.24-.053-.36-.082a8.707 8.707 0 0 1-.258-.063l-.345-.091-.001-.002c-.083-.022-.168-.044-.252-.068-.123-.035-.245-.073-.368-.11-.07-.023-.143-.043-.213-.065-.072-.024-.14-.05-.212-.073-.107-.035-.217-.07-.323-.108-.053-.018-.105-.039-.157-.057-.032-.013-.066-.024-.096-.037-.1-.036-.2-.072-.296-.11a27.717 27.717 0 0 1-.273-.11c-.088-.036-.175-.07-.262-.109l-.277-.119-.175-.08-.064-.03-.073-.034c-.069-.032-.139-.064-.207-.098-.044-.02-.087-.043-.13-.064l-.083-.042c-.177-.09-.35-.18-.524-.275-.17-.093-.337-.19-.502-.288-.021-.013-.04-.025-.062-.036l-.097-.06c-.098-.06-.193-.121-.287-.181l-.16-.104a19.51 19.51 0 0 1-.278-.19l-.073-.052a6.505 6.505 0 0 1-.293-.214l-.057-.04c-.035-.027-.068-.055-.105-.082-.333-.258-.65-.525-.945-.805-.015-.014-.032-.03-.049-.043-.087-.084-.173-.17-.257-.257-.03-.028-.058-.057-.086-.085l-.001-.001c-.081-.086-.161-.17-.24-.257l-.04-.044-.04-.047a10.17 10.17 0 0 1-.232-.267l-.054-.069a9.996 9.996 0 0 1-.659-.907c-.02-.032-.042-.061-.061-.092v-.002a8.473 8.473 0 0 1-.54-1.003c-.02-.05-.044-.098-.066-.147a9.241 9.241 0 0 1-.234-.598c-.034-.101-.066-.203-.098-.304a7.703 7.703 0 0 1-.084-.308c-.014-.052-.024-.105-.037-.158l.033 3.556a8.09 8.09 0 0 0 .897 2.241c2.314 3.994 8.052 6.79 14.74 6.731 8.643-.075 15.619-4.891 15.642-10.777h.002l-.028-3.322z"/></g><g><path fill="#0099f7" d="M268.807 59.564a15.122 15.122 0 0 1 3.568 4.711 7.54 7.54 0 0 1 .72 1.77 6.874 6.874 0 0 1 .054 3.348c-.427 1.822-1.578 3.48-3.244 4.837-2.651 2.16-6.607 3.548-11.04 3.587a20.132 20.132 0 0 1-4.973-.564l-1.033.608c.116.03.23.061.346.09.085.023.172.044.257.065l.358.083.252.054c.133.028.268.055.403.08.073.014.143.028.216.04a18.447 18.447 0 0 0 1.26.188l.227.025a21.113 21.113 0 0 0 1.099.093l.248.014c.152.007.303.012.456.017l.11.002.105.005.335.001c.113.001.227.004.34.003 4.54-.04 8.615-1.389 11.467-3.513 1.524-1.135 2.697-2.489 3.405-3.986.05-.099.094-.201.138-.302.044-.106.088-.213.128-.32a7.449 7.449 0 0 0 .493-2.442c.004-.104.008-.207.007-.312-.028-3.306-2.242-6.243-5.702-8.182"/></g><g><path fill="#0099f7" d="M249.426 80.277c-.015-1.354-.96-3.01-2.108-3.699-.601-.36-1.137-.382-1.513-.13l-.91.532.43.228c-.04.17-.064.361-.061.574.015 1.354.959 3.01 2.107 3.699.278.166.542.259.783.288l-.322.465.982-.58c.384-.21.619-.687.612-1.377"/></g><g><path fill="#535fe9" d="M246.335 77.154c-1.15-.69-2.07-.15-2.055 1.204.016 1.355.959 3.01 2.108 3.698 1.149.69 2.07.15 2.054-1.204-.015-1.353-.96-3.01-2.107-3.698"/></g><g><path fill="#d7e4f3" d="M169.096 89.917l-9.104 5.367-.17-19.518 9.103-5.366z"/></g><g><path fill="#d7e4f3" d="M182.854 81.811l-9.105 5.367-.17-19.52 9.104-5.364z"/></g><g><path fill="#0099f7" d="M195.854 74.436l-9.105 5.366-.058-6.473 9.105-5.365z"/></g><g><path fill="#d7e4f3" d="M154.188 67.152l.275 31.322-9.106 5.365-.272-31.322z"/></g><g><path fill="#0099f7" d="M187.658 104.272l14.488-8.538-.128-14.54-14.487 8.537z"/></g><g><path fill="#0099f7" d="M169.087 115.01l14.488-8.538-.128-14.54-14.487 8.536z"/></g><g><path fill="#d7e4f3" d="M201.808 137.755l-55.866 32.921-.34-39.019 55.866-32.921z"/></g><g><path fill="#0087e1" d="M175.064 148.442c-2.178 1.282-4.094-2.467-5.696-11.143-2.122-11.475-4.29-11.187-4.902-10.824-.615.36-2.764 2.616-4.664 16.46-1.437 10.467-3.267 16.426-5.444 17.708s-4.093-2.467-5.697-11.143c-.043-.236.097-.572.314-.751.218-.178.43-.13.473.106 2.121 11.474 4.288 11.187 4.9 10.825.615-.361 2.765-2.617 4.664-16.46 1.437-10.47 3.269-16.426 5.445-17.709 2.178-1.282 4.094 2.466 5.696 11.143 2.122 11.474 4.29 11.186 4.901 10.825.616-.361 2.765-2.618 4.664-16.461.04-.286.248-.581.465-.66.218-.078.364.09.325.375-1.436 10.468-3.268 16.427-5.444 17.709"/></g><g><path fill="#0087e1" d="M195.765 136.241c-2.178 1.282-4.094-2.467-5.696-11.143-2.122-11.474-4.29-11.187-4.902-10.824-.615.36-2.764 2.616-4.663 16.46-.04.286-.247.58-.465.659-.22.08-.364-.088-.325-.374 1.436-10.47 3.268-16.426 5.444-17.709 2.178-1.282 4.094 2.467 5.696 11.143 2.122 11.474 4.29 11.186 4.903 10.825.614-.361 2.763-2.617 4.663-16.461 1.437-10.468 3.267-16.425 5.445-17.708 2.175-1.282 4.092 2.466 5.696 11.143.043.237-.097.573-.314.75-.218.18-.43.132-.473-.106-2.121-11.474-4.288-11.186-4.9-10.825-.615.363-2.765 2.618-4.664 16.461-1.437 10.468-3.269 16.427-5.445 17.709"/></g></g><g><g/><g><path fill="url(#og26p)" d="M48.75 141.601c-1.85 1.269-7.717 4.372-7.717 4.372l4.765 176.41c0 7.431 6.116 16.85 13.66 21.04l59.362 38.662s6.582-3.745 9.082-5.093c2.179-1.174 3.501-3.59 3.501-7.048V195.875c0-7.43-6.113-16.85-13.657-21.04L59.457 142.45c-2.435-1.354-4.722-1.995-6.7-1.995-1.548 0-2.91.392-4.007 1.145"/></g></g><g><path fill="#fff" d="M109.342 380.583l-58.289-32.384c-7.543-4.191-13.659-13.612-13.659-21.04v-174.07c0-7.43 6.116-10.054 13.66-5.864l58.288 32.383C116.886 183.8 123 193.22 123 200.65v174.07c0 7.428-6.115 10.053-13.66 5.863"/></g><g><g/><g><path fill="url(#og26q)" d="M41.033 316.556l78.323 43.512V209.574l-78.323-43.512z"/></g></g><g><g><path fill="#00bae7" d="M100.533 188.716c0-2.134-1.356-4.616-3.027-5.544-1.67-.93-3.027.047-3.027 2.18s1.356 4.615 3.027 5.543c1.671.93 3.027-.047 3.027-2.18"/></g><g><path fill="#00bae7" d="M67.759 170.508c0-1.502-.955-3.251-2.132-3.905-1.178-.654-2.132.034-2.132 1.536s.954 3.25 2.132 3.905c1.177.653 2.132-.034 2.132-1.536"/></g><g><path fill="#00bae7" d="M87.66 178.844l-14.925-8.29c-1.524-.848-2.76-.317-2.76 1.185s1.236 3.406 2.76 4.255l14.925 8.29c1.525.847 2.762.317 2.762-1.185 0-1.503-1.237-3.408-2.762-4.255"/></g><g><path fill="#00bae7" d="M84.3 349.606l-8.227-4.57c-3.114-1.73-5.637-.647-5.637 2.42 0 3.066 2.523 6.954 5.637 8.683l8.228 4.572c3.112 1.73 5.637.646 5.637-2.42s-2.525-6.956-5.637-8.685"/></g></g><g><g/><g><path fill="url(#og26r)" d="M37.01 601.213h127.533l-.108-225.634-65.322 34.3-62.209-34.769z"/></g></g><g><g/><g><path fill="url(#og26s)" d="M37.01 601.213h127.533l-.108-225.634-65.322 34.3-62.209-34.769z"/></g></g><g><g/><g><path fill="url(#og26t)" d="M99.114 437.24l-62.21-61.08.107 397.209h127.53l-.106-396.385z"/></g></g><g><g/><g><path fill="url(#og26u)" d="M89.64 341.88l-48.845 27.3a8.088 8.088 0 0 0-1.677 1.24v-1.116h-2.326v6.037h.021c-.2 2.786 1.126 5.664 3.982 7.259l46.88 26.201c7.43 4.152 16.584 4.152 24.012 0l48.848-27.299c2.76-1.542 4.088-4.28 3.993-6.979h.005v-6.336h-3.815v.004c-.061-.036-.12-.074-.183-.109l-46.881-26.202a24.609 24.609 0 0 0-12.007-3.114 24.614 24.614 0 0 0-12.007 3.114"/></g></g><g><g/><g><path fill="url(#og26v)" d="M89.64 335.426l-48.844 27.3a7.625 7.625 0 0 0 0 13.42l46.88 26.201c7.43 4.152 16.583 4.152 24.012 0l48.848-27.3a7.628 7.628 0 0 0 0-13.422l-46.882-26.2a24.609 24.609 0 0 0-12.006-3.113 24.614 24.614 0 0 0-12.008 3.114"/></g></g><g><g/><g><path fill="url(#og26w)" d="M148.806 482.207l-43.29 24.615a13.56 13.56 0 0 1-13.378 0l-42.102-23.941c-2.412-1.371-4.393-.25-4.399 2.492-.004 2.765 1.968 6.127 4.399 7.51l39.82 22.643a18.176 18.176 0 0 0 17.945 0l41.005-23.316c2.43-1.383 4.401-4.746 4.398-7.51-.004-1.948-1.004-3.078-2.449-3.078-.589 0-1.25.188-1.95.585"/></g></g><g><g/><g><path fill="url(#og26x)" d="M45.637 507.392c-.004 2.765 1.968 6.13 4.399 7.512l39.82 22.199a18.183 18.183 0 0 0 17.945 0l22.285-12.675c2.431-1.381 4.403-4.744 4.399-7.51-.004-2.739-1.987-3.86-4.399-2.491l-24.57 13.97a13.545 13.545 0 0 1-13.378 0l-42.102-23.496c-.699-.396-1.362-.585-1.951-.585-1.443 0-2.444 1.13-2.448 3.076"/></g></g><g><g><path fill="#3f07a8" d="M161.015 479.073l-14.28-3.34c-5.34-1.25-10.232-7.492-5.394-16.121 1.42-2.533 5.376-2.502 10.555-.11l17.64 15.689c-.346.556-.716 6.07-8.52 3.882"/></g><g><path fill="#75d2ff" d="M161.237 477.496l-14.28-3.34c-5.34-1.25-8.5-6.785-6.875-12.04 1.69-5.468 7.785-8.195 12.965-5.802 0 0 9.361 6.32 12.19 8.789 7.873 6.873 5.355 14.58-4 12.393"/></g><g><path fill="#3f07a8" d="M149.354 466.07a5.013 5.013 0 0 1-5.011-5.013v-15.33a5.011 5.011 0 1 1 10.023 0v15.33a5.012 5.012 0 0 1-5.012 5.014"/></g><g><path fill="#a89ef0" d="M148.845 404.734c-1.145 6.936-4.033 16.27-11.304 19.319 2.223 8.659 3.355 18.396 3.355 29.163 0 4.676 3.788 8.467 8.463 8.467a8.466 8.466 0 0 0 8.464-8.467c0-18.703-3.012-34.929-8.978-48.482"/></g><g><path fill="#3f07a8" d="M148.853 404.725c-2.747-6.243-6.12-11.921-10.116-17.01-2.082-2.65 2.324 3.995-.066 1.69-.332 2.997-6.589 2.104-15.194 6.574 7.625 7.8 10.876 15.604 14.073 28.064 7.27-3.048 10.159-12.383 11.303-19.318"/></g><g><path fill="#75d2ff" d="M103.467 313.15c-2.304-13.387-37.355-11.347-37.355 9.423 0 0 10.634 40.155 36.035 38.962 1.59-1.134 2.554-2.345 2.554-3.542 0-7.04.83-32.842-1.234-44.843"/></g></g><g><g/><g><path fill="url(#og26y)" d="M137.541 424.047c2.221 8.66 3.353 18.397 3.353 29.165a8.466 8.466 0 0 0 8.465 8.467 8.466 8.466 0 0 0 8.464-8.467c0-18.704-3.012-34.93-8.98-48.482a9.145 9.145 0 0 0-1.882-.22c-3.498 0-7.959 2.712-9.42 19.537"/></g></g><g><g/><g><path fill="url(#og26z)" d="M76.934 351.76c-1.22 6.257 2.381 21.233 21.298 27.59 9.091 3.053 20.166 12.3 26.41 18.688 8.604-4.47 12.485-9.373 12.814-12.372-10.776-12.628-22.819-18.668-33.834-22.37-8.22-2.759-9.67-7.22-9.924-8.668.059-.332.1-.67.12-1.014.284-4.667-3.266-8.681-7.932-8.965a8.41 8.41 0 0 0-.529-.017c-4.102 0-7.605 2.922-8.423 7.129"/></g></g><g><g/><g><path fill="url(#og26A)" d="M97.302 359.19c-1.292 4.492 1.302 9.183 5.793 10.477 6.212 1.786 12.88 3.055 19.328 4.278 5.452 1.036 10.6 2.016 14.73 3.18 2.493.701 4.06 1.318 5.025 1.785-.93 1.29-2.863 3.49-6.832 6.757-6.084 5.011-15.375 11.224-27.615 18.47-4.025 2.38-5.353 7.572-2.974 11.597a8.457 8.457 0 0 0 7.292 4.156c1.465 0 2.95-.382 4.302-1.181 33.617-19.9 45.361-31.605 43.333-43.194-1.605-9.177-11.316-12.523-14.505-13.622-5.554-1.913-12.376-3.21-19.596-4.581-6.071-1.155-12.35-2.348-17.808-3.919a8.442 8.442 0 0 0-2.343-.333 8.47 8.47 0 0 0-8.13 6.13"/></g></g><g><g><path fill="#3f07a8" d="M125.504 374.582l-11.656-9.57s.432-3.232-1.583-5.88c-6.376-8.38-10.43-7.058 5.247-3.688l7.715 1.793s.926 16.678 12.591 20.078z"/></g><g><path fill="#75d2ff" d="M134.403 362.886a6.26 6.26 0 0 1-2.742-.634c-1.567-.766-3.022-1.473-4.375-2.131-18.665-9.07-23.174-26.49-32.672-37.673-1.565-1.84-3.337-3.925-5.535-6.45a6.27 6.27 0 0 1 .609-8.842 6.262 6.262 0 0 1 8.837.608 683.22 683.22 0 0 1 5.637 6.569c8.067 9.497 11.765 26.332 28.6 34.515 1.358.66 2.817 1.37 4.39 2.137a6.269 6.269 0 0 1-2.75 11.901"/></g><g><path fill="#0099f7" d="M66.112 322.58c0 3.763 1.47 20.07 5.427 39.612 1.157 5.715 10.503 6 19.688 3.778 1.27-.306 10.815-3.858 11.77-4.519 4.317-2.994.797-12.97 1.824-13.7-.902-.153-16.112 7.86-25.705-18.242-3.177-8.642-13.004-6.929-13.004-6.929"/></g><g><path fill="#535fe9" d="M73.669 308.889s1.772-7.535 3.77-8.441l1.444 3.122 3.883 2.58 6.447 1.491 5.763-.16 2.467-1.446c.184 2.275.626 8.402-3.643 9.65-5.877 1.72-11.233-8.633-20.131-6.796"/></g><g><path fill="#ffb67c" d="M147.54 369.394c-.855 0-1.72-.226-2.503-.7l-13.126-7.923a4.857 4.857 0 0 1-1.649-6.665 4.853 4.853 0 0 1 6.663-1.65l13.126 7.926a4.855 4.855 0 0 1-2.512 9.012"/></g><g><path fill="#3f07a8" d="M104.449 421.526c-1.56 0-3.1-.728-4.078-2.093a5.017 5.017 0 0 1 1.154-6.995l5.28-3.783a5.009 5.009 0 0 1 6.992 1.155 5.014 5.014 0 0 1-1.155 6.996l-5.278 3.782a4.992 4.992 0 0 1-2.915.938"/></g><g><path fill="#0099f7" d="M93.366 308.165c4.554-.289 5.429-2.445 1.954-4.814-3.473-2.368-9.981-4.055-14.535-3.767-2.27.144-3.626.752-3.983 1.62-.361.87.288 2.005 2.03 3.193 3.474 2.37 9.982 4.056 14.534 3.768"/></g><g><path fill="#3f07a8" d="M92.045 307.262c3.594-.228 4.286-1.93 1.542-3.801-2.743-1.87-7.88-3.202-11.476-2.974-3.595.227-4.286 1.93-1.544 3.8 2.743 1.87 7.882 3.203 11.478 2.975"/></g><g><path fill="#fea16e" d="M81.156 304.684l4.809-14.564a4.838 4.838 0 0 1 6.108-3.078 4.84 4.84 0 0 1 3.077 6.113l-4.664 14.119c-3.4-.007-7.113-1.386-9.33-2.59"/></g><g><path fill="#ffcda7" d="M100.694 360.054a4.857 4.857 0 0 1-1.884-9.332l16.818-7.068a4.855 4.855 0 0 1 3.759 8.952l-16.815 7.069a4.856 4.856 0 0 1-1.878.379"/></g><g><path fill="#75d2ff" d="M94.821 362.646c-4.492 0-8.562-1.097-12.184-3.294-12.103-7.341-15.051-24.508-16.217-36.785a6.267 6.267 0 0 1 5.644-6.83 6.261 6.261 0 0 1 6.83 5.646c1.406 14.815 4.85 23.983 10.24 27.25 3.59 2.18 8.742 1.926 15.317-.747a6.265 6.265 0 0 1 8.163 3.446 6.269 6.269 0 0 1-3.445 8.166c-5.163 2.098-9.956 3.148-14.348 3.148"/></g><g><path fill="#75d2ff" d="M106.357 436.534l-9.6-7.55c-4.54-2.337-9.644-9.239-6.994-13.613 2.754-4.55 9.55-7.01 13.686-3.677l10.937 12.35c3.493 8.07-.114 16.57-8.03 12.49"/></g><g><path fill="#3f07a8" d="M106.136 436.966l-12.56-6.47c-4.618-2.38-6.122-13.803-6.122-13.803.652-.6 4.818-5.969 11.015-.53l11.042 8.902c7.06 5.69 4.684 16.055-3.376 11.901"/></g><g><path fill="#0099f7" d="M104.51 438.566l-12.56-6.47c-4.617-2.38-6.83-6.995-5.68-13.218.75-4.043 6.364-4.51 10.574-1.116l11.042 8.902c7.059 5.69 4.684 16.055-3.376 11.902"/></g><g><path fill="#ffcda7" d="M105.345 288.66l-1.965 1.736 1.143 2.366a16.802 16.802 0 0 0 2.118-6.188z"/></g><g><path fill="#ffcda7" d="M100.002 293.392l-15.691 1.32-10.108-6.857-1.206-3.073c.258 9.118 7.721 16.433 16.899 16.433 6.254 0 11.71-3.398 14.636-8.447l-1.144-2.366z"/></g><g><path fill="#ffcda7" d="M75.555 287.94l-.053-.05.053.05"/></g><g><path fill="#ffcda7" d="M79.56 290.7c-.08-.04-.157-.081-.237-.122l.238.122"/></g><g><path fill="#ffcda7" d="M82.244 291.793"/></g><g><path fill="#ffcda7" d="M81.374 291.49l-.33-.128.33.127"/></g><g><path fill="#ffcda7" d="M80.136 290.969c-.09-.041-.18-.084-.267-.125.088.04.177.084.267.125"/></g><g><path fill="#ffcda7" d="M75.206 287.596"/></g><g><path fill="#ffcda7" d="M76.724 288.933c-.04-.03-.077-.06-.116-.091.039.03.077.062.116.091"/></g><g><path fill="#ffcda7" d="M77.187 289.28l-.16-.116.16.116"/></g><g><path fill="#ffcda7" d="M77.68 289.616l-.177-.116c.06.038.118.077.177.116"/></g><g><path fill="#ffcda7" d="M78.171 289.931c-.059-.036-.119-.071-.178-.109l.178.11"/></g><g><path fill="#ffcda7" d="M88.12 292.924"/></g><g><path fill="#ffcda7" d="M87.374 292.87"/></g><g><path fill="#ffcda7" d="M82.897 292.007c-.138-.04-.274-.084-.411-.127.137.043.273.087.411.127"/></g><g><path fill="#ffcda7" d="M88.915 292.968"/></g><g><path fill="#ffcda7" d="M86.64 292.79"/></g><g><path fill="#ffcda7" d="M89.904 292.997"/></g><g><path fill="#ffcda7" d="M84.257 292.353c-.134-.03-.267-.063-.4-.095l.4.095"/></g><g><path fill="#ffcda7" d="M83.572 292.195"/></g><g><path fill="#ffcda7" d="M85.923 292.686"/></g><g><path fill="#ffcda7" d="M84.992 292.518"/></g><g><path fill="#ffcda7" d="M80.733 291.233"/></g><g><path fill="#ffcda7" d="M74.499 286.804"/></g><g/><g><path fill="#ffcda7" d="M74.851 287.21l-.09-.104.09.104"/></g><g><path fill="#535fe9" d="M102.792 289.174l.595 1.226 1.965-1.736 1.296-2.086c.095-.711.15-1.436.155-2.174-.786 1.803-2.176 3.429-4.01 4.77"/></g><g><path fill="#3f07a8" d="M105.972 279.042c.158.624.246 1.264.246 1.92 0 .624-.077 1.236-.221 1.832-.495 2.036-1.801 3.884-3.68 5.387l.477.987c1.833-1.34 3.223-2.965 4.01-4.77l.002-.106c0-1.834-.295-3.597-.834-5.25"/></g><g><path fill="#3f07a8" d="M87.65 292.9"/></g><g><path fill="#3f07a8" d="M77.032 289.172c-.105-.077-.21-.154-.312-.232.103.078.207.155.312.232"/></g><g><path fill="#3f07a8" d="M86.047 292.696c-.039-.005-.08-.011-.119-.018l.12.018"/></g><g><path fill="#3f07a8" d="M86.894 292.82l-.252-.03.252.03"/></g><g><path fill="#3f07a8" d="M74.765 287.1"/></g><g><path fill="#3f07a8" d="M79.873 290.854l-.312-.15.312.15"/></g><g><path fill="#3f07a8" d="M76.61 288.842"/></g><g><path fill="#3f07a8" d="M75.497 287.886"/></g><g><path fill="#3f07a8" d="M88.404 292.948c-.092-.005-.186-.011-.278-.018.092.007.186.013.278.018"/></g><g><path fill="#3f07a8" d="M80.444 291.107"/></g><g><path fill="#3f07a8" d="M89.151 292.982l-.242-.01.242.01"/></g><g><path fill="#3f07a8" d="M79.317 290.574"/></g><g><path fill="#3f07a8" d="M75.123 287.492"/></g><g><path fill="#3f07a8" d="M83.187 292.087c-.094-.026-.19-.053-.282-.081.093.028.188.055.282.081"/></g><g><path fill="#3f07a8" d="M82.486 291.872c-.08-.026-.16-.05-.238-.076.078.027.158.05.238.076"/></g><g><path fill="#3f07a8" d="M74.437 286.722"/></g><g><path fill="#3f07a8" d="M81.04 291.36"/></g><g><path fill="#3f07a8" d="M81.649 291.594c-.095-.033-.188-.07-.283-.106.095.036.188.073.283.106"/></g><g><path fill="#3f07a8" d="M83.853 292.262l-.29-.074.29.074"/></g><g><path fill="#3f07a8" d="M77.99 289.832c-.107-.067-.212-.137-.319-.206.107.069.212.139.32.206"/></g><g><path fill="#3f07a8" d="M85.233 292.558c-.081-.016-.161-.033-.242-.048l.242.048"/></g><g><path fill="#3f07a8" d="M84.544 292.42"/></g><g><path fill="#3f07a8" d="M77.506 289.506l-.31-.216.31.216"/></g><g><path fill="#3f07a8" d="M97.806 279.419c.074-.045.147-.087.22-.13l-2.885-5.965-5.818-3.476-1.396-.834-1.12-.668-4.16.668a16.961 16.961 0 0 0-4.137 2.786 16.925 16.925 0 0 0-4.383 6.385v.002a7.849 7.849 0 0 0-.514 2.78 8.042 8.042 0 0 0 .221 1.833c1.178 4.845 6.943 8.63 14.147 9.214 2.012-5.173 5.659-10.045 9.825-12.595"/></g><g><path fill="#3f07a8" d="M87.917 269.016l1.395.835 5.814 3.48 2.886 5.97c2.302-1.36 4.437-1.812 6.21-1.463a5.418 5.418 0 0 1 1.51.537 16.98 16.98 0 0 0-4.5-6.624 16.83 16.83 0 0 0-11.336-4.371c-2.596 0-5.056.587-7.256 1.636l4.157-.67z"/></g><g><path fill="#ffcda7" d="M105.972 279.046c-.077-.231-.157-.46-.242-.686a5.455 5.455 0 0 0-1.508-.535c-1.774-.349-3.908.102-6.21 1.462-.075.043-.149.085-.223.13-4.162 2.55-7.808 7.423-9.817 12.596.636.051 1.284.08 1.942.08 4.967 0 9.412-1.517 12.402-3.908 1.88-1.504 3.186-3.352 3.681-5.387a7.782 7.782 0 0 0 .221-1.833c0-.655-.088-1.295-.246-1.92"/></g><g><path fill="#535fe9" d="M107.291 282.941c-.12.497-.288.983-.495 1.456a16.901 16.901 0 0 1-.155 2.176l-1.296 2.084-1.965 1.736-.595-1.226c-3.216 2.35-7.794 3.823-12.878 3.823-.255 0-.505-.005-.757-.012l-.242-.009-.51-.024-.278-.018a24.608 24.608 0 0 1-.75-.063c-.161-.015-.32-.033-.48-.052l-.252-.03c-.2-.026-.4-.054-.6-.084l-.118-.017a14.662 14.662 0 0 1-.935-.17 23.324 23.324 0 0 1-1.132-.252l-.29-.074c-.129-.033-.257-.07-.385-.106-.095-.027-.189-.052-.282-.08l-.412-.127c-.078-.026-.158-.05-.238-.076-.201-.066-.4-.136-.597-.207l-.283-.107-.33-.127a11.54 11.54 0 0 1-.304-.126 20.702 20.702 0 0 1-.6-.26c-.091-.041-.18-.084-.269-.125-.104-.05-.209-.1-.312-.151l-.238-.122a19.424 19.424 0 0 1-1.142-.64l-.178-.109c-.107-.067-.212-.137-.319-.206l-.176-.117a17.393 17.393 0 0 1-.31-.216l-.16-.116a25.842 25.842 0 0 1-.312-.233 14.132 14.132 0 0 1-1.167-1.002c-.017-.017-.036-.032-.052-.05-.1-.096-.195-.192-.289-.289l-.095-.1c-.09-.093-.179-.19-.266-.286l-.09-.104c-.088-.1-.173-.2-.255-.302l-.062-.076a10.988 10.988 0 0 1-.795-1.128l-.001-.002a9.682 9.682 0 0 1-.666-1.295 8.809 8.809 0 0 1-.455-1.359 8.361 8.361 0 0 1-.24-1.981v3.962c0 6.644 7.89 12.03 17.624 12.03 9.733 0 17.624-5.386 17.624-12.03 0-.675-.083-1.337-.24-1.981"/></g><g><path fill="#0099f7" d="M102.31 288.178c-2.991 2.392-7.435 3.91-12.402 3.91-8.09 0-14.802-4.023-16.082-9.297a7.624 7.624 0 0 1-.18-1.082 7.444 7.444 0 0 1-.042-.75c0-.96.178-1.893.513-2.782v-.002a16.963 16.963 0 0 1 4.38-6.385c-3.8 2.208-6.214 5.495-6.214 9.169a8.37 8.37 0 0 0 .696 3.34c.186.442.407.875.666 1.295v.001c.238.387.504.763.796 1.127l.06.077a12.68 12.68 0 0 0 .348.406c.086.097.175.192.264.287.032.034.065.066.095.1.095.096.19.193.289.288l.053.05c.329.316.68.62 1.05.91l.117.093c.102.078.206.155.312.232l.158.117.31.215c.06.04.118.079.179.116a12.375 12.375 0 0 0 .495.315 18.29 18.29 0 0 0 1.96 1.04c.104.045.206.092.311.136.096.042.194.083.291.124.101.042.202.085.304.126l.33.126.282.107c.197.072.397.142.599.208.078.026.158.05.238.075l.411.128c.092.028.188.053.281.08.128.036.256.07.387.104.095.027.191.05.288.076.133.032.266.064.402.095a16.552 16.552 0 0 0 .73.157c.081.015.161.034.242.048.23.043.46.084.694.12l.12.018c.198.031.397.059.598.084l.25.031.48.052c.095.01.187.017.28.025.157.014.314.027.471.038l.28.017c.17.01.339.018.51.023l.241.01c.25.007.503.013.757.013 5.083 0 9.663-1.473 12.879-3.824z"/></g><g><path fill="#0099f7" d="M91.88 268.707c-3.336-2.093-6.35-2.331-8.52-1.023l.002-.003-3.214 1.894 1.788-.07 1.172-.763c1.673-.028 3.582.557 5.608 1.83 6.51 4.084 11.819 13.703 12.024 21.677l3.165-1.87c-.21-7.973-5.517-17.59-12.025-21.672"/></g><g><path fill="#535fe9" d="M77.95 272.316c1.576-1.546 3.033-2.46 4.49-2.597 1.817-.171 3.953.128 6.286 1.591 6.05 3.797 10.987 13.044 11.2 20.466l.821.485c-.205-7.975-5.513-17.595-12.024-21.679-2.502-1.57-4.824-2.095-6.744-1.708-1.779.357-3.213 1.5-4.126 3.321z"/></g><g><path fill="#0099f7" d="M115.191 283.392l-7.86-4.54c-.003-.002-.005-.003-.008-.003l-.04-.024v.004c-.54-.275-1.097-.242-1.29.16-2.424 5.103-4.74 7.438-13.392 9.012-2.298.418-2.03 2.408-2.03 4.1v4.73c0 .739.34 1.34.818 1.668l.003.002c.068.046.138.087.211.122l7.101 4.102 5.64-3.258-5.332-4.962 7.445-5.009c.9-.606 1.552-1.583 1.849-2.712z"/></g><g><path fill="#535fe9" d="M92.587 300.064c.03.019.062.031.091.048l-.144-.084c.018.011.034.027.053.036"/></g><g><path fill="#535fe9" d="M113.766 293.731l-13.394 9.012c-1.107.745-2.492-.186-2.492-1.677v-4.732c0-1.69.774-3.252 2.03-4.098l13.394-9.012c1.108-.745 2.492.186 2.492 1.677v4.732c0 1.69-.774 3.253-2.03 4.098"/></g><g><path fill="#3f07a8" d="M113.435 293.222l-12.518 8.423c-.927.623-2.085.64-2.085-1.403v-3.958c0-1.414.646-2.72 1.697-3.427l12.52-8.423c1.346-.99 2.084-.047 2.084 1.403v3.958c0 1.414-.647 2.72-1.698 3.427"/></g><g><path fill="#0099f7" d="M79.314 294.763c-.002-1.516-1.044-3.382-2.324-4.165-.67-.408-1.27-.438-1.692-.16l-1.027.587.481.26a2.64 2.64 0 0 0-.074.643c.003 1.517 1.044 3.381 2.324 4.164.31.19.604.297.874.332l-.366.518 1.105-.64c.433-.234.7-.766.7-1.539"/></g><g><path fill="#535fe9" d="M75.883 291.23c-1.28-.782-2.316-.187-2.312 1.33.003 1.517 1.044 3.382 2.324 4.164 1.281.783 2.317.188 2.312-1.328-.002-1.518-1.044-3.383-2.324-4.165"/></g><g><path fill="#ffb67c" d="M139.324 370.03a2.847 2.847 0 0 1-2.846-2.845v-5.705a2.847 2.847 0 0 1 5.692 0v5.705a2.845 2.845 0 0 1-2.846 2.846"/></g></g><g><g/><g><path fill="url(#og26B)" d="M251.713 532.904l-99.869-55.873v235.473h282.668V434.19z"/></g></g><g><g/><g><path fill="url(#og26C)" d="M151.844 477.03v394.24h282.67V434.19l-182.8 98.713z"/></g></g><g><g/><g><path fill="url(#og26D)" d="M161.696 461.252l95.394 63.918 167.483-95.05-98.181-60.624z"/></g></g><g><g/><g><path fill="url(#og26E)" d="M412.108 434.985l-159.61 90.06-100.653-57.003.001 8.994c-.064 2.66 1.246 5.345 3.94 6.864l88.558 49.945a21.81 21.81 0 0 0 21.371 0l164.854-92.973c2.633-1.482 3.945-4.08 3.945-6.678v-8.992z"/></g></g><g><g><path fill="#91a3ea" d="M418.39 423.914c0-1.826 2.343-3.304 5.231-3.304 2.89 0 5.233 1.478 5.233 3.304 0 1.826-2.343 3.304-5.233 3.304-2.888 0-5.231-1.478-5.231-3.304"/></g><g><path fill="#fff" d="M430.558 418.526c5.264 2.968 5.264 10.388 0 13.356l-164.85 92.971a21.812 21.812 0 0 1-21.373 0l-88.558-49.944c-5.262-2.968-5.262-10.386 0-13.354l164.853-92.973a21.816 21.816 0 0 1 21.372 0l88.556 49.944m-18.473 16.46a6.746 6.746 0 0 0 0-11.82l-80.002-45.12a18.189 18.189 0 0 0-17.828 0L180.409 453.56c-4.657 2.628-4.657 9.194 0 11.82L260.41 510.5a18.196 18.196 0 0 0 17.829 0l133.845-75.513"/></g></g><g><g/><g clip-path="url(#og26F)"><path fill="url(#og26G)" d="M151.776 513.3a11.604 11.604 0 0 1 0-.312zm278.786-36.756c2.63-1.494 3.945-4.11 3.945-6.724v4.72c0 2.615-1.315 5.227-3.945 6.72l-164.89 93.613a21.69 21.69 0 0 1-21.376 0l-88.577-50.288c-2.696-1.529-4.006-4.233-3.943-6.91V513.3c.052 2.562 1.362 5.101 3.943 6.566l88.577 50.288a21.69 21.69 0 0 0 21.376 0z"/></g></g><g><g/><g clip-path="url(#og26H)"><path fill="url(#og26I)" d="M151.776 547.191v.314zm113.896 57.165a21.683 21.683 0 0 1-21.376 0l-88.577-50.287c-2.581-1.463-3.891-4.002-3.943-6.564v4.373c-.063 2.678 1.247 5.382 3.943 6.912l88.577 50.287a21.683 21.683 0 0 0 21.376 0l164.89-93.611c2.63-1.494 3.945-4.108 3.945-6.723v-4.721c0 2.617-1.315 5.23-3.945 6.726z"/></g></g><g><g/><g clip-path="url(#og26J)"><path fill="url(#og26K)" d="M151.776 582.275v.314zm113.896 57.165a21.69 21.69 0 0 1-21.376 0l-88.577-50.285c-2.581-1.465-3.891-4.006-3.943-6.566v4.372c-.063 2.678 1.247 5.381 3.943 6.912l88.577 50.286a21.683 21.683 0 0 0 21.376 0l164.89-93.61c2.63-1.493 3.945-4.108 3.945-6.724v-4.719c0 2.615-1.315 5.23-3.945 6.724z"/></g></g><g><g/><g><path fill="url(#og26L)" d="M181.485 357.348l-.003-.003-4.083 2.316.545 2.612 2.24-.845v16.53c0 3.23 2.656 7.358 5.935 9.221l24.68 14.033c.296.169.589.313.873.434l-.71 2.556 4.364-2.482h-.003c.88-.52 1.411-1.536 1.411-2.978v-17.7c0-3.229-2.658-7.359-5.935-9.222l-24.68-14.032c-1.078-.615-2.088-.906-2.959-.906-.645 0-1.213.16-1.675.466"/></g></g><g><g/><g><path fill="url(#og26M)" d="M175.943 362.667v17.7c0 3.228 2.658 7.358 5.935 9.222l24.68 14.032c3.278 1.865 5.937.759 5.937-2.471v-17.699c0-3.23-2.66-7.358-5.937-9.222l-24.68-14.033c-1.079-.613-2.09-.906-2.964-.906-1.776 0-2.97 1.211-2.97 3.377"/></g></g><g><g><path fill="#0087e1" d="M202.409 387.517c-.493-.864-.49-1.818.004-2.12l6.316-3.84c.561-.337.561-1.418 0-2.395-.564-.976-1.474-1.522-2.036-1.183l-7.37 4.37c-.307.181-.715.15-1.142-.093l-8.061-4.585c-.433-.246-.848-.687-1.155-1.228l-7.361-12.946c-.556-.981-1.467-1.447-2.035-1.122-.57.324-.58 1.398-.025 2.378l6.362 11.265c.484.855.484 1.799 0 2.104l-6.362 4.029c-.556.35-.546 1.435.025 2.41.568.971 1.48 1.847 2.035 1.497l7.364-4.288c.305-.178.712-.144 1.135.097l8.095 4.603c.417.237.817.655 1.12 1.169l7.375 12.47c.562.976 1.472 1.313 2.036.974.561-.336.561-1.492 0-2.47z"/></g><g><path fill="#9601e9" d="M212.001 565.224l15.768-3.688c5.894-1.377 9.604-7.561 5.954-17.79l1.635 4.503c-1.866-6.034-8.596-9.044-14.315-6.402l-19.475 17.314c1.755 4.937 1.816 8.48 10.433 6.063"/></g><g><path fill="#ff61cb" d="M210.724 561.709l15.76-3.688c5.893-1.377 9.38-7.486 7.588-13.287-1.865-6.034-8.593-9.043-14.31-6.401 0 0-10.33 6.972-13.454 9.7-8.688 7.582-5.909 16.092 4.416 13.676"/></g><g><path fill="#ffb67c" d="M222.423 551.635a6.742 6.742 0 0 1-6.532-5.098l-5.385-21.368a6.744 6.744 0 0 1 4.89-8.187 6.74 6.74 0 0 1 8.184 4.89l5.384 21.37a6.744 6.744 0 0 1-6.541 8.393"/></g><g><path fill="#3f07a8" d="M218.937 531.234c-6.048 1.476-12.145-2.234-13.617-8.282l-1.811-7.431a8.14 8.14 0 0 1 5.978-9.837l6.087-1.485a8.14 8.14 0 0 1 9.832 5.982l1.811 7.431c1.474 6.048-2.233 12.148-8.28 13.622"/></g><g><path fill="#9601e9" d="M150.01 585.109l14.959-6.769c5.498-2.49 7.737-9.14 4.868-14.469-2.983-5.541-10.143-7.185-15.229-3.493l-13.337 9.678c-8.528 6.188-.858 19.397 8.74 15.053"/></g><g><path fill="#ff61cb" d="M151.69 583.43l14.958-6.77c5.499-2.489 7.738-9.142 4.869-14.469-2.984-5.542-10.144-7.184-15.23-3.493l-13.337 9.679c-8.528 6.188-.857 19.397 8.74 15.052"/></g><g><path fill="#ffb67c" d="M162.134 572.305a6.747 6.747 0 0 1-5.769-10.223l10.638-17.68a6.74 6.74 0 0 1 9.252-2.299 6.743 6.743 0 0 1 2.3 9.254l-10.638 17.682a6.74 6.74 0 0 1-5.783 3.266"/></g><g><path fill="#9013ba" d="M269.16 343.814c10.29-2.152 19.901 5.084 23.903 11.896 3.465 5.901 1.093 8.71 5.199 14.308 4.989 6.804 9.876 4.539 14.15 10.576 4.958 7-.193 12.052 4.744 20.711 4.081 7.16 8.982 6.128 11.161 12.228 2.411 6.75-.526 16.584-7.403 20.716-9.865 5.926-23.736-2.354-27.885-11.25-2.79-5.975.775-8.013-.905-17.214-1.975-10.81-18.055-7.886-29.27-11.679-6-2.027-.71-15.925-4.597-19.282-4.514-3.9-5.697-11.02-4.4-16.566 1.821-7.776 8.662-13.056 15.302-14.444"/></g><g><path fill="#ffcda7" d="M233.224 455.486a5.396 5.396 0 0 1-4.586-8.225c4.657-7.565 8.177-12.84 11.285-17.493 6.903-10.34 11.464-17.173 21.678-39.004a5.393 5.393 0 1 1 9.77 4.572c-10.563 22.574-15.56 30.06-22.48 40.422-3.053 4.578-6.517 9.765-11.07 17.16a5.385 5.385 0 0 1-4.597 2.568"/></g><g><path fill="#fff" d="M264.519 498.726c16.084-3.456 27.164-7.15 34.059-24.497 8.49-21.363 21.181-101.05-27.472-94.416-8.393 1.142-11.938 6.894-12.947 11.37-3.837 17.039-6.017 22.429-.63 32.003 11.229 19.963 4.153 21.985-17.631 26.812-25.135 5.57 0 54.02 24.62 48.728"/></g><g><path fill="#3f07a8" d="M165.849 557.397c-5.255-3.338-6.809-10.304-3.472-15.561l4.096-6.457a8.141 8.141 0 0 1 11.234-2.509l5.287 3.36a8.142 8.142 0 0 1 2.508 11.236l-4.098 6.457c-3.338 5.254-10.3 6.811-15.555 3.474"/></g><g><path fill="#434785" d="M206.932 515.944l-.018-.036.018.036"/></g><g><path fill="#434785" d="M206.574 515.121c-.042-.115-.087-.23-.122-.347.038.118.078.232.122.347"/></g><g><path fill="#434785" d="M207.362 516.692a8.356 8.356 0 0 0 1.5 1.751 9.189 9.189 0 0 1-1.5-1.751"/></g><g><path fill="#3f07a8" d="M240.274 456.89l-1.534-.073c-9.392-.46-22.254-1.085-30.357 8.852-7.551 9.263-8.217 24.693-2.096 48.565.046.182.1.361.157.537l14.349-12.622.01.048c-3.622-17.975-.87-24.02.639-25.87 2.723-3.343 9.715-3.001 16.478-2.67.534.024 1.063.051 1.588.073 4.65.213 8.589-3.386 8.8-8.037a8.427 8.427 0 0 0-8.035-8.803"/></g></g><g><g/><g><path fill="url(#og26N)" d="M221.666 506.13c-5.574 3.67-10.218 7.65-12.793 12.322a8.428 8.428 0 0 0 5.58 2.122 8.431 8.431 0 0 0 8.17-10.525 164.567 164.567 0 0 1-.966-3.955z"/></g></g><g><g><path fill="#434785" d="M207.315 516.615c-.057-.09-.11-.182-.163-.273.053.091.107.183.163.273"/></g><g><path fill="#c6dada" d="M207.371 516.703c-.018-.026-.033-.053-.051-.081.018.028.033.055.051.081"/></g><g><path fill="#c6dada" d="M208.86 518.456z"/></g><g><path fill="#c6dada" d="M220.81 502.202c.251 1.24.531 2.537.845 3.893"/></g><g><path fill="#c6dada" d="M206.452 514.774h.001"/></g><g><path fill="#c6dada" d="M206.92 515.914"/></g><g><path fill="#c6dada" d="M207.143 516.348"/></g><g><path fill="#434785" d="M206.452 514.768c.036.117.081.233.123.348.1.27.216.536.343.79.006.012.013.024.018.037.069.136.14.266.216.398.053.09.106.183.163.273l.052.08a9.198 9.198 0 0 0 1.502 1.752h.001c2.574-4.672 7.219-8.653 12.792-12.321l-.009-.037a144.114 144.114 0 0 1-.842-3.893l-.01-.049z"/></g><g><path fill="#3f07a8" d="M206.452 514.768c.036.117.081.233.123.348.1.27.216.536.343.79.006.012.013.024.018.037.069.136.14.266.216.398.053.09.106.183.163.273l.052.08a9.198 9.198 0 0 0 1.502 1.752h.001c2.574-4.672 7.219-8.653 12.792-12.321l-.009-.037a144.114 144.114 0 0 1-.842-3.893l-.01-.049z"/></g><g><path fill="#3f07a8" d="M262.238 493.08c-4.806 3.474-14.315-1.532-21.244-11.184-6.927-9.653-8.647-20.294-3.844-23.769 4.806-3.475 14.316 1.533 21.244 11.185 6.927 9.653 8.649 20.294 3.844 23.769"/></g><g><path fill="#75d2ff" d="M246.742 458.259l-.81-1.75c14.52-6.73 22.213-12.131 25.73-18.06 3.39-5.718-5.65-8.571-6.173-17.453-.284-4.816 5.163-12.166 8.233-20.364l1.927.052c-3.641 8.907-8.54 15.456-8.086 20.884.771 9.206 9.448 11.638 5.756 17.864-3.73 6.29-11.678 11.92-26.577 18.827"/></g><g><path fill="#ffcda7" d="M286.442 394.527c4.987-3.37 6.423-6.794 2.019-9.805-4.403-3.012-12.446-3.506-17.966-1.102-5.518 2.404-4.913 5.855-2.895 10.794 5.752 14.064 10.732 5.593 18.842.113"/></g><g><path fill="#ffb67c" d="M277.119 392.703a5.397 5.397 0 0 1-5.21-4.015l-4.763-18.017a5.395 5.395 0 0 1 3.835-6.594 5.392 5.392 0 0 1 6.593 3.836l4.764 18.015a5.395 5.395 0 0 1-5.22 6.775"/></g><g><path fill="#ffcda7" d="M276.852 378.037c8.38-2.99 12.76-12.232 9.783-20.646-2.98-8.413-12.187-12.809-20.569-9.82-8.38 2.99-12.76 12.235-9.782 20.646 2.98 8.414 12.187 12.81 20.568 9.82"/></g><g><path fill="#3f07a8" d="M256.278 478.178a8.427 8.427 0 0 0-10.466-5.702c-6.912 2.038-13.923 4.998-20.817 8.765.013.005 8.292 3.76 9.433 8.636.997 4.272 5.918 2.555 7.129 2.059l.243-.104c.017-.008 3.503-1.494 6.487-2.512 8.776-3.185a8.432 8.432 0 0 0 5.702-10.47"/></g></g><g><g/><g><path fill="url(#og26O)" d="M206.937 493.204c-14.452 11.354-27.291 25.959-38.157 43.406-2.461 3.95-1.254 9.149 2.696 11.611a8.418 8.418 0 0 0 11.606-2.696c20.417-32.777 43.888-47.316 58.479-53.586-1.211.495-6.133 2.213-7.13-2.06-1.141-4.876-9.42-8.63-9.432-8.635-6.166 3.367-12.238 7.38-18.062 11.96"/></g></g><g><g><path fill="#6202ec" d="M264.886 466.548l.006-1.628h-.317l-.135.382a2.183 2.183 0 0 0-.633-.55l-41.623-24.04a4.893 4.893 0 0 0-4.896 0l-29.197 16.863 45.028 26.007c1.42.82 3.17.82 4.592 0l26.096-15.073a2.14 2.14 0 0 0 1.075-1.718l.004-.002v-.066a1.824 1.824 0 0 0 0-.175"/></g><g><path fill="#75d2ff" d="M263.808 463.156l-41.623-24.04a4.9 4.9 0 0 0-4.895 0l-29.2 16.864 47.326 27.332 28.392-16.398c1.445-.835 1.445-2.922 0-3.758"/></g><g><path fill="#75d2ff" d="M277.84 428.49s17.616 24.373-9.95 24.893l-12.932 7.725s14.888 4.53 29.559 1.705c30.016-5.783 8.384-43.785 8.384-43.785s1.156 6.769-6.282 9.696c-4.199 1.654-8.78-.235-8.78-.235"/></g><g><path fill="#6202ec" d="M246.134 456.102l-7.022 4.055a2.537 2.537 0 0 1-2.541 0l-10.612-6.128a.922.922 0 0 1 0-1.596l7.022-4.056a2.537 2.537 0 0 1 2.542 0l10.61 6.128a.923.923 0 0 1 0 1.597"/></g><g><path fill="#56acac" d="M212.772 448.37l-2.382 1.374-3.266-1.884 2.382-1.378z"/></g><g><path fill="#56acac" d="M216.789 450.68l-2.382 1.374-3.267-1.884 2.382-1.378z"/></g><g><path fill="#56acac" d="M220.791 453.003l-2.382 1.375-3.266-1.884 2.382-1.378z"/></g><g><path fill="#535fe9" d="M224.808 455.313l-2.382 1.375-3.267-1.884 2.382-1.378z"/></g><g><path fill="#535fe9" d="M228.824 457.637l-2.382 1.375-3.266-1.886 2.382-1.376z"/></g><g><path fill="#535fe9" d="M232.827 459.947l-2.382 1.375-3.267-1.886 2.382-1.376z"/></g><g><path fill="#535fe9" d="M236.843 462.257l-2.382 1.375-3.266-1.886 2.382-1.376z"/></g><g><path fill="#535fe9" d="M244.897 466.915l-2.382 1.375-8.06-4.655 2.383-1.375z"/></g><g><path fill="#535fe9" d="M248.865 469.215l-2.382 1.375-3.267-1.886 2.382-1.376z"/></g><g><path fill="#535fe9" d="M252.881 471.525L250.5 472.9l-3.266-1.886 2.382-1.376z"/></g><g><path fill="#56acac" d="M206.152 452.008l-2.381 1.376-3.267-1.886 2.382-1.376z"/></g><g><path fill="#56acac" d="M210.169 454.318l-2.382 1.376-3.266-1.886 2.382-1.376z"/></g><g><path fill="#56acac" d="M214.172 456.642l-2.382 1.376-3.267-1.886 2.382-1.376z"/></g><g><path fill="#56acac" d="M218.188 458.952l-2.382 1.375-3.266-1.885 2.382-1.376z"/></g><g><path fill="#56acac" d="M222.19 461.277l-2.381 1.375-3.267-1.884 2.382-1.378z"/></g><g><path fill="#56acac" d="M226.207 463.587l-2.382 1.375-3.266-1.884 2.382-1.378z"/></g><g><path fill="#535fe9" d="M230.21 465.897l-2.382 1.375-3.267-1.884 2.382-1.378z"/></g><g><path fill="#535fe9" d="M234.226 468.221l-2.382 1.375-3.266-1.884 2.382-1.378z"/></g><g><path fill="#535fe9" d="M238.229 470.531l-2.382 1.375-3.267-1.884 2.382-1.378z"/></g><g><path fill="#535fe9" d="M242.245 472.855l-2.382 1.375-3.266-1.884 2.382-1.378z"/></g><g><path fill="#535fe9" d="M246.407 475.256l-2.382 1.376-3.426-1.978 2.382-1.376z"/></g><g><path fill="#56acac" d="M201.982 454.417l-2.382 1.375-3.266-1.886 2.382-1.376z"/></g><g><path fill="#56acac" d="M205.999 456.727l-2.382 1.375-3.267-1.886 2.382-1.376z"/></g><g><path fill="#56acac" d="M210.001 459.051l-2.382 1.375-3.266-1.886 2.382-1.376z"/></g><g><path fill="#56acac" d="M214.018 461.361l-2.382 1.375-3.267-1.886 2.382-1.376z"/></g><g><path fill="#56acac" d="M218.02 463.685l-2.382 1.375-3.266-1.886 2.382-1.376z"/></g><g><path fill="#56acac" d="M222.037 465.995l-2.382 1.375-3.267-1.886 2.382-1.376z"/></g><g><path fill="#56acac" d="M226.038 468.305l-2.382 1.375-3.265-1.886 2.38-1.376z"/></g><g><path fill="#535fe9" d="M230.068 470.63l-2.388 1.374-3.273-1.886 2.387-1.376z"/></g><g><path fill="#535fe9" d="M234.07 472.94l-2.387 1.374-3.273-1.886 2.386-1.376z"/></g><g><path fill="#535fe9" d="M238.087 475.262l-2.388 1.376-3.273-1.886 2.387-1.376z"/></g><g><path fill="#535fe9" d="M242.235 477.672l-2.382 1.381-3.424-1.986 2.382-1.381z"/></g><g><path fill="#56acac" d="M210.594 450.807l-2.381 1.38-4.322-2.505 2.38-1.38z"/></g><g><path fill="#56acac" d="M214.605 453.115l-2.382 1.375-3.266-1.886 2.382-1.376z"/></g><g><path fill="#56acac" d="M218.608 455.44l-2.382 1.374-3.266-1.886 2.381-1.376z"/></g><g><path fill="#56acac" d="M222.624 457.75l-2.382 1.374-3.266-1.886 2.382-1.376z"/></g><g><path fill="#535fe9" d="M226.627 460.073l-2.382 1.375-3.266-1.886 2.382-1.376z"/></g><g><path fill="#535fe9" d="M230.643 462.383l-2.381 1.375-3.267-1.886 2.382-1.376z"/></g><g><path fill="#535fe9" d="M234.66 464.693l-2.382 1.375-3.266-1.886 2.382-1.376z"/></g><g><path fill="#535fe9" d="M238.662 467.017l-2.381 1.375-3.267-1.886 2.382-1.376z"/></g><g><path fill="#535fe9" d="M242.679 469.327l-2.382 1.375-3.266-1.886 2.382-1.376z"/></g><g><path fill="#535fe9" d="M246.682 471.651l-2.382 1.375-3.267-1.886 2.382-1.376z"/></g><g><path fill="#535fe9" d="M249.68 473.372l-2.381 1.376-2.25-1.298 2.384-1.376z"/></g><g><path fill="#ffb67c" d="M290.916 404.934c-3.286 4.417-4.32 10.365-2.31 13.286 2.01 2.919 6.304 1.705 9.591-2.712 3.286-4.419 4.32-10.366 2.31-13.286-2.01-2.92-6.304-1.705-9.591 2.712"/></g><g><path fill="#ffcda7" d="M301.527 408.394a5.393 5.393 0 1 0-10.53 2.322c4.056 18.413 3.606 29.979-1.378 35.36-4.653 5.028-14.57 6.191-32.94 3.805-.058-.012-3.542-.716-5.676-1.752-2.152-1.045-3.023-2.169-5.06-3.755-1.173-.913-3.123.6-1.6 2.164a44.386 44.386 0 0 0 2.715 2.544s-1.1-.146-12.031-.778c-6.448-.374-8.142 9.707 1.92 10.23 1.707.089 15.667 1.684 15.667 1.684 7.848 1.11 14.258 1.653 19.653 1.653 2.276 0 4.37-.097 6.314-.288 8.43-.832 14.628-3.505 18.952-8.175 4.035-4.358 6.271-10.234 6.833-17.963.52-7.17-.408-16.018-2.839-27.051"/></g><g><path fill="#535fe9" d="M173.84 426.617l14.248 29.356 47.323 27.332-13.752-29.685a6.503 6.503 0 0 0-2.652-2.9l-43.068-24.875c-1.703-.984-2.186.591-2.1.772"/></g><g><path fill="#0099f7" d="M218.441 451.229l-43.535-25.284c-.596-.346-1.283.28-.994.905l14.145 30.652a.275.275 0 0 0 .11.122l45.148 26.075c.65.376 1.398-.308 1.082-.991l-13.21-28.47a6.794 6.794 0 0 0-2.746-3.01"/></g><g><path fill="#ffcda7" d="M256.022 363.123l1.909 1.686-1.113 2.3a16.327 16.327 0 0 1-2.056-6.013z"/></g><g><path fill="#ffcda7" d="M284.977 362.419l.052-.049-.052.049"/></g><g><path fill="#ffcda7" d="M281.086 365.106c.079-.038.154-.08.233-.118-.079.038-.154.08-.233.118"/></g><g><path fill="#ffcda7" d="M278.47 366.171"/></g><g><path fill="#ffcda7" d="M279.323 365.867c.106-.04.214-.081.32-.123-.106.042-.214.083-.32.123"/></g><g><path fill="#ffcda7" d="M280.527 365.376l.26-.122c-.087.04-.174.083-.26.122"/></g><g><path fill="#ffcda7" d="M285.313 362.087l.092-.095-.092.095"/></g><g><path fill="#ffcda7" d="M283.843 363.396l.114-.088-.114.088"/></g><g><path fill="#ffcda7" d="M283.396 363.728c.051-.036.102-.076.154-.112-.052.036-.103.076-.154.112"/></g><g><path fill="#ffcda7" d="M282.92 364.053l.172-.115"/></g><g><path fill="#ffcda7" d="M282.43 364.365"/></g><g><path fill="#ffcda7" d="M272.76 367.277c.152-.011.306-.022.457-.035-.151.013-.305.024-.457.035"/></g><g><path fill="#ffcda7" d="M273.487 367.222"/></g><g><path fill="#ffcda7" d="M277.84 366.373l.4-.125-.4.125"/></g><g><path fill="#ffcda7" d="M272.004 367.322c.165-.007.33-.014.495-.024-.165.01-.33.017-.495.024"/></g><g><path fill="#ffcda7" d="M274.201 367.129"/></g><g><path fill="#ffcda7" d="M271.024 367.337"/></g><g><path fill="#ffcda7" d="M276.524 366.718c.13-.029.26-.061.388-.092-.128.03-.258.063-.388.092"/></g><g><path fill="#ffcda7" d="M277.196 366.56c.126-.032.252-.068.376-.102-.124.034-.25.07-.376.102"/></g><g><path fill="#ffcda7" d="M274.9 367.038"/></g><g><path fill="#ffcda7" d="M275.81 366.87l.437-.09-.437.09"/></g><g><path fill="#ffcda7" d="M279.939 365.626"/></g><g><path fill="#ffcda7" d="M285.999 361.324c.02-.025.037-.049.058-.074l-.058.074"/></g><g><path fill="#ffcda7" d="M286.838 360.158v.001"/></g><g><path fill="#ffcda7" d="M285.663 361.715l.088-.101-.088.1"/></g><g><path fill="#535fe9" d="M258.504 363.619l-.576 1.191-1.91-1.687-1.26-2.027a16.7 16.7 0 0 1-.15-2.114c.764 1.754 2.115 3.333 3.896 4.637"/></g><g><path fill="#3f07a8" d="M255.419 353.788a7.553 7.553 0 0 0-.24 1.865c0 .607.076 1.201.216 1.78.48 1.98 1.75 3.775 3.577 5.237l-.465.959c-1.781-1.302-3.132-2.882-3.896-4.636-.001-.035-.003-.068-.003-.103 0-1.783.287-3.496.81-5.102"/></g><g><path fill="#3f07a8" d="M273.221 367.24"/></g><g><path fill="#3f07a8" d="M283.55 363.619c.102-.076.204-.15.302-.227-.098.077-.2.151-.302.227"/></g><g><path fill="#3f07a8" d="M274.789 367.049c.038-.006.077-.01.115-.017-.038.007-.077.011-.115.017"/></g><g><path fill="#3f07a8" d="M273.963 367.16c.083-.012.164-.02.245-.03-.081.01-.162.018-.245.03"/></g><g><path fill="#3f07a8" d="M285.747 361.613"/></g><g><path fill="#3f07a8" d="M280.793 365.246c.102-.048.204-.096.303-.146-.1.05-.201.098-.303.146"/></g><g><path fill="#3f07a8" d="M283.955 363.31"/></g><g><path fill="#3f07a8" d="M285.033 362.37"/></g><g><path fill="#3f07a8" d="M272.494 367.288l.27-.018-.27.018"/></g><g><path fill="#3f07a8" d="M280.233 365.5"/></g><g><path fill="#3f07a8" d="M271.766 367.322l.235-.01-.235.01"/></g><g><path fill="#3f07a8" d="M281.324 364.981"/></g><g><path fill="#3f07a8" d="M285.41 361.992"/></g><g><path fill="#3f07a8" d="M277.574 366.452c.09-.026.183-.051.273-.078-.09.027-.182.052-.273.078"/></g><g><path fill="#3f07a8" d="M278.246 366.25l.23-.072-.23.073"/></g><g><path fill="#3f07a8" d="M286.055 361.254"/></g><g><path fill="#3f07a8" d="M279.645 365.754l.297-.122c-.098.04-.198.083-.297.122"/></g><g><path fill="#3f07a8" d="M279.057 365.974c.093-.033.184-.069.275-.104-.091.035-.182.071-.275.104"/></g><g><path fill="#3f07a8" d="M276.916 366.629c.094-.025.189-.048.281-.073-.092.025-.187.048-.281.073"/></g><g><path fill="#3f07a8" d="M282.598 364.264c.105-.066.207-.133.31-.2-.103.067-.205.134-.31.2"/></g><g><path fill="#3f07a8" d="M275.572 366.924"/></g><g><path fill="#3f07a8" d="M276.244 366.786l.273-.062-.273.062"/></g><g><path fill="#3f07a8" d="M283.088 363.95l.302-.208-.302.209"/></g><g><path fill="#9013ba" d="M263.373 354.148c-.063-.055-.144-.084-.214-.126l2.805-5.796 5.65-3.378 1.355-.812 1.088-.65 4.04.65a16.52 16.52 0 0 1 4.02 2.707 16.48 16.48 0 0 1 4.257 6.206v.002c.324.864.498 1.768.498 2.702 0 .245-.015.488-.04.73-.034.355 4.348 1.902 4.264 2.248-1.144 4.708-4.013 18.202-11.012 18.77-9.723-4.124-.894-9.47-16.71-23.253"/></g><g><path fill="#9013ba" d="M272.97 344.036l-1.357.812-5.65 3.376-2.804 5.798c-2.236-1.323-4.312-1.761-6.036-1.423a5.277 5.277 0 0 0-1.465.521c.16-.43.337-.854.533-1.267a16.524 16.524 0 0 1 3.839-5.163 16.378 16.378 0 0 1 11.017-4.242c2.524 0 4.915.57 7.05 1.588l-4.04-.65z"/></g><g><path fill="#ffcda7" d="M255.421 353.784c.074-.225.153-.446.235-.668.454-.24.944-.415 1.466-.52 1.724-.34 3.8.1 6.036 1.422.071.042.144.083.215.126 4.045 2.48 7.588 7.214 9.543 12.242-.62.05-1.25.078-1.889.078-4.827 0-9.147-1.474-12.052-3.798-1.828-1.462-3.097-3.257-3.577-5.236a7.564 7.564 0 0 1-.216-1.781c0-.637.085-1.259.24-1.865"/></g><g><path fill="#535fe9" d="M254.127 357.575c.117.483.28.955.483 1.415.004.716.057 1.421.15 2.114l1.26 2.028 1.91 1.685.576-1.191c3.125 2.285 7.575 3.715 12.517 3.715.246 0 .491-.004.736-.01.077-.004.155-.008.235-.01.165-.008.33-.015.494-.024.091-.006.18-.01.27-.017.154-.011.307-.023.46-.037l.27-.023.467-.05c.082-.012.163-.02.245-.032.194-.025.389-.051.582-.082a25.054 25.054 0 0 0 .79-.133c.079-.014.156-.031.234-.046l.438-.091.273-.062.388-.092c.095-.026.189-.048.283-.073.124-.032.25-.069.375-.102.092-.027.183-.052.272-.079.135-.04.268-.082.402-.124l.231-.073c.195-.065.39-.132.58-.202.093-.033.183-.068.275-.103l.32-.124.296-.121.283-.12c.102-.044.201-.09.3-.135.089-.04.174-.08.26-.122.103-.048.204-.095.304-.146.077-.037.154-.08.233-.117.382-.199.753-.405 1.11-.623.057-.035.116-.07.172-.107.105-.065.207-.131.309-.198l.172-.115c.102-.069.203-.14.302-.21l.156-.112c.102-.074.203-.15.3-.227.04-.028.076-.059.114-.088a13.67 13.67 0 0 0 1.022-.885l.051-.049c.096-.092.19-.186.28-.281l.094-.096c.087-.092.174-.186.256-.28l.09-.1c.084-.098.168-.195.247-.293l.06-.074c.285-.356.542-.721.773-1.096v-.002c.25-.407.466-.829.648-1.258a8.18 8.18 0 0 0 .676-3.247v3.85c0 6.457-7.67 11.693-17.128 11.693-9.46 0-17.128-5.236-17.128-11.693 0-.655.08-1.3.232-1.925"/></g><g><path fill="#0099f7" d="M258.977 362.658c2.906 2.324 7.226 3.799 12.053 3.799 7.86 0 14.385-3.91 15.63-9.033a7.41 7.41 0 0 0 .174-1.053c.025-.24.04-.484.04-.73 0-.933-.173-1.838-.499-2.701v-.002a16.464 16.464 0 0 0-4.257-6.206c3.696 2.145 6.04 5.34 6.04 8.91a8.18 8.18 0 0 1-.676 3.248 9.46 9.46 0 0 1-.648 1.257v.001a10.797 10.797 0 0 1-1.08 1.463l-.09.101c-.082.095-.17.188-.256.28l-.094.097c-.09.093-.184.189-.28.28l-.051.049c-.32.306-.66.602-1.02.884l-.115.089c-.098.077-.2.152-.301.228-.052.036-.104.074-.156.112-.099.068-.2.14-.302.208l-.172.115c-.102.067-.204.135-.31.2-.055.035-.114.07-.171.105-.357.219-.728.426-1.11.623-.079.038-.156.08-.233.118-.1.05-.201.098-.303.147l-.26.122a19.373 19.373 0 0 1-.584.253c-.098.04-.196.083-.297.122-.105.042-.213.083-.319.123-.09.035-.182.072-.274.104-.192.07-.386.137-.581.203-.077.024-.155.047-.23.073l-.403.123-.272.078c-.125.034-.251.07-.376.102-.093.026-.187.048-.282.073-.128.031-.258.063-.388.093-.09.02-.182.043-.273.061a22.048 22.048 0 0 1-.673.137c-.222.042-.448.083-.674.118-.038.007-.077.011-.115.017-.193.03-.388.057-.582.081l-.245.03a24.96 24.96 0 0 1-.738.076c-.152.013-.305.024-.457.035a17.67 17.67 0 0 1-.766.041l-.235.01c-.245.007-.49.011-.736.011-4.942 0-9.392-1.43-12.517-3.714z"/></g><g><path fill="#0099f7" d="M269.107 343.738c3.242-2.035 6.172-2.266 8.28-.996v-.003l3.12 1.841-1.735-.067-1.14-.742c-1.626-.028-3.481.542-5.45 1.778-6.326 3.97-11.486 13.318-11.686 21.069l-3.075-1.819c.203-7.747 5.362-17.094 11.686-21.061"/></g><g><path fill="#535fe9" d="M282.657 347.242c-1.533-1.502-2.946-2.391-4.365-2.524-1.765-.165-3.84.126-6.108 1.548-5.88 3.688-10.676 12.674-10.886 19.889l-.798.471c.202-7.75 5.36-17.1 11.687-21.068 2.432-1.526 4.687-2.037 6.553-1.662 1.73.349 3.123 1.457 4.01 3.23z"/></g><g><path fill="#0099f7" d="M246.463 358.004l7.64-4.412.007-.002.04-.024v.004c.524-.267 1.066-.235 1.252.155 2.356 4.96 4.608 7.229 13.016 8.759 2.233.406 1.974 2.34 1.974 3.983v4.597c0 .719-.332 1.302-.797 1.62v.002l-.002.001a1.363 1.363 0 0 1-.205.12l-6.902 3.985-5.482-3.166 5.182-4.821-7.233-4.868c-.878-.59-1.51-1.539-1.799-2.636z"/></g><g><path fill="#535fe9" d="M268.427 374.207c-.03.017-.06.03-.09.045l.142-.08c-.019.01-.034.024-.052.035"/></g><g><path fill="#535fe9" d="M247.833 368.048l13.017 8.758c1.076.722 2.422-.182 2.422-1.631v-4.598c0-1.643-.752-3.16-1.973-3.983l-13.016-8.757c-1.077-.725-2.422.181-2.422 1.63v4.598c0 1.643.752 3.16 1.972 3.983"/></g><g><path fill="#3f07a8" d="M248.155 367.556l12.166 8.184c.901.607 2.028.623 2.028-1.363v-3.846c0-1.373-.631-2.645-1.652-3.33l-12.165-8.186c-1.309-.962-2.027-.045-2.027 1.363v3.846c0 1.376.63 2.645 1.65 3.332"/></g><g><path fill="#0099f7" d="M281.324 369.06c.005-1.474 1.016-3.287 2.26-4.047.65-.398 1.235-.426 1.645-.156l.996.57-.466.254c.045.186.073.392.073.624-.004 1.474-1.016 3.286-2.26 4.047-.3.184-.586.287-.848.321l.354.504-1.073-.622c-.42-.228-.682-.744-.68-1.495"/></g><g><path fill="#535fe9" d="M282.388 369.665c-.003 1.474 1.003 2.052 2.248 1.292 1.244-.762 2.256-2.573 2.26-4.047.003-1.475-1.004-2.054-2.25-1.293-1.242.76-2.254 2.574-2.258 4.048"/></g></g><g><g/><g><path fill="url(#og26P)" d="M530.578 538.767c-6.14 3.49-11.117 11.983-11.117 18.965 0 6.981 4.978 9.81 11.117 6.32 6.14-3.491 11.118-11.98 11.118-18.964 0-4.953-2.505-7.816-6.152-7.816-1.495 0-3.181.48-4.966 1.495"/></g></g><g><g/><g><path fill="url(#og26Q)" d="M488.226 564.228c-5.975 3.577-10.82 12.275-10.82 19.429 0 7.154 4.845 10.053 10.82 6.475 5.975-3.576 10.819-12.274 10.819-19.428 0-5.074-2.438-8.007-5.987-8.008-1.454 0-3.096.493-4.832 1.532"/></g></g><g><g/><g><path fill="url(#og26R)" d="M509.618 540.045c-9.891 5.922-17.91 20.317-17.91 32.16 0 11.84 8.019 16.637 17.91 10.718 9.89-5.919 17.907-20.317 17.907-32.158 0-8.398-4.035-13.255-9.91-13.255-2.407 0-5.122.815-7.997 2.535"/></g></g><g><g/><g><path fill="url(#og26S)" d="M495.861 539.46c-7.603 4.55-13.767 15.62-13.767 24.721 0 9.102 6.164 12.792 13.767 8.24 7.604-4.55 13.768-15.619 13.768-24.72 0-6.457-3.102-10.19-7.619-10.191-1.85 0-3.94.627-6.149 1.95"/></g></g><g><g/><g><path fill="url(#og26T)" d="M522.362 534.104c-6.138 3.49-11.116 11.982-11.116 18.964 0 6.982 4.978 9.813 11.116 6.323 6.14-3.492 11.117-11.983 11.117-18.965 0-.18-.004-.357-.012-.532l5.055-1.835-8.124-4.662-.019.038c-.878-.542-1.911-.825-3.057-.825-1.494 0-3.177.48-4.96 1.494"/></g></g><g><g/><g><path fill="url(#og26U)" d="M480.025 559.567c-5.978 3.576-10.82 12.275-10.82 19.43 0 3.732 1.321 6.302 3.432 7.404v.003l8.164 4.645-2.797-4.596c.653-.245 1.33-.567 2.02-.98 5.975-3.579 10.82-12.277 10.82-19.43 0-5.075-2.438-8.008-5.988-8.009-1.454 0-3.095.493-4.831 1.533"/></g></g><g><g/><g><path fill="url(#og26V)" d="M501.417 535.385c-9.89 5.919-17.91 20.317-17.91 32.158 0 11.838 8.02 16.637 17.91 10.718 9.89-5.92 17.908-20.318 17.908-32.158 0-2.65-.402-4.946-1.136-6.851l3.794-.672-7.859-4.51-.04.016c-1.358-.814-2.932-1.238-4.667-1.238-2.408 0-5.125.816-8 2.537"/></g></g><g><g/><g><path fill="url(#og26W)" d="M487.646 534.797c-7.602 4.55-13.767 15.618-13.767 24.722 0 1.9.27 3.565.766 4.968l8.205 4.667.315.39c1.407-.261 2.912-.846 4.481-1.786 7.445-4.457 13.508-15.16 13.756-24.15l3.865-5.324-7.782-4.467-.023.03c-1.06-.657-2.3-.999-3.668-.999-1.85-.001-3.938.626-6.148 1.949"/></g></g><g><g/><g><path fill="url(#og26X)" d="M530.568 538.767c-1.696.965-3.302 2.312-4.74 3.902-2.864-5.564-9.045-6.902-16.208-2.614-.52.31-1.03.646-1.539 1.001-2.292-3.92-6.909-4.772-12.23-1.586-7.603 4.55-13.766 15.62-13.766 24.721 0 1.901.27 3.567.764 4.97-3.251 4.18-5.443 9.688-5.443 14.497 0 7.154 4.845 10.054 10.82 6.475 2.668-1.596 5.11-4.218 7-7.267 3.262 3.314 8.495 3.598 14.393.067 5.97-3.573 11.255-10.235 14.51-17.559 1.817.44 4.038.044 6.44-1.321 6.139-3.492 11.117-11.982 11.117-18.965 0-4.953-2.505-7.816-6.152-7.816-1.495 0-3.18.48-4.966 1.495"/></g></g><g><g/><g><path fill="url(#og26Y)" d="M0 418.082c0 6.119 4.364 13.56 9.743 16.62 5.383 3.06 9.745.58 9.745-5.54S15.126 415.6 9.743 412.54c-1.563-.889-3.04-1.31-4.35-1.31-3.197 0-5.393 2.51-5.393 6.852"/></g></g><g><g/><g><path fill="url(#og26Z)" d="M37.38 440.538c0 6.269 4.246 13.893 9.483 17.028 5.237 3.134 9.483.593 9.483-5.676 0-6.27-4.246-13.893-9.483-17.028-1.522-.911-2.961-1.344-4.235-1.344-3.112 0-5.248 2.573-5.248 7.02"/></g></g><g><g/><g><path fill="url(#og26aa)" d="M12.413 423.059c0 10.376 7.027 22.997 15.696 28.184 8.668 5.189 15.696.983 15.696-9.394 0-10.38-7.028-22.997-15.696-28.186-2.52-1.509-4.9-2.223-7.01-2.223-5.15.001-8.686 4.257-8.686 11.619"/></g></g><g><g/><g><path fill="url(#og26ab)" d="M28.102 420.372c0 7.977 5.403 17.68 12.067 21.668 6.663 3.988 12.065.756 12.065-7.223 0-7.978-5.402-17.679-12.065-21.669-1.938-1.16-3.767-1.708-5.389-1.708-3.96.001-6.678 3.273-6.678 8.932"/></g></g><g><g/><g><path fill="url(#og26ac)" d="M9.907 407.863l-.015-.032-7.121 4.085 4.43 1.61c-.005.154-.01.308-.01.465 0 6.12 4.363 13.563 9.743 16.622 5.382 3.06 9.746.58 9.746-5.54s-4.364-13.562-9.746-16.622c-1.562-.889-3.039-1.309-4.347-1.309-1.003 0-1.909.248-2.68.721"/></g></g><g><g/><g><path fill="url(#og26ad)" d="M44.56 436.434c0 6.27 4.246 13.895 9.482 17.03.606.362 1.198.645 1.772.858l-2.452 4.03 7.157-4.07-.001-.005c1.85-.964 3.007-3.218 3.007-6.489 0-6.27-4.246-13.895-9.483-17.028-1.522-.911-2.96-1.344-4.236-1.344-3.11 0-5.246 2.572-5.246 7.018"/></g></g><g><g/><g><path fill="url(#og26ae)" d="M24.191 408.437l-.034-.014-6.887 3.95 3.325.593c-.644 1.667-.997 3.682-.997 6.003 0 10.378 7.027 22.997 15.697 28.186 8.667 5.19 15.695.983 15.695-9.395 0-10.377-7.028-22.998-15.695-28.185-2.52-1.509-4.901-2.223-7.01-2.223-1.521 0-2.903.372-4.093 1.085"/></g></g><g><g/><g><path fill="url(#og26af)" d="M38.763 408.227l-.02-.027-6.82 3.916 3.387 4.666c.219 7.88 5.531 17.261 12.056 21.167 1.375.823 2.696 1.337 3.93 1.568l.274-.343 7.194-4.09c.433-1.233.67-2.69.67-4.358 0-7.977-5.404-17.677-12.068-21.666-1.936-1.16-3.765-1.708-5.387-1.708-1.2 0-2.285.3-3.216.875"/></g></g><g><g/><g><path fill="url(#og26ag)" d="M0 418.082c0 6.119 4.364 13.56 9.743 16.62 2.105 1.197 4.053 1.545 5.646 1.16 2.852 6.417 7.484 12.257 12.717 15.388 5.17 3.094 9.756 2.848 12.615-.057 1.655 2.671 3.795 4.969 6.135 6.37 5.237 3.135 9.483.594 9.483-5.676 0-4.216-1.92-9.042-4.77-12.706.433-1.23.67-2.69.67-4.357 0-7.978-5.402-17.679-12.065-21.669-4.666-2.792-8.712-2.043-10.72 1.392-.444-.311-.893-.605-1.348-.877-6.28-3.759-11.697-2.586-14.206 2.29-1.261-1.394-2.67-2.575-4.157-3.42-1.563-.889-3.04-1.31-4.35-1.31-3.197 0-5.393 2.51-5.393 6.852"/></g></g></g></g></g></svg>