<?xml version="1.0" encoding="utf-8"?>
<svg xmlns="http://www.w3.org/2000/svg" width="36" height="26" viewBox="0 0 36 26"><g><g><g/><g><path fill="#ffaf00" d="M27.477 16.002h-2.6V9.04h4.192v2.674h-.67a.925.925 0 0 0-.922.921zm-8.1-6.963h4.189v6.964h-4.189zm-5.5 0h4.19v6.964h-4.19zm-5.5-5.745h20.692v4.378H8.376zm20.679 9.997h4.084v3.388h-4.084zm0 6.575h4.084v1.385h-4.084zm0-2.287h4.084v1.385h-4.084zm-22.06-1.681h3.203v5.127H6.996zm-4.105 0h3.203v5.127H2.89zm0-4.426H10.2v3.524H2.891z"/></g><g><path fill="#242d3c" d="M22.242 22.378h-1.128v1.691h-4.786v-1.69h-1.127v1.69h-1.329v1.128h9.699v-1.128h-1.33z"/></g><g><path fill="#242d3c" d="M29.806 23.393h2.585v-1.128h-2.585z"/></g><g><path fill="#242d3c" d="M33.797 11.149c.82 0 1.486.666 1.486 1.485v11.079c0 .819-.667 1.485-1.486 1.485H28.4c-.82 0-1.487-.666-1.487-1.485v-2.215H12.567v1.748a1.956 1.956 0 0 1-1.954 1.952H2.478a1.955 1.955 0 0 1-1.955-1.952V11.058c0-1.078.877-1.955 1.955-1.955h3.304V2.13A1.433 1.433 0 0 1 7.22.692h23.005c.385 0 .746.15 1.016.422.272.272.422.633.422 1.015v9.02zm-22.357-.091a.827.827 0 0 0-.827-.827H2.478a.828.828 0 0 0-.828.827v12.188c0 .454.371.824.828.824h8.135c.456 0 .827-.37.827-.824zm-.827-1.955c1.077 0 1.954.877 1.954 1.955v6.402H26.91v-4.826c0-.819.667-1.485 1.486-1.485h2.136v-9.02a.31.31 0 0 0-.31-.31H7.22a.306.306 0 0 0-.31.31v6.974zm1.954 11.268h14.346v-1.783H12.567zm21.588-7.737a.358.358 0 0 0-.358-.357H28.4a.363.363 0 0 0-.36.357v11.079c0 .194.165.357.36.357h5.397c.198 0 .358-.16.358-.357z"/></g><g><path fill="#242d3c" d="M4.782 23.393h3.525v-1.128H4.782z"/></g></g></g></svg>