<?xml version="1.0" encoding="utf-8"?>
<svg xmlns="http://www.w3.org/2000/svg" width="30" height="30" viewBox="0 0 30 30"><g><g><g><path fill="#242d3c" d="M-.015 15.581h1.637v-1.13H-.015z"/></g><g><path fill="#242d3c" d="M.644 19.452L.35 18.36l1.58-.423.293 1.091z"/></g><g><path fill="#242d3c" d="M2.28 23.02l-.565-.979 1.418-.818.565.978z"/></g><g><path fill="#242d3c" d="M4.786 26.042l-.799-.8 1.157-1.156.8.798z"/></g><g><path fill="#242d3c" d="M7.989 28.315l-.98-.565.82-1.417.978.565z"/></g><g><path fill="#242d3c" d="M11.67 29.678l-1.09-.292.423-1.581 1.091.292z"/></g><g><path fill="#242d3c" d="M14.451 28.408v1.636h1.13v-1.636z"/></g><g><path fill="#242d3c" d="M18.36 29.678l-.423-1.58 1.091-.293.424 1.58z"/></g><g><path fill="#242d3c" d="M22.041 28.313l-.818-1.417.978-.566.819 1.418z"/></g><g><path fill="#242d3c" d="M25.246 26.041l-1.158-1.157.8-.798 1.158 1.156z"/></g><g><path fill="#242d3c" d="M27.75 23.02l-1.417-.819.565-.978 1.417.818z"/></g><g><path fill="#242d3c" d="M29.388 19.452l-1.58-.424.292-1.091 1.58.423z"/></g><g><path fill="#242d3c" d="M28.408 15.581h1.636v-1.13h-1.636z"/></g><g><path fill="#242d3c" d="M28.1 12.094l-.293-1.092 1.58-.423.294 1.092z"/></g><g><path fill="#242d3c" d="M26.896 8.807l-.566-.979 1.418-.818.565.979z"/></g><g><path fill="#242d3c" d="M24.885 5.943l-.8-.799 1.157-1.157.8.8z"/></g><g><path fill="#242d3c" d="M22.201 3.698l-.978-.565.818-1.418.979.565z"/></g><g><path fill="#242d3c" d="M19.028 2.225l-1.091-.293.423-1.58 1.092.292z"/></g><g><path fill="#242d3c" d="M15.581-.015h-1.13V1.62h1.13z"/></g><g><path fill="#242d3c" d="M11.003 2.225L10.579.644 11.671.35l.423 1.581z"/></g><g><path fill="#242d3c" d="M7.828 3.697L7.01 2.28l.978-.565.819 1.417z"/></g><g><path fill="#242d3c" d="M5.145 5.943L3.987 4.786l.799-.799 1.158 1.157z"/></g><g><path fill="#242d3c" d="M3.133 8.807l-1.418-.818.565-.98 1.418.82z"/></g><g><path fill="#242d3c" d="M1.932 12.094l-1.58-.423.292-1.092 1.58.423z"/></g><g><g><path fill="#ffaf00" d="M20.439 15.014a5.425 5.425 0 1 1-10.851-.001 5.425 5.425 0 0 1 10.85 0"/></g><g><path fill="#242d3c" d="M15.016 16.937a1.924 1.924 0 0 1-1.921-1.921c0-1.06.862-1.921 1.921-1.921 1.06 0 1.921.862 1.921 1.92 0 1.06-.861 1.922-1.92 1.922m0-2.712a.792.792 0 1 0 0 1.584.792.792 0 0 0 0-1.584"/></g><g><path fill="#242d3c" d="M15.014 22.331c-5.003 0-9.67-2.695-12.18-7.033l-.164-.283.164-.283A14.117 14.117 0 0 1 15.014 7.7c5.003 0 9.67 2.695 12.18 7.033l.164.283-.164.283a14.118 14.118 0 0 1-12.18 7.033M3.981 15.015a12.985 12.985 0 0 0 11.033 6.186c4.491 0 8.689-2.362 11.034-6.186a12.986 12.986 0 0 0-11.034-6.186c-4.49 0-8.688 2.362-11.033 6.186"/></g><g><path fill="#242d3c" d="M11.906 15.016h-1.13a4.21 4.21 0 0 1 1.241-2.997l.8.8a3.087 3.087 0 0 0-.91 2.197"/></g></g></g></g></svg>