<svg xmlns="http://www.w3.org/2000/svg" width="80" height="68" viewBox="0 0 80 68"><g><g><g><g><path fill="#5a5f64" d="M62.194 58.976a4.21 4.21 0 0 1 2.237.64c.14.088.186.271.104.415l-.356.619a1.02 1.02 0 0 1-1.177.47 2.202 2.202 0 0 0-2.827 2.114 2.202 2.202 0 0 0 2.827 2.115 1.02 1.02 0 0 1 1.177.47l.355.619a.308.308 0 0 1-.103.415 4.21 4.21 0 0 1-2.237.64 4.25 4.25 0 0 1-4.243-4.259 4.25 4.25 0 0 1 4.243-4.258zm-18.63 4.258h.614c.79 0 1.431-.528 1.431-1.18 0-.651-.64-1.18-1.43-1.18h-.614zm4.076 3.6c.167.199.025.505-.235.505h-1.421a1.02 1.02 0 0 1-.783-.367l-1.636-1.957v2.016c0 .17-.137.308-.307.308h-.715c-.565 0-1.022-.46-1.022-1.026v-6.157c0-.567.457-1.026 1.022-1.026h2.146c1.637 0 2.965 1.24 2.965 2.77 0 1.2-.817 2.222-1.958 2.607zM35.672 59.13h3.629c.17 0 .307.138.307.308v.41c0 .567-.458 1.026-1.023 1.026h-.434v5.439c0 .567-.458 1.026-1.022 1.026h-.716a.307.307 0 0 1-.306-.308v-6.157h-1.15a.307.307 0 0 1-.307-.307v-.41c0-.568.458-1.027 1.022-1.027zm31.63 0h3.629c.169 0 .306.138.306.308v.41c0 .567-.457 1.026-1.022 1.026h-.434v5.439c0 .567-.458 1.026-1.023 1.026h-.715a.307.307 0 0 1-.307-.308v-6.157h-1.15a.307.307 0 0 1-.306-.307v-.41c0-.568.457-1.027 1.022-1.027zm-48.805 7.901v-6.875c0-.567.458-1.026 1.023-1.026h.285c.334 0 .646.163.838.438l2.965 4.253v-3.665c0-.567.458-1.026 1.022-1.026h.716c.17 0 .307.138.307.308v6.875c0 .567-.458 1.026-1.023 1.026h-.285c-.334 0-.646-.164-.838-.438l-2.965-4.253v3.665c0 .567-.458 1.026-1.022 1.026h-.716a.307.307 0 0 1-.307-.308zm-8.295-3.797c0 1.176.95 2.13 2.121 2.13a2.125 2.125 0 0 0 2.121-2.13c0-1.175-.95-2.129-2.12-2.129a2.125 2.125 0 0 0-2.122 2.13zm6.363 0a4.25 4.25 0 0 1-4.242 4.259 4.25 4.25 0 0 1-4.242-4.259 4.25 4.25 0 0 1 4.242-4.258 4.25 4.25 0 0 1 4.242 4.258zm33.406-4.104h.715c.565 0 1.022.46 1.022 1.026v4.156c0 .624.504 1.129 1.125 1.129.62 0 1.124-.505 1.124-1.129v-4.156c0-.567.458-1.026 1.022-1.026h.716c.17 0 .306.138.306.308v4.874a3.175 3.175 0 0 1-3.168 3.181 3.175 3.175 0 0 1-3.169-3.18v-4.875c0-.17.137-.308.307-.308zm-22.06 2.052c0-1.338 1.134-2.155 2.76-2.155.697 0 1.35.185 1.916.507.147.084.199.274.114.421l-.247.43a1.02 1.02 0 0 1-1.165.473 2.244 2.244 0 0 0-.618-.086c-.756 0-.836.693-.35 1.022l1.708 1.157c.72.488 1.146 1.236 1.146 2.08 0 1.36-1.082 2.41-2.76 2.41-.686 0-1.34-.14-1.933-.397a1.03 1.03 0 0 1-.483-1.456l.251-.438a.306.306 0 0 1 .431-.105c.495.317 1.19.55 1.786.55.76 0 .817-.721.271-1.09l-1.37-.928c-1.05-.71-1.457-1.45-1.457-2.395zm-21.42-1.566c.14.088.186.271.103.415l-.356.619a1.02 1.02 0 0 1-1.176.47 2.202 2.202 0 0 0-2.827 2.114 2.202 2.202 0 0 0 2.827 2.115c.454-.136.94.058 1.176.47l.356.619a.308.308 0 0 1-.104.415c-.649.405-1.415.64-2.236.64A4.25 4.25 0 0 1 .01 63.234a4.25 4.25 0 0 1 4.243-4.258 4.21 4.21 0 0 1 2.236.64z"/></g><g><path fill="#00e1c8" d="M73.72 59.73c0-.567.459-1.026 1.023-1.026h4.47c.247 0 .392.28.25.484l-1.391 1.996a3.592 3.592 0 0 1 1.883 3.163 3.584 3.584 0 0 1-3.578 3.592 3.569 3.569 0 0 1-2.917-1.512.31.31 0 0 1 .097-.445l.791-.46a1.02 1.02 0 0 1 1.12.064c.254.189.568.3.909.3.847 0 1.533-.689 1.533-1.539s-.686-1.539-1.533-1.539h-1.098a.308.308 0 0 1-.25-.484l1.307-1.876h-2.308a.307.307 0 0 1-.307-.308v-.41z"/></g></g><g><g><g><path fill="#d2e1f0" d="M54.857 16.032c-2.97-5.151-8.518-8.617-14.874-8.617-6.121 0-11.495 3.215-14.536 8.055a.68.68 0 0 1-.916.228l-5.797-3.36C22.976 4.978 30.904.027 39.983.027c8.828 0 16.568 4.681 20.889 11.706a.686.686 0 0 1-.24.952zM39.983 34.505a9.794 9.794 0 0 0 8.162-4.382c.2-.3.596-.393.907-.213l5.805 3.365c-2.97 5.151-8.519 8.617-14.874 8.617-6.102 0-11.46-3.194-14.506-8.007a.686.686 0 0 1 .235-.96l5.771-3.345c1.697 2.944 4.868 4.925 8.5 4.925z"/></g><g><path fill="#96aab9" d="M39.983 41.892c-6.101 0-11.46-3.195-14.506-8.008a.687.687 0 0 1 .235-.96l5.772-3.345a9.834 9.834 0 0 1-1.314-4.926c0-5.414 4.368-9.85 9.813-9.85a9.794 9.794 0 0 1 8.163 4.381c.2.3.596.393.907.213l5.804-3.364c-2.969-5.152-8.518-8.618-14.874-8.618-6.121 0-11.495 3.215-14.535 8.055a.68.68 0 0 1-.917.228l-5.797-3.36a24.586 24.586 0 0 0-3.283 12.315c0 13.536 10.918 24.627 24.532 24.627 8.829 0 16.568-4.682 20.889-11.707a.687.687 0 0 0-.24-.952l-5.775-3.347c-2.97 5.152-8.518 8.618-14.874 8.618z"/></g></g><g><path fill="#00e1c8" d="M52.69 23.468l8.658-5.018c.906-.525 2.044.134 2.044 1.185v10.036c0 1.051-1.138 1.71-2.044 1.185l-8.659-5.018c-.905-.525-.905-1.845 0-2.37zm7.976-1.463l-4.57 2.648 4.57 2.648z"/></g></g></g></g></svg>