<?xml version="1.0" encoding="utf-8"?>
<svg xmlns="http://www.w3.org/2000/svg" width="72" height="74" viewBox="0 0 72 74"><g><g><path fill="#2e2e2c" d="M47.4 33.797c1.074 0 2.874-.684 5.747-3.7 0 0-3.063 6.872-9.379 10.572l-3.473-2.892-.095-.062-3.79 3.98s-8.589-.746-12.189-5.877c0 0 .568.218 1.168.218.727.031 1.516-.249 1.516-1.43V22.51c0-.622-.442-1.306-1.39-1.306-.852.031-2.083.59-3.757 2.27-3.505 3.575-4.926 6.996-4.926 6.996s-1.01-4.913 4.263-10.883c5.273-5.97 9.252-8.146 13.516-9.265 0 0-3.38 1.959-3.38 4.881 0 .87.127 1.43.316 1.835.253.497.632.684.98.684.284 0 .568-.125.789-.28V33.33s.095.249.316.56c.347.435.947.964 1.957.964 1.674 0 3.853-1.897 3.853-1.897V20.086c0-1.306-.979-2.892-1.99-3.42 0 0 2.148-.125 3.19.684 0 0 3.537-4.198 10.042-5.473 0 0-3.473 4.073-4.579 6.094-.19.032-.22 3.825-.19 7.65.032 3.668.096 7.368.159 7.617 0 0 .379.56 1.326.56zM35.905 1.15c-6.726 0-13.01 2.581-17.747 7.307-4.737 4.726-7.358 10.976-7.358 17.63 0 6.653 2.621 12.934 7.358 17.629 4.737 4.726 11.053 7.307 17.747 7.307 6.695 0 13.01-2.612 17.748-7.307 4.736-4.726 7.358-10.976 7.358-17.63 0-6.653-2.622-12.934-7.358-17.629C48.916 3.731 42.6 1.15 35.905 1.15zm0-1.15C50.4 0 62.147 11.66 62.115 26.055c0 14.396-11.747 26.056-26.241 26.056-14.495 0-26.242-11.66-26.242-26.056C9.632 11.66 21.379 0 35.905 0zM22.642 73.627h-5.62v-5.068h5.525v1.12h-4.01v.87h3.79v1.057h-3.79v.87h4.105zm7.61 0h-2.241l-3-3.793h-.032v3.793h-1.484v-5.068H25.8l2.937 3.824h.031V68.56h1.485zm4.39.062c-.474 0-.884 0-1.231-.031a6.015 6.015 0 0 1-.885-.124 1.527 1.527 0 0 1-.6-.28 1.018 1.018 0 0 1-.347-.467c-.095-.186-.126-.404-.158-.684-.032-.248-.032-.59-.032-.932v-.125c0-.373 0-.684.032-.933a3.16 3.16 0 0 1 .158-.684c.095-.186.19-.342.347-.435.158-.124.348-.218.6-.28.253-.062.537-.093.885-.124.347-.031.757-.031 1.231-.031h.221c.41 0 .758 0 1.042.03.284.032.569.063.758.094.221.031.38.093.537.187a.92.92 0 0 1 .316.28c.095.124.126.248.158.435.031.155.031.373.031.59v.187h-1.452V70.3a.613.613 0 0 0-.064-.28c-.031-.093-.094-.155-.22-.186-.095-.063-.253-.094-.443-.094-.19-.03-.442-.03-.758-.03h-.852c-.19 0-.38.03-.505.061-.127.032-.253.094-.316.125a1.726 1.726 0 0 0-.19.249 1.144 1.144 0 0 0-.063.373c0 .155-.031.342-.031.56v.093c0 .217 0 .404.031.528 0 .156.032.28.063.373a.484.484 0 0 0 .19.249c.063.062.19.093.316.124s.315.063.505.063h1.452c.158 0 .316-.032.41-.032.127-.03.222-.03.285-.062.063-.03.126-.062.158-.124s.063-.093.063-.187c0-.062.032-.155.032-.217v-.156h-1.958v-.964h3.41v1.12c0 .248-.031.466-.063.653a1.044 1.044 0 0 1-.19.466c-.094.124-.189.249-.347.342-.126.093-.315.156-.536.218a4.66 4.66 0 0 1-.79.124c-.316.031-.663.031-1.074.031h-.126zm13.579-.062H45.98l-2.968-3.762h-.032v3.762h-1.453V68.62H43.8l2.937 3.762h.031v-3.762h1.453zm6.758 0H49.42V68.62h5.463v1.088h-3.979v.87h3.79v1.058h-3.79v.87h4.074zm-49.61-7.773c-.727 0-1.358-.031-1.927-.062a8.75 8.75 0 0 1-1.42-.187c-.411-.093-.727-.218-.98-.373a2.283 2.283 0 0 1-.631-.59c-.158-.25-.253-.53-.316-.871A6.284 6.284 0 0 1 0 62.62v-5.722h2.653v4.882c0 .31 0 .56.031.777.032.218.063.404.127.56a.85.85 0 0 0 .284.373c.126.093.284.155.505.217.19.063.442.094.758.094.284.03.663.03 1.074.03h.22c.411 0 .758 0 1.074-.03.284-.031.537-.062.758-.094.19-.062.38-.124.505-.217a.85.85 0 0 0 .285-.373c.063-.156.094-.342.126-.56.032-.218.032-.466.032-.777v-4.882h2.652v5.721c0 .435-.031.809-.095 1.15-.063.343-.157.622-.315.871a1.643 1.643 0 0 1-.632.59c-.253.156-.6.28-.979.374-.41.093-.884.156-1.42.187-.57.03-1.2.062-1.927.062zm19.294-.094h-3.947l-5.21-6.622h-.064v6.622h-2.59V56.9h4.011l5.18 6.622h.03v-6.623h2.59zm4.484-4.384v-2.518h3.316c.442 0 .79 0 1.074.031.284.031.474.062.631.156a.45.45 0 0 1 .285.342c.031.155.063.373.063.621v.156c0 .249-.032.466-.063.622a.85.85 0 0 1-.285.373c-.157.093-.347.155-.631.186-.284.031-.663.031-1.105.031zm19.548 4.384h-9.821V56.9h9.663v1.958h-7.01v1.492h6.63v1.866h-6.63v1.523h7.168zm13.516 0h-2.874l-.821-1.585h-5.621l-.821 1.585h-2.842l4.831-8.86h3.253zm-4.643-3.45l-1.831-3.576h-.063l-1.832 3.575zm14.306 3.45h-8.685V56.9h2.653v6.808h6.032zm-33 2.861h1.516v5.037h-1.516z"/></g></g></svg>