<svg xmlns="http://www.w3.org/2000/svg" width="84" height="56" viewBox="0 0 84 56"><defs><linearGradient id="tfrca" x1="63.16" x2="63.16" y1="22.19" y2="33.44" gradientUnits="userSpaceOnUse"><stop offset="0" stop-color="#e60412"/><stop offset="1" stop-color="#aa0001"/></linearGradient><linearGradient id="tfrcb" x1="75.53" x2="75.53" y1="21.79" y2="33.85" gradientUnits="userSpaceOnUse"><stop offset="0" stop-color="#4fbd45"/><stop offset="1" stop-color="#079508"/></linearGradient><linearGradient id="tfrcc" x1="50.87" x2="50.87" y1="22.19" y2="33.44" gradientUnits="userSpaceOnUse"><stop offset="0" stop-color="#b90089"/><stop offset="1" stop-color="#970061"/></linearGradient><linearGradient id="tfrcd" x1="32.84" x2="32.84" y1="21.79" y2="33.85" gradientUnits="userSpaceOnUse"><stop offset="0" stop-color="#ffc500"/><stop offset="1" stop-color="#ffa300"/></linearGradient><linearGradient id="tfrce" x1="11.09" x2="11.09" y1="21.87" y2="33.44" gradientUnits="userSpaceOnUse"><stop offset="0" stop-color="#00a4eb"/><stop offset="1" stop-color="#0282e7"/></linearGradient><linearGradient id="tfrcf" x1="39.61" x2="39.61" y1="0" y2="56" gradientUnits="userSpaceOnUse"><stop offset="0" stop-color="#3b3b3b"/><stop offset="1"/></linearGradient></defs><g><g><g><path fill="url(#tfrca)" d="M66.036 28c0-1.99-.21-3.933-.604-5.81h-5.145a26.219 26.219 0 0 1 .525 11.253h4.69a28.24 28.24 0 0 0 .53-5.443z"/></g><g><path fill="url(#tfrcb)" d="M67.423 29.903h6.016c0 .477.17.831.507 1.063.337.237.845.355 1.527.355.652 0 1.15-.08 1.496-.237.346-.157.525-.393.525-.695 0-.503-.77-.875-2.305-1.116l-.32-.052c-2.909-.447-4.812-.928-5.705-1.448-.883-.517-1.33-1.278-1.33-2.275 0-1.208.652-2.127 1.956-2.761 1.3-.634 3.207-.945 5.71-.945 2.323 0 4.125.297 5.394.892 1.277.595 2.012 1.475 2.2 2.647h-5.578c-.048-.341-.25-.608-.608-.805-.363-.201-.814-.302-1.356-.302-.547 0-.963.066-1.247.202-.289.135-.429.328-.429.586 0 .446.705.779 2.109.993.372.053.652.096.84.123 2.826.468 4.668.966 5.517 1.496.853.53 1.277 1.304 1.277 2.323 0 1.295-.695 2.266-2.082 2.922-1.391.652-3.448.985-6.169.985-2.524 0-4.445-.328-5.766-.985-1.326-.656-2.056-1.645-2.188-2.961z"/></g><g><path fill="url(#tfrcc)" d="M42.271 33.447l5.224-5.915-4.8-5.342h6.388l1.886 2.673 1.951-2.673h6.392l-4.948 5.302 5.11 5.955H52.95l-2.175-3.12-2.043 3.12z"/></g><g><path fill="url(#tfrcd)" d="M34.882 28.42a.747.747 0 0 1 .04.21c.004.079.004.201.004.359 0 .752-.232 1.3-.692 1.645-.459.341-1.194.516-2.196.516-.547 0-.971-.087-1.264-.267-.298-.18-.446-.424-.446-.744 0-.494.752-.892 2.257-1.19a26.545 26.545 0 0 0 2.297-.525zm.556 5.018h6.046v-.32a1.215 1.215 0 0 1-.49-.397.967.967 0 0 1-.167-.556v-6.27c0-.84-.144-1.487-.433-1.937-.284-.455-.787-.858-1.5-1.217-.586-.293-1.409-.52-2.459-.695a21.134 21.134 0 0 0-3.447-.258c-2.647 0-4.651.319-6.016.966-1.365.648-2.056 1.602-2.087 2.862h5.876c.057-.377.253-.661.586-.84.332-.184.814-.276 1.435-.276.752 0 1.304.074 1.65.223.35.149.524.39.524.709 0 .577-.95.945-2.857 1.098-.546.044-.984.079-1.308.114-2.555.24-4.292.63-5.21 1.16-.92.529-1.378 1.351-1.378 2.462 0 1.142.463 2.022 1.395 2.647.936.626 2.258.936 3.964.936 1.111 0 2.117-.118 3.01-.363a8.672 8.672 0 0 0 2.49-1.115l.376 1.076z"/></g><g><path fill="url(#tfrce)" d="M0 33.447V22.194h4.65v1.645c.57-.665 1.208-1.15 1.921-1.47.713-.319 1.527-.476 2.45-.476.845 0 1.57.157 2.188.468.608.31 1.155.8 1.64 1.478.622-.678 1.304-1.172 2.044-1.491.743-.32 1.579-.477 2.506-.477 1.514 0 2.691.34 3.527 1.023.835.687 1.255 1.645 1.255 2.88v7.668h-5.04v-6.028c0-.705-.135-1.212-.407-1.532-.27-.319-.713-.476-1.32-.476-.622 0-1.081.166-1.375.498-.288.328-.437.85-.437 1.553v5.985H8.584v-5.87c0-.77-.14-1.326-.42-1.663-.28-.337-.74-.503-1.378-.503-.57 0-1.002.17-1.295.507-.293.337-.447.831-.447 1.479v6.046H.004z"/></g><g><path fill="url(#tfrcf)" d="M59.421 19.543C55.628 9.791 46.148 2.88 35.053 2.88c-8.41 0-15.89 3.972-20.672 10.141C19.346 5.193 28.083 0 38.036 0c12.517 0 23.118 8.212 26.7 19.543zm5.425 16.546C61.376 47.61 50.69 56 38.036 56a27.92 27.92 0 0 1-9.542-1.667c2.096.538 4.292.827 6.554.827 11.988 0 22.09-8.068 25.174-19.07z"/></g></g></g></svg>