<svg xmlns="http://www.w3.org/2000/svg" width="89" height="32" viewBox="0 0 89 32"><g><g><path fill="#110b09" d="M74.94 19.947h.802v2.464s-.356.058-1.721.058c-1.662 0-3.502-.645-3.502-3.05v-7.48h-1.781v-2.23h1.78V5.75h3.147v3.99h2.018v2.229h-2.019v6.747c0 .938.535 1.261 1.277 1.232zM85.619 9.739H89l-4.539 13.053c-.979 2.816-1.899 3.843-4.51 3.843h-2.017v-2.67h1.217c1.335 0 1.898-.674 1.898-1.73 0-.704-.237-1.526-.979-3.462L76.6 9.71h3.381l2.107 5.75c.415 1.173.83 2.786.83 2.786h.09s.326-1.613.741-2.786l1.869-5.75zm-20.974-3.99h3.144v2.552h-3.144zm0 3.96h3.144v12.734h-3.144zm-17.828 7.365V9.709h3.146v12.764h-3.027v-1.497h-.089c-.86 1.174-1.87 1.849-3.68 1.849-2.878 0-4.48-1.82-4.48-4.607V9.71h3.145v7.922c0 1.497.92 2.318 2.374 2.318 1.602 0 2.582-1.173 2.582-2.875zm11.716-7.717c2.67 0 4.45 1.995 4.42 4.782v8.33h-3.144v-7.832c0-1.496-1.068-2.346-2.492-2.346-1.513 0-2.61 1.202-2.61 2.933v7.216H51.56V9.71h3.085v1.73h.06c.89-1.35 2.076-2.083 3.826-2.083zm-26.314 3.315l-1.988 3.285 1.988 3.286-3.53 12.642-13.143-3.402-1.958-3.315-3.945.03L0 15.927l9.642-9.27 3.945.03 1.958-3.315L28.688 0zM6.616 14.344h11.572l5.786-9.621-10.059 2.493zM24 27.104l-5.785-9.621H6.645l7.269 7.128zm5.578-11.176l-2.789-9.621-5.785 9.621 5.785 9.621z"/></g></g></svg>