<?xml version="1.0" encoding="utf-8"?>
<svg xmlns="http://www.w3.org/2000/svg" width="30" height="32" viewBox="0 0 30 32"><g><g><g><path fill="#ffaf00" d="M18.697 8.743v4.264l-3.692 2.132-3.692-2.132V8.743l3.692-2.131zm-2.269 1.309l-1.424-.823-1.425.823v1.647l1.425.823 1.424-.823z"/></g><g><path fill="#ffaf00" d="M12.74 19.065v4.263L9.049 25.46l-3.692-2.132v-4.263l3.692-2.132zm-2.268 1.308l-1.425-.823-1.425.823v1.647l1.425.823 1.425-.823z"/></g><g><path fill="#ffaf00" d="M24.657 19.065v4.263l-3.693 2.132-3.692-2.132v-4.264l3.692-2.131zm-2.269 1.308l-1.425-.823-1.425.823v1.647l1.425.823 1.425-.823z"/></g><g><path fill="#242d3c" d="M15.004 18.41L8.48 14.641V7.107l6.525-3.767 6.525 3.767v7.535zm-5.392-4.424l5.392 3.113 5.392-3.113V7.761l-5.392-3.112L9.612 7.76z"/></g><g><path fill="#242d3c" d="M9.048 28.73l-6.526-3.767V17.43l6.526-3.767 6.525 3.767v7.534zm-5.392-4.423l5.393 3.113 5.393-3.113v-6.225L9.05 14.97l-5.393 3.112z"/></g><g><path fill="#242d3c" d="M20.964 28.73l-6.525-3.767V17.43l6.525-3.767 6.525 3.767v7.534zm-5.392-4.423l5.393 3.113 5.394-3.113v-6.225l-5.394-3.112-5.393 3.112z"/></g><g><path fill="#242d3c" d="M14.439 3.995h1.133V.738H14.44z"/></g><g><path fill="#242d3c" d="M8.482 31.333h1.133v-3.257H8.482z"/></g><g><path fill="#242d3c" d="M20.398 31.333h1.133v-3.257h-1.133z"/></g><g><path fill="#242d3c" d="M26.64 17.266l.567.981 2.82-1.628-.566-.98z"/></g><g><path fill="#242d3c" d="M-.015 16.62l2.82 1.627.567-.981-2.82-1.628z"/></g><g><path fill="#242d3c" d="M15.005 13.831l-2.56-1.477-1.132.654 3.692 2.132 3.692-2.132-1.133-.654z"/></g><g><path fill="#242d3c" d="M15.005 7.92l2.559 1.477 1.133-.654-3.692-2.131-3.692 2.131 1.133.654z"/></g><g><path fill="#242d3c" d="M9.048 16.933v1.308l2.559 1.478v2.955l1.133.654v-4.263z"/></g><g><path fill="#242d3c" d="M6.489 19.719l-1.133-.654v4.263l3.692 2.132v-1.308L6.49 22.674z"/></g><g><path fill="#242d3c" d="M20.964 16.933v1.308l-2.559 1.477v2.956l-1.133.654v-4.264z"/></g><g><path fill="#242d3c" d="M23.524 19.719l1.133-.654v4.263l-3.693 2.132v-1.308l2.56-1.478z"/></g></g></g></svg>