<?xml version="1.0" encoding="utf-8"?>
<svg xmlns="http://www.w3.org/2000/svg" width="32" height="34" viewBox="0 0 32 34"><g><g><g><path fill="#242d3c" d="M4.116 33.497c-.372 0-.749-.062-1.118-.19a3.355 3.355 0 0 1-2.24-3.541l1.26-11.73 1.124.121-1.26 11.73a2.23 2.23 0 0 0 1.489 2.352 2.23 2.23 0 0 0 2.628-.916l3.382-5.342.954.604-3.38 5.342c-.634 1-1.711 1.57-2.839 1.57"/></g><g><g/><g><path fill="#242d3c" d="M28.053 33.497a3.354 3.354 0 0 1-2.838-1.57l-3.381-5.342.955-.604 3.381 5.342a2.23 2.23 0 0 0 2.629.916 2.228 2.228 0 0 0 1.488-2.352l-1.26-11.73 1.125-.12 1.26 11.729a3.354 3.354 0 0 1-2.241 3.54c-.369.129-.746.19-1.118.19"/></g></g><g><path fill="#ffaf00" d="M13.486 15.053a5.878 5.878 0 1 1-11.756-.001 5.878 5.878 0 0 1 11.756 0"/></g><g><path fill="#ffaf00" d="M30.441 15.053a5.878 5.878 0 1 1-11.756-.001 5.878 5.878 0 0 1 11.756 0"/></g><g><path fill="#242d3c" d="M7.607 21.495a6.45 6.45 0 0 1-6.443-6.443 6.45 6.45 0 0 1 6.443-6.443 6.45 6.45 0 0 1 6.443 6.443 6.45 6.45 0 0 1-6.443 6.443M7.61 9.739a5.32 5.32 0 0 0-5.314 5.313 5.32 5.32 0 0 0 5.314 5.312 5.32 5.32 0 0 0 5.313-5.312A5.32 5.32 0 0 0 7.61 9.739"/></g><g><path fill="#242d3c" d="M24.563 21.495a6.45 6.45 0 0 1-6.444-6.443 6.45 6.45 0 0 1 6.444-6.443 6.45 6.45 0 0 1 6.443 6.443 6.45 6.45 0 0 1-6.443 6.443m0-11.756a5.319 5.319 0 0 0-5.313 5.313 5.319 5.319 0 0 0 5.313 5.312 5.319 5.319 0 0 0 5.312-5.312 5.319 5.319 0 0 0-5.312-5.313"/></g><g/><g><path fill="#242d3c" d="M23.998 13.355h1.13v-1.13h-1.13z"/></g><g><path fill="#242d3c" d="M23.998 17.877h1.13v-1.13h-1.13z"/></g><g><path fill="#242d3c" d="M21.738 15.617h1.13v-1.13h-1.13z"/></g><g><path fill="#242d3c" d="M26.257 15.617h1.13v-1.13h-1.13z"/></g><g><path fill="#ffaf00" d="M12.808 24.66a1.922 1.922 0 1 1-3.844 0 1.922 1.922 0 0 1 3.844 0"/></g><g><path fill="#ffaf00" d="M23.205 24.66a1.922 1.922 0 1 1-3.843 0 1.922 1.922 0 0 1 3.843 0"/></g><g><path fill="#242d3c" d="M10.885 27.148A2.49 2.49 0 0 1 8.4 24.66a2.49 2.49 0 0 1 2.486-2.488 2.49 2.49 0 0 1 2.488 2.488 2.49 2.49 0 0 1-2.488 2.488m0-3.846a1.358 1.358 0 0 0 0 2.713c.748 0 1.357-.608 1.357-1.356 0-.748-.609-1.357-1.357-1.357"/></g><g><path fill="#242d3c" d="M21.286 27.148a2.49 2.49 0 0 1-2.487-2.488 2.49 2.49 0 0 1 2.487-2.488 2.49 2.49 0 0 1 2.487 2.488 2.49 2.49 0 0 1-2.487 2.488m0-3.846c-.748 0-1.357.609-1.357 1.357s.609 1.356 1.357 1.356c.747 0 1.356-.608 1.356-1.356 0-.748-.609-1.357-1.356-1.357"/></g><g><path fill="#242d3c" d="M11.515 11.226h9.141v-1.13h-9.14z"/></g><g><path fill="#242d3c" d="M7.042 17.876h1.13v-5.651h-1.13z"/></g><g><path fill="#242d3c" d="M4.783 15.617h5.652v-1.13H4.783z"/></g><g><path fill="#242d3c" d="M12.807 25.224h6.556v-1.13h-6.556z"/></g><g><path fill="#242d3c" d="M16.651 10.66h-1.13V9.53a.786.786 0 0 0-.232-.559.786.786 0 0 0-.56-.232H13.6c-.513 0-.996-.2-1.359-.563a1.907 1.907 0 0 1-.562-1.358c0-.514.2-.996.562-1.36a1.909 1.909 0 0 1 1.36-.562h7.346c.212 0 .41-.082.56-.232a.786.786 0 0 0 .232-.56.786.786 0 0 0-.232-.559.786.786 0 0 0-.56-.232h-3.504c-.513 0-.996-.2-1.359-.563a1.908 1.908 0 0 1-.562-1.358V.262h1.13v1.13c0 .211.082.41.232.56.15.149.348.231.56.231h3.503c.514 0 .996.2 1.36.563.362.363.562.846.562 1.359s-.2.996-.563 1.359a1.91 1.91 0 0 1-1.359.562H13.6a.785.785 0 0 0-.559.232.786.786 0 0 0-.232.56c0 .21.082.41.232.559.15.15.348.232.56.232h1.13c.513 0 .995.2 1.358.563.363.363.563.845.563 1.358z"/></g><g><path fill="#242d3c" d="M16.65 21.496h1.13v-1.131h-1.13z"/></g><g><path fill="#242d3c" d="M14.39 21.496h1.13v-1.131h-1.13z"/></g></g></g></svg>