<svg xmlns="http://www.w3.org/2000/svg" xmlns:xlink="http://www.w3.org/1999/xlink" width="190" height="31" viewBox="0 0 190 31"><defs><path id="zajla" d="M169.608 75.506h-4.2v1.645h3.74c.527 0 .888.097 1.083.29.194.194.292.56.292 1.1v.662c0 .543-.095.911-.287 1.105-.19.193-.553.29-1.089.29h-3.464c-.54 0-.906-.098-1.1-.293-.195-.196-.292-.562-.292-1.102v-.162l.92-.211v.947h4.42v-1.773h-3.729c-.539 0-.903-.097-1.095-.293-.19-.194-.286-.562-.286-1.101v-.513c0-.539.096-.907.286-1.101.192-.195.556-.293 1.095-.293h3.162c.527 0 .891.096 1.091.287.2.192.301.527.301 1.007v.122l-.848.24zm5.306.59c0-.535.097-.9.29-1.097.192-.197.56-.296 1.103-.296h4.104c.535 0 .9.098 1.092.293.193.194.289.562.289 1.1v3.107c0 .543-.096.911-.29 1.105-.192.193-.556.29-1.091.29h-4.104c-.543 0-.911-.099-1.103-.296-.193-.197-.29-.563-.29-1.099zm.989 3.681h4.918v-4.271h-4.918zm10.37.82v-5.894h5.649v.803h-4.655v1.929h2.656v.787h-2.656v2.376zm11.741-5.091v5.092h-.988v-5.092h-2.712v-.803h6.423v.803zm6.845 5.092l-2.15-5.895h1l1.605 4.684 1.752-4.684h.606l1.69 4.684 1.623-4.684h.887l-2.15 5.895h-.736l-1.645-4.457-1.702 4.457zm8.878 0l3.239-5.895h1.061l3.296 5.895h-1.09l-.757-1.45h-4.015l-.758 1.45zm2.15-2.204h3.194l-1.6-3.016zm8.838 2.204v-5.895h4.783c.446 0 .767.09.963.27.196.18.295.471.295.873v1.316c0 .398-.099.687-.295.867-.196.18-.517.27-.963.27h-.87l2.712 2.299h-1.471l-2.414-2.298h-1.746v2.298zm.994-5.131v2.064h3.406c.247 0 .417-.045.507-.134.09-.089.135-.244.135-.467v-.857c0-.223-.046-.379-.138-.47-.092-.09-.26-.136-.504-.136zm9.242 5.13v-5.894h5.716v.792h-4.722v1.64h2.885v.78h-2.885v1.874h4.767v.809zm20.427-5.091h-4.2v1.645h3.74c.528 0 .888.097 1.084.29.194.194.292.56.292 1.1v.662c0 .543-.096.911-.287 1.105-.19.193-.554.29-1.09.29h-3.464c-.538 0-.905-.098-1.1-.293-.195-.196-.292-.562-.292-1.102v-.162l.92-.211v.947h4.42v-1.773h-3.729c-.538 0-.903-.097-1.095-.293-.19-.194-.286-.562-.286-1.101v-.513c0-.539.096-.907.286-1.101.192-.195.557-.293 1.095-.293h3.162c.527 0 .891.096 1.092.287.2.192.3.527.3 1.007v.122l-.848.24zm5.385-.803h1v5.895h-1zm6.374 1.416c.007.127.01.294.01.502v3.977h-.841v-5.895h.808l2.886 3.837 2.69-3.837h.909v5.895h-.91V76.62c0-.051.007-.183.02-.393.013-.21.021-.367.025-.471a9.212 9.212 0 0 1-.199.384c-.058.105-.11.188-.154.251l-2.269 3.28h-.252l-2.358-3.19a2.533 2.533 0 0 1-.4-.725c.016.115.027.236.035.362zm12.016-1.416v5.074h4.322v-5.074h.978v4.5c0 .543-.097.911-.29 1.105-.192.193-.556.29-1.092.29h-3.52c-.539 0-.906-.099-1.1-.296-.195-.197-.292-.563-.292-1.099v-4.5zm9.86 5.895v-5.895h.992v5.074h4.487v.82zm8.034 0l3.24-5.895h1.061l3.296 5.895h-1.089l-.758-1.45h-4.015l-.757 1.45zm2.151-2.204h3.195l-1.6-3.016zm10.304-2.888v5.092h-.988v-5.092h-2.712v-.803h6.422v.803zm5.862-.803h1v5.895h-1zm5.463 1.394c0-.536.097-.902.29-1.098.192-.197.56-.296 1.103-.296h4.104c.535 0 .9.098 1.092.293.193.194.29.562.29 1.1v3.107c0 .543-.097.911-.29 1.105-.193.193-.557.29-1.092.29h-4.104c-.543 0-.91-.099-1.103-.296-.193-.197-.29-.563-.29-1.099zm.989 3.68h4.913v-4.271h-4.913zm10.37.82v-5.894h.623l4.437 3.943c.102.089.209.197.323.323.114.126.231.266.35.418a6.97 6.97 0 0 1-.066-.594 12.307 12.307 0 0 1-.023-.855v-3.235h.909v5.895h-.555l-4.555-4.1a2.472 2.472 0 0 1-.102-.089 2.578 2.578 0 0 1-.5-.574c.023.178.04.37.051.572.012.202.017.441.017.716v3.475zm16.171-5.091h-4.199v1.645h3.74c.527 0 .888.097 1.083.29.194.194.292.56.292 1.1v.662c0 .543-.096.911-.287 1.105-.19.193-.554.29-1.089.29h-3.465c-.538 0-.905-.098-1.1-.293-.195-.196-.292-.562-.292-1.102v-.162l.92-.211v.947h4.42v-1.773h-3.728c-.539 0-.904-.097-1.095-.293-.19-.194-.287-.562-.287-1.101v-.513c0-.539.096-.907.287-1.101.19-.195.556-.293 1.095-.293h3.16c.528 0 .892.096 1.093.287.2.192.3.527.3 1.007v.122l-.848.24zM185.23 50.569l-9.997 18.033h-5.236L160 50.569h4.945l6.004 11.23c.81 1.533 1.366 2.734 1.666 3.6.141-.433.348-.95.621-1.55.274-.6.613-1.283 1.019-2.05l6.003-11.23zm.714-.025h4.29v18.088h-4.29zm26.957 10.342c.36.675.542 1.413.542 2.213 0 .9-.185 1.692-.555 2.376a4.955 4.955 0 0 1-1.534 1.713c-.653.459-1.42.81-2.3 1.05-.882.242-1.833.364-2.855.364h-13.141v-4.053h13.933c.53 0 .983-.125 1.362-.375.38-.25.569-.608.569-1.075 0-.467-.194-.834-.582-1.1a2.325 2.325 0 0 0-1.349-.4h-7.561c-.988 0-1.908-.121-2.763-.363s-1.6-.6-2.234-1.076a5.153 5.153 0 0 1-1.494-1.738c-.361-.683-.542-1.476-.542-2.375 0-.884.18-1.667.542-2.351a4.918 4.918 0 0 1 1.494-1.714c.634-.458 1.379-.809 2.234-1.05s1.775-.363 2.763-.363h13.087v4.052h-13.775c-.581 0-1.062.138-1.44.413-.38.275-.57.63-.57 1.063 0 .433.186.783.556 1.05.37.266.855.4 1.454.4h7.457c1.057 0 2.026.137 2.908.412.881.276 1.643.663 2.287 1.163a5.529 5.529 0 0 1 1.507 1.764zm26.73 7.716h-4.946l-2.116-4.053h-11.081l-2.115 4.053H214.4l9.997-18.033h5.237zm-9.336-8.1c-.917-1.574-1.644-2.922-2.182-4.044-.538-1.121-.904-2.017-1.097-2.686-.388 1.289-1.473 3.532-3.254 6.73zm32.053-2.728a4.91 4.91 0 0 1-.45 2.076c-.3.651-.71 1.222-1.23 1.715a6.058 6.058 0 0 1-1.811 1.175 5.622 5.622 0 0 1-2.221.438H256l5.792 5.43h-6.082l-5.475-5.43h-5.686v5.454h-4.284V50.569h16.37c.794 0 1.534.146 2.222.438a6.047 6.047 0 0 1 1.811 1.176 5.48 5.48 0 0 1 1.23 1.726c.3.659.45 1.356.45 2.089zm-4.279-1.776c0-.384-.141-.709-.423-.976a1.416 1.416 0 0 0-1.006-.4H244.55v4.503h12.091c.388 0 .723-.133 1.006-.4.282-.266.423-.584.423-.95zm24.108-1.4h-7.033v14.034h-4.282V54.597h-6.928v-4.053h18.243zm21.163 14.034h-18.99V50.544h18.99v4.053h-14.705V57.5h14.229v4.053h-14.229v3.027h14.705zm24.965-2.481a7.95 7.95 0 0 1-1.097.95c-.415.3-.842.562-1.283.787-.442.225-.882.4-1.323.526-.44.125-.855.188-1.242.188h-11.954a5.798 5.798 0 0 1-2.209-.426 5.818 5.818 0 0 1-1.824-1.163 5.45 5.45 0 0 1-1.23-1.726 5.028 5.028 0 0 1-.45-2.113v-7.178a5 5 0 0 1 .463-2.126 5.467 5.467 0 0 1 1.243-1.725 5.986 5.986 0 0 1 1.812-1.151 5.706 5.706 0 0 1 2.195-.425h11.954c1.005 0 1.935.221 2.79.663.855.442 1.485 1.004 1.89 1.688l-3.596 2.476c-.124-.516-.486-.775-1.084-.775h-11.954c-.388 0-.723.133-1.005.4a1.292 1.292 0 0 0-.423.975v7.178c0 .384.14.709.423.975.282.268.617.4 1.005.4h11.954c.51 0 1.101-.375 1.772-1.125zm21.231 2.48h-4.283v-7.08h-10.919v7.08h-4.284V50.545h4.284v6.955h10.92v-6.955h4.282z"/></defs><g><g transform="translate(-160 -50)"><use fill="#fff" xlink:href="#zajla"/></g></g></svg>