<svg xmlns="http://www.w3.org/2000/svg" width="144" height="14" viewBox="0 0 144 14"><g><g><path fill="#fff" d="M19.122.02l-7.577 13.652H7.577L0 .019h3.748l4.55 8.502c.614 1.161 1.035 2.07 1.263 2.727.107-.328.264-.72.47-1.174.208-.455.465-.972.773-1.553l4.55-8.502zm.54-.02h3.252v13.694h-3.251zm20.432 7.83a3.5 3.5 0 0 1 .41 1.676c0 .681-.14 1.281-.42 1.799-.281.518-.669.95-1.163 1.297a5.553 5.553 0 0 1-1.743.795 8.16 8.16 0 0 1-2.164.275h-9.96v-3.068h10.56c.402 0 .745-.095 1.033-.284.287-.19.43-.46.43-.814a.958.958 0 0 0-.44-.834 1.764 1.764 0 0 0-1.022-.303h-5.731a7.681 7.681 0 0 1-2.094-.274 5.11 5.11 0 0 1-1.694-.814 3.903 3.903 0 0 1-1.132-1.316c-.274-.518-.41-1.118-.41-1.799 0-.67.136-1.262.41-1.78.274-.518.651-.95 1.132-1.297A5.351 5.351 0 0 1 27.79.294a7.697 7.697 0 0 1 2.094-.275h9.919v3.067h-10.44c-.441 0-.806.105-1.093.313-.287.209-.43.477-.43.805 0 .328.14.593.42.795.28.202.648.303 1.103.303h5.65c.802 0 1.537.104 2.205.312a5.438 5.438 0 0 1 1.733.88c.488.38.868.825 1.143 1.336zm20.258 5.842h-3.749L55 10.604H46.6l-1.603 3.068H41.23L48.806.019h3.969zm-7.076-6.133a44.528 44.528 0 0 1-1.654-3.061c-.407-.85-.685-1.527-.831-2.034-.294.976-1.116 2.674-2.466 5.095zm24.293-2.065c0 .556-.114 1.08-.34 1.572a4.179 4.179 0 0 1-.933 1.298c-.394.372-.852.67-1.373.89a4.265 4.265 0 0 1-1.683.331h-.482l4.39 4.111h-4.61l-4.15-4.11H64.08v4.128h-3.247V.02H73.24c.6 0 1.162.11 1.683.332.521.221.979.517 1.373.89.394.372.705.808.932 1.307.227.499.34 1.026.34 1.581zM74.326 4.13a.979.979 0 0 0-.32-.739 1.074 1.074 0 0 0-.763-.303H64.08v3.41h9.164c.294 0 .548-.101.762-.303a.958.958 0 0 0 .321-.72zm18.271-1.06h-5.33v10.625h-3.246V3.07h-5.25V0h13.826zm16.04 10.625H94.245V0h14.392v3.069H97.492v2.197h10.784v3.068H97.492v2.292h11.145zm18.92-1.878c-.24.252-.517.492-.831.72a7.446 7.446 0 0 1-.972.596c-.335.17-.669.303-1.003.397a3.448 3.448 0 0 1-.941.143h-9.06a4.398 4.398 0 0 1-1.674-.322 4.41 4.41 0 0 1-1.383-.881 4.126 4.126 0 0 1-.932-1.307 3.803 3.803 0 0 1-.34-1.6V4.128c0-.568.116-1.104.35-1.61a4.14 4.14 0 0 1 .942-1.306 4.537 4.537 0 0 1 1.373-.871 4.328 4.328 0 0 1 1.664-.322h9.06c.762 0 1.466.167 2.114.502.648.334 1.126.76 1.433 1.278l-2.726 1.874c-.094-.39-.368-.587-.821-.587h-9.06c-.294 0-.548.102-.762.303a.978.978 0 0 0-.32.739v5.434c0 .291.106.537.32.739.214.202.468.303.762.303h9.06c.387 0 .834-.284 1.343-.852zm16.092 1.878h-3.246v-5.36h-8.276v5.36h-3.247V0h3.247v5.266h8.276V0h3.246z"/></g></g></svg>