<?xml version="1.0" encoding="utf-8"?>
<svg xmlns="http://www.w3.org/2000/svg" width="66" height="78" viewBox="0 0 66 78"><g><g><g><g/><g><path fill="#fff" d="M33.272 77.68C15.256 77.68.6 63.025.6 45.008c0-18.015 14.656-32.672 32.672-32.672 18.015 0 32.672 14.657 32.672 32.672 0 18.017-14.657 32.672-32.672 32.672m0-62.59c-16.498 0-29.92 13.42-29.92 29.918 0 16.497 13.422 29.92 29.92 29.92 16.497 0 29.918-13.423 29.918-29.92S49.77 15.089 33.272 15.089"/></g></g><g><path fill="#ffaf00" d="M33.274 18.93c14.404 0 26.08 11.675 26.08 26.079s-11.676 26.08-26.08 26.08c-14.403 0-26.08-11.676-26.08-26.08 0-14.404 11.677-26.079 26.08-26.079m0 41.293c8.388 0 15.213-6.825 15.213-15.214s-6.825-15.214-15.213-15.214c-8.388 0-15.214 6.825-15.214 15.214 0 8.39 6.826 15.214 15.214 15.214"/></g><g/><g><path fill="#fff" d="M31.896 25.884h2.753v-3.042h-2.753z"/></g><g><path fill="#fff" d="M22.516 29.134l-1.522-2.635 2.383-1.377 1.522 2.635z"/></g><g><path fill="#fff" d="M16.02 36.636l-2.634-1.522 1.377-2.384 2.635 1.522z"/></g><g><path fill="#fff" d="M11.106 46.385v-2.752l3.043-.001v2.753z"/></g><g><path fill="#fff" d="M14.764 57.282l-1.378-2.384 2.634-1.522 1.378 2.383z"/></g><g><path fill="#fff" d="M23.378 64.894l-2.384-1.377 1.522-2.635 2.383 1.377z"/></g><g><path fill="#fff" d="M31.897 67.176l-.001-3.042h2.753l.001 3.041z"/></g><g><path fill="#fff" d="M43.163 64.894L41.64 62.26l2.383-1.378 1.524 2.634z"/></g><g><path fill="#fff" d="M51.784 57.283l-2.638-1.523 1.375-2.384 2.638 1.522z"/></g><g><path fill="#fff" d="M52.399 46.386l-.001-2.753 3.044-.001v2.753z"/></g><g><path fill="#fff" d="M50.522 36.636l-1.376-2.384 2.638-1.522 1.376 2.384z"/></g><g><path fill="#fff" d="M44.024 29.134l-2.384-1.377 1.522-2.635 2.383 1.377z"/></g><g><path fill="#fff" d="M31.896 13.71h2.753V5.886h-2.753z"/></g><g><path fill="#fff" d="M29.36 11.176a5.25 5.25 0 0 1-3.739-1.549 5.251 5.251 0 0 1-1.549-3.739c0-1.413.55-2.74 1.55-3.74A5.252 5.252 0 0 1 29.36.6h7.824c1.413 0 2.74.55 3.74 1.548.999 1 1.549 2.327 1.549 3.74 0 1.413-.55 2.74-1.55 3.739-.999 1-2.326 1.55-3.739 1.55zm0-7.823c-.677 0-1.314.263-1.792.742a2.52 2.52 0 0 0-.743 1.793c0 .677.264 1.314.743 1.793.478.479 1.115.742 1.792.742h7.824c.678 0 1.314-.263 1.793-.742.48-.479.744-1.116.744-1.793a2.52 2.52 0 0 0-.744-1.793 2.52 2.52 0 0 0-1.793-.742z"/></g><g><path fill="#fff" d="M60.985 23.667l-1.947-1.946 1.843-1.844a.71.71 0 0 0 0-1.005l-1.474-1.476a.728.728 0 0 0-1.003 0l-1.846 1.845-1.946-1.947 1.845-1.844a3.44 3.44 0 0 1 2.447-1.014c.926 0 1.794.36 2.449 1.014l1.475 1.475a3.441 3.441 0 0 1 1.015 2.45c0 .925-.36 1.795-1.015 2.449z"/></g><g><path fill="#fff" d="M5.558 23.667l-1.843-1.844A3.443 3.443 0 0 1 2.7 19.377a3.45 3.45 0 0 1 1.015-2.451l1.474-1.475a3.443 3.443 0 0 1 2.449-1.015c.926 0 1.796.36 2.45 1.014l1.844 1.844-1.946 1.947-1.845-1.845a.708.708 0 0 0-1.005.002l-1.474 1.474a.712.712 0 0 0 0 1.004l1.843 1.845z"/></g><g><path fill="#fff" d="M33.271 49.832a4.83 4.83 0 0 1-4.825-4.825 4.83 4.83 0 0 1 4.825-4.825 4.83 4.83 0 0 1 4.824 4.825 4.83 4.83 0 0 1-4.824 4.825m0-6.898c-1.143 0-2.073.93-2.073 2.073 0 1.143.93 2.073 2.073 2.073 1.143 0 2.072-.93 2.072-2.073 0-1.143-.93-2.073-2.072-2.073"/></g><g><path fill="#fff" d="M36.943 44.473l-1.375-2.385 4.407-2.542 1.375 2.384z"/></g></g></g></svg>