<svg xmlns="http://www.w3.org/2000/svg" width="846" height="957" viewBox="0 0 846 957"><g><g><path fill="none" stroke="#fff" stroke-miterlimit="50" d="M142.217 880.75v0L65.464 762v0L1 887.845v0z"/></g><g transform="rotate(-27 169 -69)"><path fill="#fff" d="M130.129 36.864L139.06 5 107 13.198z"/></g><g><path fill="none" stroke="#fff" stroke-miterlimit="50" d="M722 44.071v0l50.615 38.926v0l8.404-63.297v0z"/></g><g><path fill="none" stroke="#fff" stroke-miterlimit="50" d="M708 820v0l36.596 136.577v0l99.981-99.981v0z"/></g><g><path fill="#fff" d="M735 761.197l23.13 23.666L767.061 753z"/></g><g transform="rotate(-72 187 485)"><path fill="#fff" d="M120 565.197l23.13 23.666L152.061 557z"/></g><g transform="rotate(34 145 303.5)"><path fill="none" stroke="#fff" stroke-miterlimit="50" d="M80 411.479v0l63.683-4.655v0L107.81 354v0z"/></g></g></svg>