<svg xmlns="http://www.w3.org/2000/svg" width="1435" height="511" viewBox="0 0 1435 511"><g><g><g><path fill="none" stroke="#fff" stroke-miterlimit="50" d="M1250.19 169.79v0l36.596 136.577v0l99.981-99.981v0z"/></g><g><g><path fill="none" stroke="#fff" stroke-miterlimit="50" d="M142.057 443.03v0L65.304 324.28v0L.84 450.125v0z"/></g><g><path fill="none" stroke="#fff" stroke-miterlimit="50" d="M165.234 101.908v0l74.273-73.751v0L138.5.71v0z"/></g></g><g><path fill="none" stroke="#fff" stroke-miterlimit="50" d="M1355.68 89.449v0l63.683-4.655v0L1383.49 31.97v0z"/></g><g><path fill="none" stroke="#fff" stroke-miterlimit="50" d="M300.06 148.261v0l50.615 38.926v0l8.404-63.297v0z"/></g><g><path fill="#fff" d="M1280.967 37.265l-19.973-26.385-12.864 30.489z"/></g><g><path fill="#fff" d="M178.709 229.054l8.931-31.864-32.06 8.198z"/></g><g><path fill="#fff" d="M1402.88 487.037l23.13 23.666 8.931-31.863z"/></g></g></g></svg>