<?xml version="1.0" encoding="utf-8"?>
<svg xmlns="http://www.w3.org/2000/svg" width="64" height="79" viewBox="0 0 64 79"><g><g><g><g/><g><path fill="#ffaf00" d="M49.963 53.629c0 13.74-11.14 24.88-24.884 24.88C11.339 78.508.2 67.368.2 53.628c0-13.742 11.139-24.883 24.879-24.883 13.744 0 24.884 11.141 24.884 24.883"/></g></g><g/><g><path fill="#ffaf00" d="M17.612 36.21h14.93V21.283h-14.93z"/></g><g><path fill="#fff" d="M9.843 53.627H7.088c0-4.802 1.873-9.32 5.273-12.719l1.948 1.948a15.136 15.136 0 0 0-4.466 10.77"/></g><g><path fill="#fff" d="M54.193 22.66h-4.23a6.335 6.335 0 0 1-4.494-1.86 6.298 6.298 0 0 1-1.86-4.493v-4.976a8.517 8.517 0 0 0-2.511-6.062 8.528 8.528 0 0 0-6.066-2.514 8.541 8.541 0 0 0-6.068 2.514 8.517 8.517 0 0 0-2.508 6.062v9.951h-2.754v-9.951c0-3.028 1.178-5.873 3.316-8.01A11.279 11.279 0 0 1 35.032 0c3.024 0 5.869 1.18 8.012 3.32a11.247 11.247 0 0 1 3.319 8.011v4.976c0 .964.373 1.866 1.05 2.541a3.593 3.593 0 0 0 2.55 1.056h4.23z"/></g><g><path fill="#fff" d="M52.528 30.773l.471-2.71a7.072 7.072 0 0 0 2.4-.002l.478 2.708a9.83 9.83 0 0 1-3.35.004zm-3.15-1.136a9.708 9.708 0 0 1-2.564-2.148l2.107-1.775a6.91 6.91 0 0 0 1.833 1.536zm8.259-2.394a6.882 6.882 0 0 0 1.831-1.538l2.11 1.77a9.657 9.657 0 0 1-2.562 2.153zm3.026-3.608a6.85 6.85 0 0 0 .414-2.355l2.754-.035v.035a9.6 9.6 0 0 1-.579 3.297zm-.007-4.736a6.863 6.863 0 0 0-1.205-2.065l2.107-1.778a9.613 9.613 0 0 1 1.688 2.89zm-11.31-5.958a9.581 9.581 0 0 1 3.143-1.153l.483 2.712a6.816 6.816 0 0 0-2.242.822zm8.271 2.36c-.7-.4-1.457-.672-2.25-.81l.466-2.713a9.575 9.575 0 0 1 3.158 1.135z"/></g></g></g></svg>