<?xml version="1.0" encoding="utf-8"?>
<svg xmlns="http://www.w3.org/2000/svg" width="60" height="76" viewBox="0 0 60 76"><g><g><g><g/><g><path fill="#fff" d="M30.02 75.255l-.453-.157C11.882 68.958 0 52.255 0 33.535V15.717h1.377c7.467 0 13.542-6.074 13.542-13.54V.8h30.207v1.377c0 7.466 6.07 13.54 13.534 13.54h1.378v17.818c0 18.722-11.882 35.424-29.567 41.563zM2.755 33.535c0 17.389 10.936 32.92 27.265 38.8 16.328-5.879 27.263-21.41 27.263-38.8V18.414c-7.886-.664-14.191-6.972-14.855-14.86H17.616c-.663 7.888-6.973 14.196-14.861 14.86z"/></g></g><g><path fill="#ffaf00" d="M39.416 7.136c1.8 6.982 7.306 12.49 14.286 14.29v12.11c0 15.445-9.447 29.284-23.682 34.971C15.784 62.82 6.336 48.979 6.336 33.536v-12.11c6.983-1.799 12.493-7.307 14.293-14.29h18.787m-9.397 41.92c7.12 0 12.889-5.769 12.889-12.888 0-7.118-5.77-12.888-12.889-12.888-7.12 0-12.888 5.77-12.888 12.888 0 7.12 5.769 12.889 12.888 12.889"/></g><g><path fill="#fff" d="M30.02 21.902c7.867 0 14.269 6.4 14.269 14.27 0 7.867-6.402 14.269-14.27 14.269-7.867 0-14.269-6.402-14.269-14.27 0-7.868 6.402-14.269 14.27-14.269m-.006 25.836c6.377 0 11.566-5.19 11.566-11.57 0-6.379-5.189-11.57-11.566-11.57-6.378 0-11.567 5.191-11.567 11.57 0 6.38 5.19 11.57 11.567 11.57"/></g><g><path fill="#fff" d="M31.055 32.313c.278.278.431.646.431 1.038h2.7c0-1.113-.434-2.16-1.22-2.946a4.148 4.148 0 0 0-1.599-.995v-2.132h-2.7v2.132a4.155 4.155 0 0 0-2.819 3.941c0 1.114.434 2.16 1.221 2.949a4.145 4.145 0 0 0 2.948 1.22c.393 0 .76.153 1.038.43.278.279.431.648.431 1.04 0 .391-.153.76-.432 1.039-.552.553-1.52.555-2.076-.002a1.457 1.457 0 0 1-.43-1.038h-2.7c0 1.114.434 2.161 1.221 2.948a4.15 4.15 0 0 0 1.598.994v2.13h2.7v-2.13a4.145 4.145 0 0 0 1.598-.994 4.142 4.142 0 0 0 1.221-2.948c0-1.113-.434-2.16-1.22-2.946a4.138 4.138 0 0 0-2.949-1.222 1.46 1.46 0 0 1-1.039-.431 1.46 1.46 0 0 1-.43-1.039c0-.392.153-.76.43-1.038.556-.556 1.522-.556 2.077 0"/></g><g/><g><path fill="#fff" d="M36.594 37.52h2.61v-2.7h-2.61z"/></g><g><path fill="#fff" d="M20.832 37.52h2.61v-2.7h-2.61z"/></g></g></g></svg>