<?xml version="1.0" encoding="utf-8"?>
<svg xmlns="http://www.w3.org/2000/svg" width="74" height="74" viewBox="0 0 74 74"><g><g><g><path fill="#fff" d="M26.28 31.104a4.83 4.83 0 0 1-4.826-4.825 4.83 4.83 0 0 1 4.825-4.825 4.83 4.83 0 0 1 4.824 4.825 4.83 4.83 0 0 1-4.824 4.825m0-6.898c-1.143 0-2.073.93-2.073 2.073 0 1.143.93 2.073 2.073 2.073 1.143 0 2.072-.93 2.072-2.073 0-1.143-.93-2.073-2.072-2.073"/></g><g><path fill="#fff" d="M29.951 25.745l-1.375-2.385 4.407-2.542 1.375 2.384z"/></g><g><path fill="#fff" d="M26.278 52.157c-6.913 0-13.411-2.692-18.299-7.58C3.092 39.688.4 33.19.4 26.277c0-6.912 2.692-13.41 7.58-18.298C12.866 3.092 19.364.4 26.277.4c6.913 0 13.41 2.692 18.298 7.58 4.888 4.887 7.58 11.386 7.58 18.299 0 6.912-2.692 13.41-7.58 18.298-4.887 4.888-11.386 7.58-18.298 7.58m-.003-49.005a22.974 22.974 0 0 0-16.35 6.773 22.974 22.974 0 0 0-6.773 16.35 22.972 22.972 0 0 0 6.772 16.35 22.972 22.972 0 0 0 16.351 6.773 22.974 22.974 0 0 0 16.35-6.773 22.97 22.97 0 0 0 6.773-16.35 22.97 22.97 0 0 0-6.773-16.35 22.97 22.97 0 0 0-16.35-6.773"/></g><g><path fill="#fff" d="M48.081 50.019l-5.447-5.445 1.947-1.946 5.448 5.445z"/></g><g><path fill="#ffaf00" d="M49.996 57.965l10.43 10.43 7.968-7.97-10.428-10.429z"/></g><g><g/><g><path fill="#ffaf00" d="M70.343 62.374l-7.969 7.97 2.986 2.986 7.97-7.97z"/></g></g><g><path fill="#ffaf00" d="M56.02 48.051l-2.987-2.987-7.969 7.97 2.987 2.987z"/></g><g><path fill="#ffaf00" d="M38.903 18.992l-2.308 1.333a11.893 11.893 0 0 0-10.313-5.958c-6.578 0-11.91 5.332-11.91 11.91 0 2.168.583 4.202 1.596 5.951l-7.373 4.257a20.3 20.3 0 0 1-2.729-10.208c0-11.279 9.137-20.417 20.416-20.417 7.557 0 14.157 4.103 17.691 10.203l-2.317 1.338-.687-1.191-2.754 1.59zM8.525 27.655h3.18v-2.752h-3.18zm5.82-9.856l-2.753-1.59-1.375 2.384 2.753 1.589zm5.84-4.831l-1.59-2.754-2.383 1.375 1.59 2.754zm4.72-1.265h2.752v-3.18h-2.752zm11.45-.112l-2.386-1.376-1.593 2.754 2.388 1.376z"/></g><g><path fill="#ffaf00" d="M43.97 16.066a20.377 20.377 0 0 1 2.73 10.213c0 3.72-.996 7.208-2.73 10.213l-7.378-4.256a11.86 11.86 0 0 0 1.597-5.957c0-2.167-.584-4.203-1.597-5.952l2.308-1.333.688 1.192 2.754-1.59-.688-1.192zm.063 11.591v-2.751h-3.18v2.753z"/></g></g></g></svg>